<ttFont>
          <CharString index="0">
            rmoveto
            -3 -29 -5 -31 -4 -17 6 -10 rcurveline
            -71 callsubr
            27 29 -2 -2 24 hvcurveto
            -14 callgsubr
            14 -4 20 callsubr
            -23 1 10 -11 hvcurveto
            -9 7 -3 12 -3 30 rrcurveto
            -1 -71 callgsubr
            11 22 -96 callsubr
            -24 -63 callsubr
            -14 vlineto
            -1 callgsubr
            -1 -16 13 hvcurveto
            4 -4 6 -54 callgsubr
            2 -27 2 -17 -56 vvcurveto
            -130 vlineto
            hintmask 10111000
            -45 -11 -58 -74 -82 hhcurveto
            -54 -46 31 62 -13 hvcurveto
            -6 27 -2 41 29 36 3 70 45 -96 callsubr
            -25 -95 callsubr
            -3 8 callsubr
            3 -4 rlineto
            21 22 -1 -15 13 hvcurveto
            4 -5 9 -13 -14 vvcurveto
            -23 0 -96 1 -35 vhcurveto
            1 -38 -2 -40 6 -34 rrcurveto
            -100 18 72 -31 76 hhcurveto
            78 53 41 56 35 hvcurveto
            endchar
          </CharString>
          <CharString index="1">
            vstem
            487 293 rmoveto
            154 -24 -114 28 -70 hhcurveto
            -130 -103 -99 -146 -143 98 -98 140 72 62 25 25 32 hvcurveto
            10 11 rlineto
            18 vlineto
            -10 6 rlineto
            -23 -40 -51 -7 -41 hhcurveto
            -140 -56 89 101 8 0 9 1 9 hvcurveto
            118 hlineto
            73 -5 callsubr
            rlineto
            -200 161 rmoveto
            61 41 -31 -50 15 hvcurveto
            2 -6 2 -7 -8 vvcurveto
            -11 -5 -9 -17 -1 vhcurveto
            -4 -74 -67 -2 -71 hhcurveto
            -39 hlineto
            70 14 53 59 85 hhcurveto
            return
          </CharString>
          <CharString index="2">
            41 -229 rmoveto
            -4 -5 2 -24 8 -2 rlineto
            13 10 0 3 13 hvcurveto
            70 18 62 36 35 87 98 244 rcurveline
            11 28 65 181 37 63 14 24 10 9 24 3 5 5 rcurveline
            14 vlineto
            -53 callgsubr
            -3 -25 -20 -3 -22 hhcurveto
            -41 hlineto
            -22 -25 2 4 -26 hvcurveto
            -62 callgsubr
            26 -3 26 -7 -29 vvcurveto
            -58 -54 -123 -18 -45 vhcurveto
            -47 -115 -50 130 rlineto
            -10 25 -59 155 31 vvcurveto
            24 22 12 29 3 -55 callsubr
            -3 -26 -34 -3 -21 hhcurveto
            -39 hlineto
            -21 -28 3 3 -22 9 callgsubr
            -14 vlineto
            6 -5 28 -3 15 -12 13 -21 rlinecurve
            6 -10 6 -13 6 -15 25 -64 46 -113 10 -25 69 -181 rcurveline
            -32 -81 -12 -31 -19 -31 -25 -26 rlinecurve
            -37 -36 -26 -2 -38 hhcurveto
            return
          </CharString>
          <CharString index="3">
            291 475 rmoveto
            -154 -92 -112 -131 -122 79 -121 169 164 81 116 122 129 -89 119 -158 hvcurveto
            1 -447 rmoveto
            -109 -63 108 98 97 52 102 116 111 62 -109 -97 -100 -56 -99 -113 hvcurveto
            return
          </CharString>
          <CharString index="4">
            -102 callsubr
            -18 return
          </CharString>
          <CharString index="5">
            5 1 -19 hvcurveto
            -2 -4 3 return
          </CharString>
          <CharString index="6">
            -125 rmoveto
            10 40 5 42 8 84 3 2 rcurveline
            -41 17 67 -13 38 hhcurveto
            78 53 41 56 35 hvcurveto
            -3 -29 -2 -33 -4 -17 6 -10 rcurveline
            hintmask 10111100
            -71 callsubr
            27 29 -2 -2 24 hvcurveto
            -14 callgsubr
            14 -4 20 callsubr
            -23 1 10 -11 hvcurveto
            -9 7 -3 12 -3 30 rrcurveto
            -1 -71 callgsubr
            11 22 -96 callsubr
            -24 -63 callsubr
            -14 vlineto
            -1 callgsubr
            -1 -16 13 hvcurveto
            4 -4 6 -54 callgsubr
            3 -27 1 -17 -56 vvcurveto
            -130 vlineto
            hintmask 11011100
            -45 -11 -58 -74 -82 hhcurveto
            -54 -46 31 62 -13 hvcurveto
            -6 27 -2 41 29 36 3 70 45 -96 callsubr
            -25 -95 callsubr
            -3 8 callsubr
            3 -4 rlineto
            21 22 -1 -15 13 hvcurveto
            4 -5 6 -13 1 -14 rrcurveto
            1 -18 2 -79 -52 vvcurveto
            -98 vlineto
            -53 -20 -117 -35 -69 vhcurveto
            -6 vlineto
            -16 11 22 -9 31 hhcurveto
            9 hlineto
            endchar
          </CharString>
          <CharString index="7">
            166 -2 50 -33 -21 27 -21 326 44 236 52 2 -20 hstemhm
            132 71 396 81 hintmask 10011011
            44 326 rmoveto
            88 -115 hlineto
            -26 callgsubr
            hintmask 01011011
            -62 callsubr
            hintmask 00111011
            1 19 74 5 19 hhcurveto
            53 hlineto
            hintmask 10011011
            -84 callsubr
            hintmask 10010111
            -29 -55 -87 callsubr
            12 -9 10 -15 3 -33 rrcurveto
            2 -33 0 -94 -26 vvcurveto
            -44 -80 vlineto
            203 -322 rmoveto
            -34 -11 4 35 -4 hvcurveto
            -3 23 0 41 80 vvcurveto
            95 170 vlineto
            8 44 rlineto
            -178 45 hlineto
            hintmask 10011011
            -78 callgsubr
            endchar
          </CharString>
          <CharString index="8">
            -9 -12 -20 -95 callgsubr
            return
          </CharString>
          <CharString index="9">
            -5 -1 -93 callgsubr
            return
          </CharString>
          <CharString index="10">
            rrcurveto
            3 -31 0 -29 -93 -90 callgsubr
            -28 callsubr
            -3 -37 -12 -11 -61 callsubr
            -99 callsubr
            return
          </CharString>
          <CharString index="11">
            vvcurveto
            16 1 -92 callgsubr
            return
          </CharString>
          <CharString index="12">
            -41 0 -22 hhcurveto
            -18 hlineto
            return
          </CharString>
          <CharString index="13">
            rmoveto
            -1 -19 -74 -50 callgsubr
            -19 hlineto
            -19 -74 -103 callsubr
            -67 callgsubr
            21 20 -75 callgsubr
            10 -9 12 -12 2 -36 rrcurveto
            0 callgsubr
            -179 0 -97 -37 -38 vhcurveto
            -7 -7 -9 -7 -7 -4 rrcurveto
            -5 -13 -13 0 -17 hhcurveto
            -4 -5 2 -22 8 -3 rlineto
            10 15 1 2 11 hvcurveto
            83 15 47 107 1 107 rrcurveto
            30 1 30 95 vvcurveto
            184 -37 callsubr
            3 37 -79 callsubr
            endchar
          </CharString>
          <CharString index="14">
            rmoveto
            -91 -54 -83 -104 -98 49 -83 93 97 51 89 96 98 -53 85 -92 hvcurveto
            -330 vmoveto
            -56 -40 56 91 83 33 62 61 60 38 -63 -82 -81 -35 -66 -61 hvcurveto
            return
          </CharString>
          <CharString index="15">
            -4 -3 -18 -62 callsubr
            return
          </CharString>
          <CharString index="16">
            hstem
            52 71 210 67 vstem
            199 281 rmoveto
            -60 14 -16 30 31 vvcurveto
            41 27 40 67 40 76 -19 -62 vhcurveto
            14 callsubr
            -57 20 -62 hhcurveto
            -93 -73 -45 -89 -47 22 -49 87 -22 hvcurveto
            96 -24 rlineto
            69 -18 1 -41 -24 vvcurveto
            -37 -28 -49 -91 -76 -41 40 63 vhcurveto
            -3 4 rlineto
            -23 hlineto
            -15 -103 2 -9 rlineto
            -17 33 61 -19 65 hhcurveto
            117 72 62 85 42 -18 62 -112 25 hvcurveto
            return
          </CharString>
          <CharString index="17">
            19 rmoveto
            76 hlineto
            4 4 55 89 45 -56 callsubr
            48 67 55 77 74 82 rlinecurve
            1 8 callgsubr
            -5 -4 -47 -82 -56 -77 -49 -67 rlinecurve
            -121 -165 -73 -99 -47 -67 -77 -89 rlinecurve
            return
          </CharString>
          <CharString index="18">
            rmoveto
            70 53 40 86 49 84 -12 -70 5 vhcurveto
            5 -5 rlineto
            28 hlineto
            14 89 -4 11 rlineto
            18 -40 -68 16 -72 hhcurveto
            -119 -94 -46 -125 -106 83 -44 106 -34 hvcurveto
            86 -28 88 -26 -94 vvcurveto
            -75 -53 -53 -104 -101 -61 37 81 -7 vhcurveto
            -5 6 rlineto
            -25 hlineto
            -17 -107 4 -13 rlineto
            -28 54 69 -21 82 hhcurveto
            127 114 50 136 128 -100 45 -100 31 hvcurveto
            -114 36 -53 19 74 vvcurveto
            endchar
          </CharString>
          <CharString index="19">
            5 11 vhcurveto
            -6 9 -35 -54 callsubr
            return
          </CharString>
          <CharString index="20">
            -103 callsubr
            -67 callgsubr
            33 8 -3 -7 12 hvcurveto
            return
          </CharString>
          <CharString index="21">
            19 65 3 19 hhcurveto
            14 hlineto
            return
          </CharString>
          <CharString index="22">
            rmoveto
            -21 hlineto
            -6 -44 rlineto
            -38 24 32 -24 51 hhcurveto
            79 49 62 56 38 -22 36 -49 11 hvcurveto
            hintmask 11101000
            37 19 16 29 29 vvcurveto
            46 -40 42 -67 -62 -23 -31 -28 -14 vhcurveto
            5 -44 rlineto
            22 hlineto
            hintmask 11110100
            -1 4 0 3 3 vvcurveto
            43 35 19 34 34 34 -19 -40 -33 -23 -35 -41 -1 vhcurveto
            -6 -21 rlineto
            15 hlineto
            49 24 -38 -38 -53 -42 -26 -43 -38 -36 19 54 -6 hvcurveto
            endchar
          </CharString>
          <CharString index="23">
            29 80 -2 24 hhcurveto
            221 115 155 175 180 -122 150 -208 hvcurveto
            -33 -76 -4 -35 hhcurveto
            -57 hlineto
            return
          </CharString>
          <CharString index="24">
            19 61 -98 callsubr
            -14 callsubr
            -34 -32 1 66 -30 hvcurveto
            -9 20 -10 25 -28 79 -164 454 rcurveline
            -48 -86 -56 callgsubr
            return
          </CharString>
          <CharString index="25">
            -45 callgsubr
            hintmask 10011000
            10 40 2 10 hhcurveto
            38 hlineto
            hintmask 01111000
            10 35 -2 10 hhcurveto
            -2 12 rlineto
            -49 -1 25 84 hvcurveto
            28 hlineto
            8 32 rlineto
            -36 -89 callgsubr
          </CharString>
          <CharString index="26">
            rmoveto
            -168 -135 -135 -165 -165 135 -137 163 173 136 133 169 165 -136 135 -168 hvcurveto
            -29 vmoveto
            148 121 -122 -149 -153 -120 -120 -153 -144 -120 123 150 149 120 122 148 hvcurveto
            endchar
          </CharString>
          <CharString index="27">
            84 vstem
            63 -97 -46 callsubr
            return
          </CharString>
          <CharString index="28">
            vhcurveto
            2 37 12 11 10 9 rrcurveto
            9 12 -73 callgsubr
            4 20 callgsubr
            rlineto
            return
          </CharString>
          <CharString index="29">
            rmoveto
            -59 -30 -11 -30 -41 -98 -36 -93 rlinecurve
            -110 -282 -10 -25 -10 -20 rrcurveto
            -66 -31 -31 -1 -34 hhcurveto
            -5 -4 -2 -18 -43 callsubr
            return
          </CharString>
          <CharString index="30">
            vvcurveto
            -203 vlineto
            return
          </CharString>
          <CharString index="31">
            -27 -13 -57 -63 -61 vvcurveto
            -15 3 -28 22 24 35 11 22 vhcurveto
            21 -11 14 14 vvcurveto
            17 4 32 19 39 vhcurveto
            4 vlineto
            -6 6 rlineto
            return
          </CharString>
          <CharString index="32">
            2 0 48 -33 -21 23 -21 332 38 240 48 return
          </CharString>
          <CharString index="33">
            11 38 -1 -1 12 hvcurveto
            -3 13 rlineto
            -12 -18 4 5 -7 hvcurveto
            -7 5 -7 8 -1 16 rrcurveto
            -2 28 0 10 67 vvcurveto
            55 vlineto
            65 0 45 4 42 vhcurveto
            -14 5 rlineto
            -4 hlineto
            -30 -28 -30 -16 -35 -17 -1 -4 rcurveline
            endchar
          </CharString>
          <CharString index="34">
            -25 21 -21 26 24 -49 callsubr
            -24 -26 -21 -23 -25 vhcurveto
            endchar
          </CharString>
          <CharString index="35">
            100 rlineto
            -23 -1 -12 -14 -19 vvcurveto
            -6 1 -6 3 -7 vhcurveto
            201 -77 rlineto
            return
          </CharString>
          <CharString index="36">
            2 21 24 1 24 hhcurveto
            return
          </CharString>
          <CharString index="37">
            81 -21 361 -20 hstem
            244 421 rmoveto
            -58 hlineto
            -7 -4 -32 -50 -33 -43 -67 -84 rlinecurve
            67 -83 33 -43 32 -50 7 -4 rcurveline
            58 hlineto
            5 10 -58 59 -39 51 -43 60 rlinecurve
            43 61 39 51 58 59 rrcurveto
            return
          </CharString>
          <CharString index="38">
            52 11 10 30 48 117 36 93 rlinecurve
            110 282 11 25 9 20 rrcurveto
            66 32 30 1 34 hhcurveto
            -39 callsubr
            -61 -50 callgsubr
            -19 hlineto
            -19 -68 5 1 -19 hvcurveto
            -2 -4 return
          </CharString>
          <CharString index="39">
            -5 5 rlineto
            -16 -41 1 10 -14 hvcurveto
            -11 9 -2 20 -2 20 rrcurveto
            -3 37 -1 30 113 vvcurveto
            155 return
          </CharString>
          <CharString index="40">
            -63 callgsubr
            hhcurveto
            hintmask 11001011
            -87 callgsubr
            hintmask 11100111
            -65 callgsubr
            endchar
          </CharString>
          <CharString index="41">
            106 -6 26 1 -21 279 43 343 -20 return
          </CharString>
          <CharString index="42">
            -29 -55 -87 callsubr
            12 -9 10 -15 3 -33 rrcurveto
            125 -519 rmoveto
            -34 -11 4 35 -4 hvcurveto
            -3 23 0 41 80 vvcurveto
            184 vlineto
            return
          </CharString>
          <CharString index="43">
            -1 callgsubr
            -2 -15 13 hvcurveto
            4 -5 8 -12 1 -14 rrcurveto
            2 -43 1 -35 -22 callgsubr
            -2 -34 vhcurveto
            -2 -27 -3 -13 -61 callsubr
            -10 -11 -23 -35 callsubr
            return
          </CharString>
          <CharString index="44">
            -95 callsubr
            -4 -3 rlineto
            return
          </CharString>
          <CharString index="45">
            2 -4 rlineto
            return
          </CharString>
          <CharString index="46">
            -10 -9 rrcurveto
            return
          </CharString>
          <CharString index="47">
            rmoveto
            -25 18 -19 23 21 20 19 25 24 -20 21 -21 23 callsubr
            22 22 20 19 25 24 -20 21 -22 -22 -18 -21 -24 vhcurveto
            endchar
          </CharString>
          <CharString index="48">
            -3 20 callsubr
            -23 1 10 -12 hvcurveto
            -8 7 -3 12 -3 30 rrcurveto
            48 -1 49 48 vvcurveto
            38 0 40 -4 35 vhcurveto
            97 -12 -79 42 -76 hhcurveto
            -81 -54 -44 -57 -34 hvcurveto
            return
          </CharString>
          <CharString index="49">
            129 567 rmoveto
            2 -33 0 -94 -26 vvcurveto
            -203 vlineto
            -26 callgsubr
            return
          </CharString>
          <CharString index="50">
            101 rlineto
            -23 -1 -12 -15 -19 vvcurveto
            -5 1 -7 return
          </CharString>
          <CharString index="51">
            65 73 101 rlinecurve
            120 165 return
          </CharString>
          <CharString index="52">
            vhcurveto
            10 callgsubr
            12 vlineto
            -53 callgsubr
            return
          </CharString>
          <CharString index="53">
            -5 rlineto
            -4 return
          </CharString>
          <CharString index="54">
            68 69 29 21 29 hvcurveto
            15 28 -10 10 rlineto
            -21 -40 -62 -16 -45 hhcurveto
            -132 -61 93 101 100 56 96 122 43 81 -12 -62 hvcurveto
            4 -3 rlineto
            return
          </CharString>
          <CharString index="55">
            rmoveto
            61 41 -31 -50 15 hvcurveto
            2 -6 2 -7 -8 vvcurveto
            -11 -5 -9 -17 -1 vhcurveto
            -4 -74 -68 -2 -70 hhcurveto
            -39 hlineto
            70 14 52 59 86 hhcurveto
            endchar
          </CharString>
          <CharString index="56">
            61 104 -61 7 3 6 19 -37 callgsubr
            return
          </CharString>
          <CharString index="57">
            rmoveto
            66 17 rlineto
            2 -26 0 -9 -65 vvcurveto
            -67 vlineto
            -55 0 -15 -2 -21 vhcurveto
            -2 -16 -6 -8 -6 -5 rrcurveto
            -21 callgsubr
            return
          </CharString>
          <CharString index="58">
            23 21 25 25 -23 23 return
          </CharString>
          <CharString index="59">
            -1 19 hvcurveto
            return
          </CharString>
          <CharString index="60">
            -98 callgsubr
            endchar
          </CharString>
          <CharString index="61">
            rmoveto
            -98 callgsubr
            return
          </CharString>
          <CharString index="62">
            -4 -92 callsubr
            return
          </CharString>
          <CharString index="63">
            -20 -9 callgsubr
            return
          </CharString>
          <CharString index="64">
            1 -4 rlineto
            return
          </CharString>
          <CharString index="65">
            rmoveto
            17 hlineto
            10 callgsubr
            51 10 10 18 104 hhcurveto
            95 hlineto
            4 -4 -38 -100 -167 -240 -57 -56 rlinecurve
            -14 vlineto
            7 -8 rlineto
            return
          </CharString>
          <CharString index="66">
            9 -11 rlineto
            4 14 18 3 16 hhcurveto
            28 24 -10 -36 -31 -25 -9 -29 -25 -28 6 6 -16 hvcurveto
            -7 hlineto
            -13 -23 rlineto
            endchar
          </CharString>
          <CharString index="67">
            hlineto
            hintmask 10110000
            -77 callgsubr
            return
          </CharString>
          <CharString index="68">
            5 20 callgsubr
            -2 4 rlineto
            -1 -19 return
          </CharString>
          <CharString index="69">
            -44 -11 55 216 47 123 45 return
          </CharString>
          <CharString index="70">
            -1 callsubr
            19 return
          </CharString>
          <CharString index="71">
            hmoveto
            -25 18 -19 23 return
          </CharString>
          <CharString index="72">
            -1 -21 hhcurveto
            return
          </CharString>
          <CharString index="73">
            718 rmoveto
            201 77 rlineto
            3 7 1 -38 callgsubr
            -181 6 callgsubr
            return
          </CharString>
          <CharString index="74">
            rmoveto
            -96 -46 -96 -105 -105 -47 93 42 -7 vhcurveto
            110 vlineto
            43 3 58 86 100 hhcurveto
            102 47 -91 -91 hvcurveto
            endchar
          </CharString>
          <CharString index="75">
            -6 callgsubr
            29 -1 -1 11 hvcurveto
            -3 13 rlineto
            return
          </CharString>
          <CharString index="76">
            rmoveto
            -9 -52 rlineto
            328 hlineto
            10 52 rlineto
            return
          </CharString>
          <CharString index="77">
            -12 1 callsubr
            -31 return
          </CharString>
          <CharString index="78">
            -121 -4 -35 hhcurveto
            return
          </CharString>
          <CharString index="79">
            -1 -20 vhcurveto
            return
          </CharString>
          <CharString index="80">
            -23 -40 -50 -7 -41 hhcurveto
            -141 -56 89 101 8 0 9 1 9 hvcurveto
            119 hlineto
            72 78 2 72 hhcurveto
            return
          </CharString>
          <CharString index="81">
            12 -2 28 rrcurveto
            return
          </CharString>
          <CharString index="82">
            17 -21 25 -21 return
          </CharString>
          <CharString index="83">
            20 113 vvcurveto
            218 vlineto
            -22 callsubr
            1 50 5 11 -6 9 rcurveline
            return
          </CharString>
          <CharString index="84">
            -20 hstemhm
            91 69 272 66 hintmask 01111000
            return
          </CharString>
          <CharString index="85">
            113 0 22 3 43 vhcurveto
            1 16 return
          </CharString>
          <CharString index="86">
            -23 1 vhcurveto
            -180 return
          </CharString>
          <CharString index="87">
            -39 callgsubr
            -61 callsubr
            -9 -12 -21 -35 callsubr
            -4 -4 -3 -18 return
          </CharString>
          <CharString index="88">
            -5 -1 18 hvcurveto
            9 10 18 129 rlineto
            -27 hlineto
            return
          </CharString>
          <CharString index="89">
            vhcurveto
            -39 callsubr
            return
          </CharString>
          <CharString index="90">
            154 -11 59 586 26 return
          </CharString>
          <CharString index="91">
            14 -11 39 405 42 return
          </CharString>
          <CharString index="92">
            hlineto
            14 64 20 78 22 62 -2 4 rcurveline
            -76 hlineto
            -2 -4 -5 -62 -14 -78 -13 -64 rlinecurve
            return
          </CharString>
          <CharString index="93">
            -5 4 rlineto
            return
          </CharString>
          <CharString index="94">
            177 -6 26 -8 -21 30 -21 634 20 return
          </CharString>
          <CharString index="95">
            19 callsubr
            -5 20 callsubr
            return
          </CharString>
          <CharString index="96">
            -36 callgsubr
            rlineto
            return
          </CharString>
          <CharString index="97">
            -11 53 570 53 return
          </CharString>
          <CharString index="98">
            714 rmoveto
            -1 callgsubr
            -2 -15 13 hvcurveto
            4 -5 8 -12 1 -14 rrcurveto
            return
          </CharString>
          <CharString index="99">
            -184 rmoveto
            -11 26 33 -8 32 hhcurveto
            63 47 40 44 41 -33 31 -46 -10 return
          </CharString>
          <CharString index="100">
            -17 callsubr
            188 -20 hstem
            114 71 367 57 vstem
            return
          </CharString>
          <CharString index="101">
            vhcurveto
            -2 8 callgsubr
            -1 -4 rlineto
            12 return
          </CharString>
          <CharString index="102">
            78 2 72 hhcurveto
            16 7 return
          </CharString>
          <CharString index="103">
            -1 -623 rmoveto
            return
          </CharString>
          <CharString index="104">
            -26 20 -21 26 25 23 21 26 25 -23 22 -25 -26 -20 -22 -25 vhcurveto
            return
          </CharString>
          <CharString index="105">
            rmoveto
            6 20 -3 7 -181 return
          </CharString>
          <CharString index="106">
            vlineto
            96 0 return
          </CharString>
          <CharString index="107">
            4 -3 rlineto
            21 hlineto
            11 77 -3 9 return
          </CharString>
          <CharString index="108">
            2 -36 rrcurveto
            2 return
          </CharString>
          <CharString index="109">
            10 callsubr
            endchar
          </CharString>
          <CharString index="110">
            76 hlineto
            3 4 6 64 13 78 15 76 rlinecurve
            134 hlineto
            return
          </CharString>
          <CharString index="111">
            4 2 rlineto
            69 vlineto
            -4 2 rlineto
            -11 -89 -21 -1 -41 hhcurveto
            return
          </CharString>
          <CharString index="112">
            37 rrcurveto
            -2 31 -1 18 95 vvcurveto
            return
          </CharString>
          <CharString index="113">
            11 -3 37 rrcurveto
            -2 return
          </CharString>
          <CharString index="114">
            45 75 341 return
          </CharString>
          <CharString index="115">
            -3 rlineto
            -14 vlineto
            return
          </CharString>
          <CharString index="116">
            19 2 37 vhcurveto
            return
          </CharString>
          <CharString index="117">
            -54 callsubr
            -25 -95 callsubr
            -4 -4 rlineto
            return
          </CharString>
          <CharString index="118">
            -5 20 -8 3 -104 -62 -103 62 -8 -3 -5 -20 2 return
          </CharString>
          <CharString index="119">
            19 74 -5 -48 callsubr
            endchar
          </CharString>
          <CharString index="120">
            38 -52 hvcurveto
            1 -121 rmoveto
            -27 -19 25 24 23 return
          </CharString>
          <CharString index="121">
            0 callsubr
            rlineto
            16 -29 return
          </CharString>
          <CharString index="122">
            rmoveto
            -111 -99 -2 -7 5 return
          </CharString>
          <CharString index="123">
            -98 -1 -115 -11 -89 vhcurveto
            return
          </CharString>
          <CharString index="124">
            33 155 21 128 31 return
          </CharString>
          <CharString index="125">
            -48 callgsubr
            -79 return
          </CharString>
          <CharString index="126">
            -2 rmoveto
            -3 18 return
          </CharString>
          <CharString index="127">
            4 rlineto
            -21 return
          </CharString>
          <CharString index="128">
            -19 8 -3 103 61 104 -61 8 3 5 19 return
          </CharString>
          <CharString index="129">
            5 callsubr
            184 vlineto
            return
          </CharString>
          <CharString index="130">
            -23 -18 -21 -24 vhcurveto
            157 hmoveto
            -25 18 -19 return
          </CharString>
          <CharString index="131">
            -4 2 -18 5 -4 return
          </CharString>
          <CharString index="132">
            -5 10 rlineto
            return
          </CharString>
          <CharString index="133">
            673 -44 callgsubr
            -19 return
          </CharString>
          <CharString index="134">
            19 72 -3 -48 callsubr
            return
          </CharString>
          <CharString index="135">
            3 34 40 3 29 hhcurveto
            return
          </CharString>
        <CharString name=".notdef">
          -303 176 136 hstem
          65 136 vstem
          65 -19 callgsubr
        </CharString>
        <CharString name="A">
          -66 callsubr
          hstemhm
          hintmask 10110000
          -79 callgsubr
          hintmask 01110000
          1 19 61 -28 callgsubr
          hintmask 10110000
          19 69 -98 callsubr
          -14 callsubr
          -38 -23 4 38 31 24 55 30 83 hvcurveto
          17 48 rlineto
          224 hlineto
          17 -48 rlineto
          30 -83 24 -55 -31 vvcurveto
          -38 -23 -4 -38 vhcurveto
          -45 callsubr
          hintmask 01110000
          1 19 75 5 19 hhcurveto
          33 hlineto
          hintmask 10110000
          -83 callsubr
          endchar
        </CharString>
        <CharString name="AE">
          299 0 20 -20 48 -33 -21 23 -21 332 38 240 48 6 -20 hstemhm
          457 70 0 241 0 31 hintmask 1000110010000000
          359 520 rmoveto
          -93 -160 -155 -254 -13 -19 -14 -21 -15 -18 -13 -9 -18 -13 -37 -4 -24 -2 -5 -4 rcurveline
          -2 -18 rlineto
          hintmask 0010110010000000
          -4 vlineto
          hintmask 1000110010000000
          1 19 62 -28 callgsubr
          hintmask 0010110010000000
          19 85 -5 -48 callsubr
          3 -59 callgsubr
          rlineto
          hintmask 1000110101000000
          -14 callsubr
          -32 -25 3 26 25 19 38 129 216 hvcurveto
          159 hlineto
          -196 -20 callsubr
          rlineto
          hintmask 0010110010000000
          -62 callsubr
          hintmask 1000110010000000
          1 19 74 5 19 hhcurveto
          173 hlineto
          hintmask 0001110010000000
          35 97 -4 12 hhcurveto
          8 10 18 127 rlineto
          -26 hlineto
          -3 -4 rlineto
          hintmask 0100110010000000
          -73 -19 -8 -8 -161 hhcurveto
          -56 hlineto
          -14 -6 5 14 -1 hvcurveto
          -5 51 0 18 192 vvcurveto
          85 -1 50 4 16 -17 rrcurveto
          10 -12 10 -19 -21 vvcurveto
          3 -3 19 -2 3 2 rlineto
          -2 32 -2 25 32 vvcurveto
          29 2 30 2 29 vhcurveto
          -3 2 -18 -2 -4 -4 rlineto
          -20 -11 -18 -9 -11 vhcurveto
          -16 -19 -54 4 -81 -2 rrcurveto
          83 0 79 6 78 vhcurveto
          67 hlineto
          160 4 -1 -62 4 hvcurveto
          4 -4 rlineto
          25 hlineto
          4 109 -4 10 rlineto
          -13 -29 callsubr
          -136 hlineto
          hintmask 1000101101000000
          -28 -96 4 2 -18 hvcurveto
          -2 -4 3 -18 4 -4 rlineto
          39 -5 4 -9 -18 vvcurveto
          -20 -19 -28 -20 -34 vhcurveto
          97 73 rmoveto
          1 -32 0 -58 -137 vvcurveto
          -135 hlineto
          endchar
        </CharString>
        <CharString name="Aacute">
          -66 callsubr
          203 -20 hstemhm
          hintmask 10111000
          237 718 rmoveto
          202 77 rlineto
          3 7 0 -38 callgsubr
          -180 6 callgsubr
          131 -56 -78 callsubr
          hintmask 01111000
          1 19 61 -28 callgsubr
          hintmask 10111000
          19 69 -98 callsubr
          -14 callsubr
          -38 -23 4 38 31 24 55 30 83 hvcurveto
          17 48 rlineto
          224 hlineto
          17 -48 rlineto
          30 -83 24 -55 -31 vvcurveto
          -38 -23 -4 -38 vhcurveto
          -45 callsubr
          hintmask 01111000
          1 19 75 5 19 hhcurveto
          33 hlineto
          hintmask 10111000
          -83 callsubr
          endchar
        </CharString>
        <CharString name="Acircumflex">
          -66 callsubr
          197 -20 hstemhm
          hintmask 10111000
          332 842 -64 callgsubr
          21 -177 -78 callsubr
          hintmask 01111000
          1 19 61 -28 callgsubr
          hintmask 10111000
          19 69 -98 callsubr
          -14 callsubr
          -38 -23 4 38 31 24 55 30 83 hvcurveto
          17 48 rlineto
          224 hlineto
          17 -48 rlineto
          30 -83 24 -55 -31 vvcurveto
          -38 -23 -4 -38 vhcurveto
          -45 callsubr
          hintmask 01111000
          1 19 75 5 19 hhcurveto
          33 hlineto
          hintmask 10111000
          -83 callsubr
          endchar
        </CharString>
        <CharString name="Adieresis">
          -66 callsubr
          105 89 hstemhm
          297 74 hintmask 10111100
          -79 callgsubr
          hintmask 01111100
          1 19 61 -28 callgsubr
          hintmask 10111100
          19 69 -98 callsubr
          -14 callsubr
          -38 -23 4 38 31 24 55 30 83 hvcurveto
          17 48 rlineto
          224 hlineto
          17 -48 rlineto
          30 -83 24 -55 -31 vvcurveto
          -38 -23 -4 -38 vhcurveto
          -45 callsubr
          hintmask 01111100
          1 19 75 5 19 hhcurveto
          33 hlineto
          hintmask 10111100
          -83 callsubr
          -14 472 rmoveto
          -97 callgsubr
          157 -36 callsubr
          21 20 19 25 24 -20 21 -21 -58 callgsubr
        </CharString>
        <CharString name="Agrave">
          -66 callsubr
          203 -20 hstemhm
          hintmask 10111000
          437 721 rmoveto
          5 20 -2 7 -181 -72 callsubr
          -68 -53 -78 callsubr
          hintmask 01111000
          1 19 61 -28 callgsubr
          hintmask 10111000
          19 69 -98 callsubr
          -14 callsubr
          -38 -23 4 38 31 24 55 30 83 hvcurveto
          17 48 rlineto
          224 hlineto
          17 -48 rlineto
          30 -83 24 -55 -31 vvcurveto
          -38 -23 -4 -38 vhcurveto
          -45 callsubr
          hintmask 01111000
          1 19 75 5 19 hhcurveto
          33 hlineto
          hintmask 10111000
          -83 callsubr
          endchar
        </CharString>
        <CharString name="Aring">
          107 -6 26 1 -21 279 43 431 25 hstemhm
          288 90 hintmask 10111000
          333 778 rmoveto
          -51 -31 -36 -37 -27 17 -30 35 -11 hvcurveto
          -15 -37 -41 -100 -33 -86 -110 -282 -10 -25 -10 -20 rrcurveto
          -66 -31 -31 -1 -34 hhcurveto
          -5 -4 -2 -18 -43 callsubr
          hintmask 01111000
          1 19 61 -28 callgsubr
          hintmask 10111000
          19 69 -98 callsubr
          -14 callsubr
          -38 -23 4 38 31 24 55 30 83 hvcurveto
          17 48 rlineto
          224 hlineto
          17 -48 rlineto
          30 -83 24 -55 -31 vvcurveto
          -38 -23 -4 -38 vhcurveto
          -45 callsubr
          hintmask 01111000
          1 19 75 5 19 hhcurveto
          33 hlineto
          hintmask 10111000
          19 61 -98 callsubr
          -14 callsubr
          -34 -32 1 66 -30 hvcurveto
          -9 20 -10 25 -28 79 -157 433 rcurveline
          24 13 13 23 23 vvcurveto
          37 -31 38 -52 vhcurveto
          -9 -199 -56 callgsubr
          106 334 rmoveto
          -26 -20 25 25 23 16 24 28 28 18 -26 -24 -23 -17 -24 -27 hvcurveto
          endchar
        </CharString>
        <CharString name="Atilde">
          -66 callsubr
          110 -30 callgsubr
          hintmask 10111001
          -79 callgsubr
          hintmask 01111001
          1 19 61 -28 callgsubr
          hintmask 10111001
          19 69 -98 callsubr
          -14 callsubr
          -38 -23 4 38 31 24 55 30 83 hvcurveto
          17 48 rlineto
          224 hlineto
          17 -48 rlineto
          30 -83 24 -55 -31 vvcurveto
          -38 -23 -4 -38 vhcurveto
          -45 callsubr
          hintmask 01111001
          1 19 75 5 19 hhcurveto
          33 hlineto
          hintmask 10110101
          -83 callsubr
          261 510 -63 callgsubr
          hhcurveto
          hintmask 10110010
          -87 callgsubr
          hintmask 10111001
          -65 callgsubr
          endchar
        </CharString>
        <CharString name="B">
          18 0 48 -33 -21 338 37 237 49 5 -70 callgsubr
          210 62 -8 69 hintmask 10110101
          290 hmoveto
          144 101 56 132 98 -55 56 -97 17 hvcurveto
          hintmask 10110110
          47 23 44 42 80 vvcurveto
          91 -58 60 -144 vhcurveto
          -18 -52 -1 -29 hhcurveto
          -36 hlineto
          hintmask 01101110
          -28 -45 -87 callsubr
          10 -8 13 -13 1 callsubr
          -33 0 -37 -26 vvcurveto
          -250 vlineto
          -79 -1 -35 -28 callsubr
          -4 -34 -10 -16 -11 -8 rrcurveto
          -8 -12 -25 -1 -16 hhcurveto
          -5 -92 callsubr
          hintmask 10110101
          1 19 74 5 19 hhcurveto
          140 332 rmoveto
          95 74 -50 -96 -112 -102 -26 -63 hvcurveto
          -61 hlineto
          -20 -13 3 36 -2 hvcurveto
          -2 27 -1 143 75 vvcurveto
          17 37 rmoveto
          -17 0 10 31 hvcurveto
          62 17 callgsubr
          90 hlineto
          hintmask 10110110
          73 42 -39 -70 -48 -21 -36 -29 -19 hvcurveto
          -22 -31 -39 -3 -43 hhcurveto
          endchar
        </CharString>
        <CharString name="C">
          81 -11 52 571 53 -84 callgsubr
          endchar
        </CharString>
        <CharString name="CR">
          -316 endchar
        </CharString>
        <CharString name="Ccaron">
          81 -11 52 571 53 176 -20 -84 callgsubr
          -166 178 -85 callgsubr
          endchar
        </CharString>
        <CharString name="Ccedilla">
          82 -203 36 86 34 37 51 571 53 hstem
          55 80 284 59 vstem
          277 -8 callsubr
          -7 0 -4 -11 hvcurveto
          23 40 66 1 65 16 64 35 rlinecurve
          22 45 -10 11 rlineto
          -44 -63 -79 -12 -54 hhcurveto
          -155 -115 99 188 99 32 89 62 51 hvcurveto
          31 39 51 14 66 hhcurveto
          75 83 -18 -59 9 hvcurveto
          3 -4 rlineto
          29 hlineto
          13 91 -3 9 rlineto
          27 -68 -86 7 -49 hhcurveto
          -220 -116 -153 -188 -189 117 -131 182 -14 hvcurveto
          -44 -67 -41 callsubr
        </CharString>
        <CharString name="D">
          165 -2 50 -33 -21 27 -21 606 52 2 -70 callgsubr
          396 81 hintmask 10010110
          -58 callsubr
          hintmask 01010110
          -62 callsubr
          hintmask 00110110
          1 19 74 5 19 hhcurveto
          53 hlineto
          hintmask 10010110
          -84 callsubr
          hintmask 10001110
          -65 callsubr
          hintmask 10010110
          -78 callgsubr
          endchar
        </CharString>
        <CharString name="Dcaron">
          165 -2 50 -33 -21 27 -21 606 52 183 -70 callgsubr
          396 81 hintmask 10011110
          -58 callsubr
          hintmask 01011110
          -62 callsubr
          hintmask 00111110
          1 19 74 5 19 hhcurveto
          53 hlineto
          hintmask 10011110
          -84 callsubr
          -65 callsubr
          -78 callgsubr
          8 665 -85 callgsubr
          endchar
        </CharString>
        <CharString name="Dcroat">
          -100 callsubr
        </CharString>
        <CharString name="E">
          -75 callsubr
          6 -70 callgsubr
          269 31 hintmask 10011011
          167 654 rmoveto
          hintmask 01010111
          -29 -74 -103 callsubr
          -67 callgsubr
          21 20 -75 callgsubr
          10 -9 13 -30 callsubr
          0 -29 -93 -90 callgsubr
          -28 callsubr
          -3 -37 -12 -11 -61 callsubr
          -99 callsubr
          hintmask 10011011
          1 19 74 5 19 hhcurveto
          202 hlineto
          hintmask 00111011
          35 97 -4 12 hhcurveto
          8 10 18 127 rlineto
          -26 hlineto
          -4 -4 rlineto
          hintmask 10011011
          -73 -18 -8 -8 -161 hhcurveto
          -85 hlineto
          -14 -6 5 14 hvcurveto
          -5 51 0 18 95 vvcurveto
          97 vlineto
          84 -1 79 4 16 -17 rrcurveto
          11 -12 9 -19 -21 vvcurveto
          -59 callgsubr
          -2 4 2 rlineto
          -2 32 -3 25 32 vvcurveto
          29 3 20 2 30 vhcurveto
          -4 2 -17 -2 -5 -5 rlineto
          -20 -10 -8 -10 -11 vhcurveto
          -15 -19 -83 4 -81 -2 rrcurveto
          49 vlineto
          96 1 9 callsubr
          2 39 rlineto
          96 hlineto
          160 4 -1 -62 4 hvcurveto
          4 -4 rlineto
          25 hlineto
          4 109 25 callsubr
          -12 -29 callsubr
          endchar
        </CharString>
        <CharString name="Eacute">
          -75 callsubr
          194 -70 callgsubr
          269 31 hintmask 01011111
          189 718 rmoveto
          202 77 rlineto
          3 7 1 6 6 vvcurveto
          19 -13 14 -22 1 vhcurveto
          -181 6 callgsubr
          -15 -67 -107 callgsubr
          endchar
        </CharString>
        <CharString name="Ecaron">
          -75 callsubr
          187 -70 callgsubr
          269 31 hintmask 01011111
          167 654 -107 callgsubr
          -46 59 -85 callgsubr
          endchar
        </CharString>
        <CharString name="Ecircumflex">
          -75 callsubr
          188 -70 callgsubr
          269 31 hintmask 01011111
          291 842 -64 callgsubr
          -132 -188 -107 callgsubr
          endchar
        </CharString>
        <CharString name="Edieresis">
          -75 callsubr
          96 89 -9 callgsubr
          71 -36 83 74 83 65 31 hintmask 0101111011000000
          167 654 rmoveto
          -29 -74 -103 callsubr
          -67 callgsubr
          21 20 -75 callgsubr
          10 -9 13 -30 callsubr
          0 -29 -93 -90 callgsubr
          -28 callsubr
          -3 -37 -12 -11 -61 callsubr
          -99 callsubr
          hintmask 1001111011000000
          1 19 74 5 19 hhcurveto
          202 hlineto
          hintmask 0011111011000000
          35 97 -4 12 hhcurveto
          8 10 18 127 rlineto
          -26 hlineto
          -4 -4 rlineto
          hintmask 1001111011000000
          -73 -18 -8 -8 -161 hhcurveto
          -85 hlineto
          -14 -6 5 14 hvcurveto
          -5 51 0 18 95 vvcurveto
          97 vlineto
          84 -1 79 4 16 -17 rrcurveto
          11 -12 9 -19 -21 vvcurveto
          -59 callgsubr
          -2 4 2 rlineto
          -2 32 -3 25 32 vvcurveto
          29 3 20 2 30 vhcurveto
          -4 2 -17 -2 -5 -5 rlineto
          -20 -10 -8 -10 -11 vhcurveto
          -15 -19 -83 4 -81 -2 rrcurveto
          49 vlineto
          96 1 9 callsubr
          2 39 rlineto
          96 hlineto
          160 4 -1 -62 4 hvcurveto
          4 -4 rlineto
          25 hlineto
          4 109 25 callsubr
          -12 -29 callsubr
          hintmask 1001110111000000
          -165 140 -104 callgsubr
        </CharString>
        <CharString name="Egrave">
          -75 callsubr
          194 -70 callgsubr
          269 31 hintmask 01011111
          389 721 -2 callsubr
          -72 callsubr
          -214 -64 -107 callgsubr
          endchar
        </CharString>
        <CharString name="Eth">
          -100 callsubr
        </CharString>
        <CharString name="Euro">
          62 -11 52 222 44 53 44 208 53 hstem
          457 307 rmoveto
          -265 53 274 hlineto
          8 44 rlineto
          -277 hlineto
          11 67 23 58 38 38 rrcurveto
          30 30 36 15 62 hhcurveto
          54 58 -11 -66 7 hvcurveto
          3 -4 rlineto
          28 hlineto
          15 91 -2 9 rlineto
          27 -55 -69 7 -39 hhcurveto
          -149 -100 -111 -150 -26 hvcurveto
          -75 hlineto
          -8 -44 rlineto
          77 -53 -70 hlineto
          -7 -44 rlineto
          80 hlineto
          -166 21 110 -108 144 hhcurveto
          56 56 16 36 52 hvcurveto
          20 45 -8 11 rlineto
          -44 -50 -68 -12 -44 hhcurveto
          -108 -85 76 146 -19 hvcurveto
          253 hlineto
          endchar
        </CharString>
        <CharString name="F">
          -40 -25 callgsubr
          328 38 240 48 6 -70 callgsubr
          269 31 hintmask 10110110
          129 567 rmoveto
          1 -31 1 -29 -93 -90 callgsubr
          -28 callsubr
          -3 -37 -12 -11 -61 callsubr
          -99 callsubr
          hintmask 01110110
          1 19 74 -28 callgsubr
          hintmask 10110110
          19 84 -98 callsubr
          -5 20 callsubr
          -27 1 9 -12 hvcurveto
          -11 9 -14 11 -2 5 callsubr
          97 vlineto
          84 -1 79 4 16 -17 rrcurveto
          11 -12 9 -19 -21 vvcurveto
          -59 callgsubr
          -2 4 2 rlineto
          -2 32 -3 25 32 vvcurveto
          29 3 20 2 30 vhcurveto
          -4 2 -17 -2 -5 -5 rlineto
          -20 -10 -8 -10 -11 vhcurveto
          -15 -19 -83 4 -81 -2 rrcurveto
          49 vlineto
          96 1 9 callsubr
          2 39 rlineto
          96 hlineto
          160 4 -1 -62 4 hvcurveto
          4 -4 rlineto
          25 hlineto
          4 109 25 callsubr
          -12 -29 callsubr
          -174 hlineto
          hintmask 10101110
          -24 callgsubr
          3 -37 rrcurveto
          endchar
        </CharString>
        <CharString name="G">
          139 -11 55 202 32 334 53 hstem
          54 80 401 73 vstem
          611 30 rmoveto
          -2 6 -1 29 20 vvcurveto
          19 1 44 2 33 vhcurveto
          42 3 13 23 38 hhcurveto
          5 4 2 24 -2 4 rlineto
          -1 -19 -50 -50 callgsubr
          -30 hlineto
          -19 -71 -102 callsubr
          -22 -67 callgsubr
          21 28 -75 callgsubr
          8 -5 14 -18 3 -34 rrcurveto
          2 -26 0 -50 -19 vvcurveto
          -10 -2 -7 -6 -4 vhcurveto
          -11 -17 -76 -10 -46 hhcurveto
          -147 -109 107 178 92 29 94 63 50 hvcurveto
          31 39 56 16 77 hhcurveto
          108 50 -31 -53 9 hvcurveto
          4 -3 rlineto
          28 hlineto
          17 97 -2 9 rlineto
          27 -69 -91 7 -49 hhcurveto
          -228 -121 -150 -191 -182 110 -153 233 76 71 16 20 63 hvcurveto
          endchar
        </CharString>
        <CharString name="H">
          191 -6 26 1 -21 326 44 264 26 -9 callgsubr
          71 356 71 hintmask 10111100
          717 -12 callsubr
          -20 1 9 -12 13 callgsubr
          -13 11 -2 37 rrcurveto
          -2 31 0 18 95 vvcurveto
          184 vlineto
          96 0 9 callsubr
          3 37 12 11 10 9 rrcurveto
          9 12 20 -34 callgsubr
          -39 callsubr
          -74 -50 callgsubr
          -19 hlineto
          -19 -74 -103 callsubr
          4 -4 rlineto
          21 21 -75 callgsubr
          10 -9 12 -11 2 -37 rrcurveto
          2 -31 1 -29 -93 vvcurveto
          -44 -356 45 -37 callsubr
          3 37 vhcurveto
          2 37 12 11 10 9 rrcurveto
          9 12 -73 callgsubr
          4 20 callgsubr
          -2 4 rlineto
          -1 -19 -74 -50 callgsubr
          -19 hlineto
          -19 -74 -103 callsubr
          -67 callgsubr
          21 20 -75 callgsubr
          10 -9 11 -12 3 -36 -97 callsubr
          hintmask 01111100
          1 19 74 -28 callgsubr
          hintmask 10111100
          19 74 -98 callsubr
          -4 20 callsubr
          -21 1 9 -12 13 callgsubr
          -12 11 -2 5 callsubr
          95 356 -115 vlineto
          -79 -1 -25 -2 -20 vhcurveto
          -4 -37 -10 -11 -61 callsubr
          -9 -12 -21 -35 callsubr
          -45 callsubr
          hintmask 01111100
          1 19 74 -28 callgsubr
          hintmask 10111100
          12 callsubr
        </CharString>
        <CharString name="I">
          -236 -25 callgsubr
          660 -70 callgsubr
          hintmask 10110000
          288 660 rmoveto
          -1 -19 -74 -50 callgsubr
          -19 hlineto
          -19 -74 -103 callsubr
          -67 callgsubr
          21 20 -75 callgsubr
          10 -9 11 -13 3 -35 -97 callsubr
          hintmask 01110000
          1 19 74 -28 callgsubr
          hintmask 10110000
          19 74 -98 callsubr
          -4 20 callsubr
          -21 1 9 -12 13 callgsubr
          -12 11 -2 22 callsubr
          96 0 19 3 37 -79 callsubr
          endchar
        </CharString>
        <CharString name="IJ">
          84 -135 -21 177 -21 634 26 hstem
          131 71 257 70 vstem
          288 660 rmoveto
          -1 -19 -74 -50 callgsubr
          -19 hlineto
          -19 -74 -103 callsubr
          -67 callgsubr
          21 20 -75 callgsubr
          10 -9 11 -13 3 -35 -97 callsubr
          1 19 74 -28 callgsubr
          19 74 -98 callsubr
          -4 20 callsubr
          -21 1 9 -12 13 callgsubr
          -12 11 -2 22 callsubr
          96 0 19 3 37 -79 callsubr
          326 4 -94 callsubr
        </CharString>
        <CharString name="Iacute">
          -236 -25 callgsubr
          848 -70 callgsubr
          hintmask 10110000
          71 -34 callsubr
          225 -61 rmoveto
          -1 -19 -74 -50 callgsubr
          -19 hlineto
          -19 -74 -103 callsubr
          -67 callgsubr
          21 20 -75 callgsubr
          10 -9 11 -13 3 -35 -97 callsubr
          hintmask 01110000
          1 19 74 -28 callgsubr
          hintmask 10110000
          19 74 -98 callsubr
          -4 20 callsubr
          -21 1 9 -12 13 callgsubr
          -12 11 -2 22 callsubr
          96 0 19 3 37 -79 callsubr
          endchar
        </CharString>
        <CharString name="Icircumflex">
          -236 -25 callgsubr
          842 -70 callgsubr
          hintmask 10110000
          163 842 -29 callgsubr
          5 -20 8 -3 104 62 103 -62 8 3 6 20 -3 24 callgsubr
          118 -182 rmoveto
          -1 -19 -74 -50 callgsubr
          -19 hlineto
          -19 -74 -103 callsubr
          -67 callgsubr
          21 20 -75 callgsubr
          10 -9 11 -13 3 -35 -97 callsubr
          hintmask 01110000
          1 19 74 -28 callgsubr
          hintmask 10110000
          19 74 -98 callsubr
          -4 20 callsubr
          -21 1 9 -12 13 callgsubr
          -12 11 -2 22 callsubr
          96 0 19 3 37 -79 callsubr
          endchar
        </CharString>
        <CharString name="Idieresis">
          -236 -25 callgsubr
          750 89 hstemhm
          51 83 -3 71 6 83 hintmask 10110100
          288 660 rmoveto
          -1 -19 -74 -50 callgsubr
          -19 hlineto
          -19 -74 -103 callsubr
          -67 callgsubr
          21 20 -75 callgsubr
          10 -9 11 -13 3 -35 rrcurveto
          hintmask 10101100
          3 -31 0 -29 -93 -90 callgsubr
          -28 callsubr
          -3 -37 -12 -11 -61 callsubr
          hintmask 10110100
          -99 callsubr
          hintmask 01110100
          1 19 74 -28 callgsubr
          hintmask 10101100
          19 74 -98 callsubr
          -4 20 callsubr
          -21 1 9 -12 13 callgsubr
          -12 11 -2 22 callsubr
          96 0 19 3 37 -79 callsubr
          hintmask 10110100
          -239 138 -104 callgsubr
        </CharString>
        <CharString name="Igrave">
          -236 -25 callgsubr
          848 -70 callgsubr
          hintmask 10110000
          270 721 -2 callsubr
          100 rlineto
          -22 -1 -13 -14 -19 vvcurveto
          -6 1 -6 3 -7 vhcurveto
          202 -77 rlineto
          25 -58 rmoveto
          -1 -19 -74 -50 callgsubr
          -19 hlineto
          -19 -74 -103 callsubr
          -67 callgsubr
          21 20 -75 callgsubr
          10 -9 11 -13 3 -35 -97 callsubr
          hintmask 01110000
          1 19 74 -28 callgsubr
          hintmask 10110000
          19 74 -98 callsubr
          -4 20 callsubr
          -21 1 9 -12 13 callgsubr
          -12 11 -2 22 callsubr
          96 0 19 3 37 -79 callsubr
          endchar
        </CharString>
        <CharString name="J">
          -251 -135 -21 816 -20 hstem
          124 70 vstem
          281 660 -94 callsubr
        </CharString>
        <CharString name="K">
          87 11 -21 25 -21 27 -21 660 -70 callgsubr
          0 241 hintmask 01011000
          288 660 rmoveto
          -1 -19 -74 -50 callgsubr
          -19 hlineto
          -19 -74 -103 callsubr
          -67 callgsubr
          21 20 -75 callgsubr
          10 -9 13 -30 callsubr
          0 -29 -93 -90 callgsubr
          -28 callsubr
          -3 -37 -12 -11 -61 callsubr
          -99 callsubr
          hintmask 00111000
          1 19 74 -28 callgsubr
          hintmask 01011000
          19 74 -98 callsubr
          -4 20 callsubr
          -21 1 9 -12 13 callgsubr
          -12 11 -2 5 callsubr
          68 vlineto
          16 13 12 7 15 11 rrcurveto
          4 hlineto
          44 -64 110 -156 9 -11 rrcurveto
          hintmask 10011000
          -81 65 28 -28 68 hhcurveto
          hintmask 01010100
          21 44 4 29 hhcurveto
          11 callgsubr
          -67 79 -61 81 -56 85 80 82 rcurveline
          90 92 35 51 27 17 20 13 35 5 17 4 4 4 rcurveline
          18 vlineto
          -53 callgsubr
          -5 -37 -12 -1 -31 hhcurveto
          -49 hlineto
          -32 -29 2 4 -27 hvcurveto
          -5 -4 rlineto
          -18 vlineto
          -67 callgsubr
          26 -6 28 -2 -30 vvcurveto
          -18 -44 -57 -57 -57 vhcurveto
          -48 -48 -56 -47 -36 -22 rrcurveto
          68 -37 callsubr
          3 37 -79 callsubr
          endchar
        </CharString>
        <CharString name="L">
          -53 0 48 -33 -21 23 -21 664 -70 callgsubr
          hintmask 01011000
          128 567 rmoveto
          2 -31 1 -51 callgsubr
          -32 -11 -16 -61 callsubr
          -99 callsubr
          hintmask 10011000
          1 19 74 5 19 hhcurveto
          202 hlineto
          hintmask 00111000
          35 70 -4 12 hhcurveto
          8 10 18 127 rlineto
          -26 hlineto
          -3 -4 rlineto
          hintmask 10011000
          -73 -18 18 -8 -161 hhcurveto
          -85 hlineto
          -14 -6 5 14 -1 hvcurveto
          -3 51 -1 19 94 vvcurveto
          184 vlineto
          96 0 9 callsubr
          2 36 13 12 10 9 rrcurveto
          9 12 -73 callgsubr
          4 20 callgsubr
          -2 4 rlineto
          -1 -19 -74 -50 callgsubr
          -19 hlineto
          -24 callgsubr
          2 -37 rrcurveto
          endchar
        </CharString>
        <CharString name="M">
          332 -6 26 1 -21 660 -20 hstemhm
          128 61 -47 61 500 48 hintmask 10101100
          875 -12 callsubr
          -21 1 9 -12 hvcurveto
          -11 9 -12 11 -5 37 -5 31 -2 18 -7 95 -12 184 rcurveline
          -7 96 -1 19 37 vvcurveto
          36 15 13 10 8 vhcurveto
          9 11 -73 callgsubr
          -39 callsubr
          -74 -50 callgsubr
          -36 hlineto
          -11 -12 2 2 -11 hvcurveto
          -5 -4 -16 -110 -167 -395 -11 -21 rlinecurve
          -15 34 -18 43 -23 64 -68 185 rcurveline
          -29 80 -33 87 -4 34 -13 callgsubr
          -19 -74 -103 callsubr
          -67 callgsubr
          21 20 -75 callgsubr
          11 -8 14 -12 -37 vvcurveto
          -31 -1 -29 -7 -93 vhcurveto
          hintmask 10110100
          -14 -203 -6 -79 -3 -25 -3 -20 rlinecurve
          -5 -37 -13 -11 -11 -9 rrcurveto
          -9 -13 -20 -1 -20 hhcurveto
          -6 -92 callsubr
          hintmask 01110100
          1 19 73 -28 callgsubr
          hintmask 10101100
          19 58 -98 callsubr
          -4 20 callsubr
          -14 1 9 -10 13 callgsubr
          -11 11 37 vvcurveto
          hintmask 10110100
          31 0 23 7 90 vhcurveto
          hintmask 10101100
          14 184 6 79 1 28 3 27 rlinecurve
          200 -536 rlineto
          47 hlineto
          57 136 129 330 30 72 3 -26 4 -34 20 -280 rrcurveto
          5 -79 0 -25 -20 vvcurveto
          -37 -11 -11 -9 -9 vhcurveto
          -9 -11 -21 -35 callsubr
          -4 -4 -3 -18 3 -4 rlineto
          hintmask 01110100
          1 19 74 -28 callgsubr
          hintmask 10110100
          12 callsubr
        </CharString>
        <CharString name="M.salt">
          290 -6 26 1 -21 660 -44 callsubr
          61 465 70 hintmask 10111000
          816 -12 callsubr
          -21 1 3 callgsubr
          -9 8 -13 12 15 callgsubr
          96 0 19 3 37 vhcurveto
          3 37 12 11 10 9 rrcurveto
          9 11 -73 callgsubr
          -39 callsubr
          -74 -50 callgsubr
          -36 hlineto
          -11 -11 1 3 -12 hvcurveto
          -5 -4 -7 -54 -24 -58 -32 -90 rlinecurve
          -72 -204 -38 -75 -23 -45 -21 46 -13 30 -23 63 -68 185 rcurveline
          -29 79 -37 90 -3 34 -5 3 rcurveline
          -2 -12 -18 -2 -10 hhcurveto
          -35 hlineto
          -19 -74 -103 callsubr
          -67 callgsubr
          21 20 -75 callgsubr
          9 -8 14 -12 2 -37 rrcurveto
          2 -31 0 -29 -93 -90 callgsubr
          -28 callsubr
          -3 -37 -12 -11 -61 callsubr
          -99 callsubr
          hintmask 01111000
          1 19 74 -28 callgsubr
          hintmask 10111000
          19 57 -98 callsubr
          -14 callsubr
          -20 -14 1 3 callgsubr
          -10 8 -12 12 15 callgsubr
          77 0 28 2 27 vhcurveto
          185 -491 8 -13 14 -10 rlineto
          17 hlineto
          23 8 9 12 27 60 34 73 32 82 rlinecurve
          66 166 29 76 16 39 rrcurveto
          1 -25 2 -34 -76 vvcurveto
          -203 vlineto
          -79 -20 callsubr
          2 -4 rlineto
          hintmask 01111000
          1 19 74 -28 callgsubr
          hintmask 10111000
          12 callsubr
        </CharString>
        <CharString name="N">
          -13 callsubr
          6 -44 callsubr
          61 367 63 hintmask 10001110
          707 660 rmoveto
          hintmask 10010110
          -2 -19 -56 -4 -19 hhcurveto
          -47 hlineto
          hintmask 10001110
          -19 -55 -103 callsubr
          rlineto
          hintmask 10010110
          4 -4 rlineto
          21 21 -75 callgsubr
          10 -9 11 -4 callgsubr
          0 callgsubr
          -52 0 -8 -1 -19 vhcurveto
          -21 30 -83 107 -101 162 -55 88 -61 99 -10 37 -13 callgsubr
          hintmask 10001110
          -19 -58 -103 callsubr
          rlineto
          hintmask 10010110
          -67 callgsubr
          22 19 -75 callgsubr
          12 -9 11 -20 2 -28 rrcurveto
          2 -31 0 -51 callgsubr
          -39 -12 -11 -9 -7 rrcurveto
          -9 -13 -16 -1 -24 hhcurveto
          -5 -92 callsubr
          hintmask 00110110
          1 19 74 -28 callgsubr
          hintmask 10010110
          19 66 -98 callsubr
          -14 callsubr
          -27 -16 2 8 -11 hvcurveto
          -13 9 -9 15 -3 33 rrcurveto
          -3 31 0 82 31 vvcurveto
          184 vlineto
          74 0 25 1 26 vhcurveto
          356 -533 10 -12 rlineto
          hintmask 01010110
          -81 callgsubr
          endchar
        </CharString>
        <CharString name="NULL">
          -569 endchar
        </CharString>
        <CharString name="Nacute">
          -13 callsubr
          195 -44 callsubr
          61 367 63 hintmask 10011110
          707 660 rmoveto
          -2 -19 -56 -4 -19 hhcurveto
          -47 hlineto
          -19 -55 -103 callsubr
          4 -4 rlineto
          21 21 -75 callgsubr
          10 -9 11 -4 callgsubr
          0 callgsubr
          -52 0 -8 -1 -19 vhcurveto
          -21 30 -83 107 -101 162 -55 88 -61 99 -10 37 -13 callgsubr
          -19 -58 -103 callsubr
          -67 callgsubr
          22 19 -75 callgsubr
          12 -9 11 -20 2 -28 rrcurveto
          2 -31 0 -51 callgsubr
          -39 -12 -11 -9 -7 rrcurveto
          -9 -13 -16 -1 -24 hhcurveto
          -5 -92 callsubr
          hintmask 00111110
          1 19 74 -28 callgsubr
          hintmask 10011110
          19 66 -98 callsubr
          -14 callsubr
          -27 -16 2 8 -11 hvcurveto
          -13 9 -9 15 -3 33 rrcurveto
          -3 31 0 82 31 vvcurveto
          184 vlineto
          74 0 25 1 26 vhcurveto
          356 -533 10 -12 rlineto
          hintmask 01011110
          -81 callgsubr
          -378 62 -88 callgsubr
          endchar
        </CharString>
        <CharString name="Ntilde">
          -13 callsubr
          101 -30 callgsubr
          131 61 367 63 hintmask 1001010111000000
          522 832 -63 callgsubr
          hhcurveto
          hintmask 1001001011000000
          -87 callgsubr
          hintmask 1001100111000000
          -65 callgsubr
          185 -172 rmoveto
          -2 -19 -56 -4 -19 hhcurveto
          -47 hlineto
          -19 -55 -103 callsubr
          4 -4 rlineto
          21 21 -75 callgsubr
          10 -9 11 -4 callgsubr
          0 callgsubr
          -52 0 -8 -1 -19 vhcurveto
          -21 30 -83 107 -101 162 -55 88 -61 99 -10 37 -13 callgsubr
          -19 -58 -103 callsubr
          -67 callgsubr
          22 19 -75 callgsubr
          12 -9 11 -20 2 -28 rrcurveto
          2 -31 0 -51 callgsubr
          -39 -12 -11 -9 -7 rrcurveto
          -9 -13 -16 -1 -24 hhcurveto
          -5 -92 callsubr
          hintmask 0011100111000000
          1 19 74 -28 callgsubr
          hintmask 1001100111000000
          19 66 -98 callsubr
          -14 callsubr
          -27 -16 2 8 -11 hvcurveto
          -13 9 -9 15 -3 33 rrcurveto
          -3 31 0 82 31 vvcurveto
          184 vlineto
          74 0 25 1 26 vhcurveto
          356 -533 10 -12 rlineto
          hintmask 0101100111000000
          -81 callgsubr
          endchar
        </CharString>
        <CharString name="O">
          -10 callsubr
          hstem
          55 78 499 77 vstem
          -105 callgsubr
          endchar
        </CharString>
        <CharString name="OE">
          394 -11 52 -24 -21 25 -21 328 38 246 53 hstemhm
          56 80 397 70 260 31 hintmask 10011111
          520 546 rmoveto
          9 -27 4 -35 -70 -77 callsubr
          -79 -3 -26 -5 -40 vhcurveto
          -21 -50 -44 -4 -32 hhcurveto
          -160 -103 92 204 160 64 115 192 78 34 -19 -47 16 hvcurveto
          48 108 rmoveto
          -75 -50 11 -60 hhcurveto
          -225 -102 -153 -190 -198 113 -135 223 hvcurveto
          hintmask 00111111
          65 84 11 55 hhcurveto
          154 hlineto
          hintmask 01011111
          36 97 -4 12 hhcurveto
          7 10 19 127 rlineto
          -26 hlineto
          -4 -4 rlineto
          -73 -18 -9 -8 -160 hhcurveto
          -75 hlineto
          -15 -5 5 14 -1 hvcurveto
          -5 51 0 18 95 vvcurveto
          97 vlineto
          92 -1 59 4 19 -17 rrcurveto
          9 -8 11 -23 -21 vvcurveto
          -59 callgsubr
          -2 4 2 rlineto
          -2 32 -3 25 31 vvcurveto
          30 3 30 2 29 vhcurveto
          -4 2 -17 -2 -5 -4 rlineto
          -20 -12 -21 -8 -8 vhcurveto
          -19 -19 -54 4 -97 -2 rrcurveto
          49 vlineto
          34 0 79 3 39 vhcurveto
          3 39 rlineto
          85 hlineto
          161 4 -1 -62 4 hvcurveto
          3 -4 rlineto
          26 hlineto
          4 109 25 callsubr
          -12 -29 callsubr
          endchar
        </CharString>
        <CharString name="Oacute">
          -10 callsubr
          183 -20 hstem
          55 78 499 77 vstem
          -105 callgsubr
          -67 676 -33 callgsubr
        </CharString>
        <CharString name="Ocircumflex">
          -10 callsubr
          177 -20 hstem
          55 78 499 77 vstem
          -105 callgsubr
          7 800 -64 callgsubr
          endchar
        </CharString>
        <CharString name="Odieresis">
          -10 callsubr
          85 89 hstem
          55 78 130 83 74 83 129 77 vstem
          -105 callgsubr
          -118 752 -104 callgsubr
        </CharString>
        <CharString name="Ograve">
          -10 callsubr
          183 -20 hstem
          55 78 499 77 vstem
          -105 callgsubr
          76 679 rmoveto
          5 20 -3 7 -180 -72 callsubr
          endchar
        </CharString>
        <CharString name="Oslash">
          -11 53 -40 -21 631 53 11 -20 hstemhm
          55 79 498 78 hintmask 01101100
          382 21 callgsubr
          -205 -122 -153 -190 -89 27 -82 52 -61 hvcurveto
          -91 -105 -2 -4 rlineto
          67 hlineto
          5 4 59 68 rlineto
          hintmask 10011100
          -41 52 67 -23 85 hhcurveto
          218 116 2 callgsubr
          92 -32 87 -59 61 hvcurveto
          88 103 2 4 rlineto
          -66 hlineto
          -6 -4 -58 -67 rlineto
          hintmask 10101100
          38 -52 -66 22 -79 hhcurveto
          -4 callsubr
          -65 -57 22 41 -42 hvcurveto
          356 412 rlineto
          38 -49 21 -66 -74 vvcurveto
          -156 -91 -130 -160 vhcurveto
          -247 287 rmoveto
          162 85 121 158 64 54 -21 -35 42 vhcurveto
          -354 -410 rlineto
          -32 47 -17 62 74 vvcurveto
          endchar
        </CharString>
        <CharString name="Otilde">
          -10 callsubr
          90 -30 callgsubr
          55 78 499 77 hintmask 11010111
          -105 callgsubr
          158 790 -67 callsubr
        </CharString>
        <CharString name="P">
          -20 -6 26 1 -21 282 44 280 -55 callgsubr
          94 73 vvcurveto
          56 26 callgsubr
          74 -178 hvcurveto
          -42 callgsubr
          12 -13 2 -35 rrcurveto
          2 -33 0 -61 callgsubr
          hintmask 10110110
          19 74 -5 -48 callsubr
          -48 332 rmoveto
          -34 -4 3 34 hvcurveto
          109 17 callgsubr
          87 hlineto
          95 60 -46 -91 -89 -45 -54 -111 hvcurveto
          endchar
        </CharString>
        <CharString name="Q">
          -138 56 34 38 -1 53 570 53 hstemhm
          55 78 499 77 hintmask 10111100
          382 21 callgsubr
          -206 -121 -153 -190 -178 106 -153 208 -2 hvcurveto
          -57 -4 -53 -25 -29 -20 -1 -3 rcurveline
          5 -14 3 -1 rlineto
          hintmask 11011100
          15 22 52 15 50 123 101 -90 90 hhcurveto
          50 41 27 34 29 hvcurveto
          1 4 -4 8 -3 2 rlineto
          -17 -29 -28 -2 -18 hhcurveto
          -108 -68 70 2 -139 hvcurveto
          202 11 108 159 170 vvcurveto
          179 -119 156 -208 vhcurveto
          hintmask 10111100
          -52 callgsubr
        </CharString>
        <CharString name="Q.salt">
          -154 68 -4 51 -51 132 570 53 hstemhm
          55 78 499 77 hintmask 01011100
          382 21 callgsubr
          -206 -121 -153 -190 -158 83 -138 164 -30 hvcurveto
          1 -3 -52 -34 -43 -9 -36 -23 -24 -20 rlinecurve
          -1 -3 5 -17 4 -1 rlineto
          20 25 58 4 34 hhcurveto
          hintmask 10011100
          148 84 -64 97 hhcurveto
          54 42 30 43 33 hvcurveto
          1 5 -4 10 -4 2 rlineto
          -20 -30 -30 -2 -19 hhcurveto
          hintmask 01011100
          -106 -90 41 6 -131 hvcurveto
          -1 3 46 21 68 2 57 18 rlinecurve
          145 46 76 135 143 vvcurveto
          180 -119 156 -208 vhcurveto
          hintmask 00111100
          -52 callgsubr
        </CharString>
        <CharString name="R">
          69 -10 30 1 -21 293 44 269 -55 callgsubr
          105 73 vvcurveto
          73 hlineto
          51 -74 78 -112 8 -8 rrcurveto
          -78 64 29 -31 68 hhcurveto
          21 44 3 1 29 hvcurveto
          11 callgsubr
          -48 56 -46 60 -42 59 rrcurveto
          77 18 91 53 114 vvcurveto
          97 -67 73 -178 vhcurveto
          -42 callgsubr
          11 -17 2 -31 rrcurveto
          2 -33 1 -61 callgsubr
          19 74 -5 -48 callsubr
          -48 343 rmoveto
          -34 -4 2 35 hvcurveto
          98 17 callgsubr
          87 hlineto
          95 60 -46 -81 -86 -45 -56 -111 hvcurveto
          endchar
        </CharString>
        <CharString name="S">
          -18 -11 45 584 47 hstem
          65 73 290 77 vstem
          138 508 -89 callsubr
        </CharString>
        <CharString name="Scaron">
          -18 -11 45 584 47 177 -20 hstem
          65 73 290 77 vstem
          281 713 rmoveto
          111 99 2 7 11 callsubr
          -7 111 -99 rlineto
          -136 -205 -89 callsubr
        </CharString>
        <CharString name="T">
          20 -25 callgsubr
          606 48 11 -20 hstemhm
          260 70 hintmask 10101000
          433 -12 callsubr
          -32 1 3 callgsubr
          -11 9 -14 11 15 callgsubr
          90 1 63 1 38 vhcurveto
          11 hlineto
          132 32 -4 -7 11 hvcurveto
          15 -8 9 -19 3 -25 4 -4 rcurveline
          24 hlineto
          -8 114 -4 9 rlineto
          hintmask 10011000
          -6 3 rlineto
          hintmask 10101000
          -9 -21 -142 -2 -35 hhcurveto
          -126 hlineto
          hintmask 10011000
          -35 -141 2 9 -22 hvcurveto
          -6 -3 -4 -9 -7 -114 rlineto
          23 hlineto
          4 4 3 25 9 19 15 8 rlinecurve
          hintmask 10101000
          7 11 32 4 133 hhcurveto
          11 hlineto
          1 -34 2 -72 -86 vvcurveto
          -203 vlineto
          -79 -17 callgsubr
          -14 -11 -11 -9 rrcurveto
          -9 -11 -32 -95 callgsubr
          hintmask 01101000
          1 19 69 5 19 hhcurveto
          57 hlineto
          hintmask 10101000
          19 70 -5 -48 callsubr
          endchar
        </CharString>
        <CharString name="Thorn">
          -32 -6 202 -175 -21 152 44 280 48 -48 184 -9 callgsubr
          71 228 69 hintmask 10001110
          202 559 rmoveto
          28 7 20 20 17 vhcurveto
          9 12 -73 callgsubr
          4 20 callgsubr
          -2 4 rlineto
          -1 -19 -74 -50 callgsubr
          -19 hlineto
          -19 -74 -103 callsubr
          -67 callgsubr
          21 20 -75 callgsubr
          10 -9 13 -14 2 -34 rrcurveto
          2 -31 0 -29 -93 -90 callgsubr
          -28 callsubr
          -3 -37 -12 -11 -61 callsubr
          -99 callsubr
          hintmask 01110110
          1 19 74 -28 callgsubr
          hintmask 10010110
          19 74 -98 callsubr
          -4 20 callsubr
          -21 1 9 -12 13 callgsubr
          -12 11 -2 37 rrcurveto
          hintmask 01110110
          -2 18 -1 17 30 vvcurveto
          37 26 callgsubr
          73 -178 hvcurveto
          -52 hlineto
          73 -48 rmoveto
          103 52 -46 -91 -89 -45 -54 -111 hvcurveto
          -72 280 hlineto
          endchar
        </CharString>
        <CharString name="U">
          -17 callsubr
          hstem
          114 71 367 57 vstem
          695 660 rmoveto
          -1 -19 -69 -50 callgsubr
          -22 hlineto
          -19 -63 -103 callsubr
          -67 callgsubr
          21 21 -1 -9 11 hvcurveto
          11 -9 11 -4 callgsubr
          3 -37 0 -19 -96 vvcurveto
          -165 vlineto
          -144 -69 -58 -115 -115 -68 58 144 vhcurveto
          165 -37 callsubr
          3 37 vhcurveto
          2 37 12 11 10 9 rrcurveto
          9 12 -73 callgsubr
          4 20 callgsubr
          -2 4 rlineto
          -1 -19 -74 -50 callgsubr
          -19 hlineto
          -19 -74 -103 callsubr
          -67 callgsubr
          21 20 -75 callgsubr
          10 -9 13 -30 callsubr
          0 -29 -93 vvcurveto
          -192 vlineto
          -131 67 -102 187 164 77 102 131 vhcurveto
          192 vlineto
          93 1 29 2 31 -79 callsubr
          endchar
        </CharString>
        <CharString name="Uacute">
          -7 callsubr
          285 -34 callsubr
          418 -61 rmoveto
          -1 -19 -69 -50 callgsubr
          -22 hlineto
          -19 -63 -103 callsubr
          -67 callgsubr
          21 21 -1 -9 11 hvcurveto
          11 -9 11 -4 callgsubr
          3 -37 0 -19 -96 vvcurveto
          -165 vlineto
          -144 -69 -58 -115 -115 -68 58 144 vhcurveto
          165 -37 callsubr
          3 37 vhcurveto
          2 37 12 11 10 9 rrcurveto
          9 12 -73 callgsubr
          4 20 callgsubr
          -2 4 rlineto
          -1 -19 -74 -50 callgsubr
          -19 hlineto
          -19 -74 -103 callsubr
          -67 callgsubr
          21 20 -75 callgsubr
          10 -9 13 -30 callsubr
          0 -29 -93 vvcurveto
          -192 vlineto
          -131 67 -102 187 164 77 102 131 vhcurveto
          192 vlineto
          93 1 29 2 31 -79 callsubr
          endchar
        </CharString>
        <CharString name="Ucircumflex">
          -17 callsubr
          182 -20 hstem
          114 71 367 57 vstem
          695 660 rmoveto
          -1 -19 -69 -50 callgsubr
          -22 hlineto
          -19 -63 -103 callsubr
          -67 callgsubr
          21 21 -1 -9 11 hvcurveto
          11 -9 11 -4 callgsubr
          3 -37 0 -19 -96 vvcurveto
          -165 vlineto
          -144 -69 -58 -115 -115 -68 58 144 vhcurveto
          165 -37 callsubr
          3 37 vhcurveto
          2 37 12 11 10 9 rrcurveto
          9 12 -73 callgsubr
          4 20 callgsubr
          -2 4 rlineto
          -1 -19 -74 -50 callgsubr
          -19 hlineto
          -19 -74 -103 callsubr
          -67 callgsubr
          21 20 -75 callgsubr
          10 -9 13 -30 callsubr
          0 -29 -93 vvcurveto
          -192 vlineto
          -131 67 -102 187 164 77 102 131 vhcurveto
          192 vlineto
          93 1 29 2 31 -79 callsubr
          -338 186 15 callsubr
          -20 8 -3 104 62 103 -62 8 3 5 20 -2 24 callgsubr
          endchar
        </CharString>
        <CharString name="Udieresis">
          -17 callsubr
          90 89 hstem
          114 71 73 83 74 83 54 57 vstem
          695 660 rmoveto
          -1 -19 -69 -50 callgsubr
          -22 hlineto
          -19 -63 -103 callsubr
          -67 callgsubr
          21 21 -1 -9 11 hvcurveto
          11 -9 11 -4 callgsubr
          3 -37 0 -19 -96 vvcurveto
          -165 vlineto
          -144 -69 -58 -115 -115 -68 58 144 vhcurveto
          165 -37 callsubr
          3 37 vhcurveto
          2 37 12 11 10 9 rrcurveto
          9 12 -73 callgsubr
          4 20 callgsubr
          -2 4 rlineto
          -1 -19 -74 -50 callgsubr
          -19 hlineto
          -19 -74 -103 callsubr
          -67 callgsubr
          21 20 -75 callgsubr
          10 -9 13 -30 callsubr
          0 -29 -93 vvcurveto
          -192 vlineto
          -131 67 -102 187 164 77 102 131 vhcurveto
          192 vlineto
          93 1 29 2 31 -79 callsubr
          -439 138 -104 callgsubr
        </CharString>
        <CharString name="Ugrave">
          -7 callsubr
          456 721 rmoveto
          5 20 -2 7 -181 -72 callsubr
          247 -58 rmoveto
          -1 -19 -69 -50 callgsubr
          -22 hlineto
          -19 -63 -103 callsubr
          -67 callgsubr
          21 21 -1 -9 11 hvcurveto
          11 -9 11 -4 callgsubr
          3 -37 0 -19 -96 vvcurveto
          -165 vlineto
          -144 -69 -58 -115 -115 -68 58 144 vhcurveto
          165 -37 callsubr
          3 37 vhcurveto
          2 37 12 11 10 9 rrcurveto
          9 12 -73 callgsubr
          4 20 callgsubr
          -2 4 rlineto
          -1 -19 -74 -50 callgsubr
          -19 hlineto
          -19 -74 -103 callsubr
          -67 callgsubr
          21 20 -75 callgsubr
          10 -9 13 -30 callsubr
          0 -29 -93 vvcurveto
          -192 vlineto
          -131 67 -102 187 164 77 102 131 vhcurveto
          192 vlineto
          93 1 29 2 31 -79 callsubr
          endchar
        </CharString>
        <CharString name="V">
          105 29 callgsubr
          314 -11 rmoveto
          -69 callsubr
          2 -18 5 -20 callgsubr
          -16 40 -19 56 -25 69 -68 184 rcurveline
          -30 83 -24 55 31 vvcurveto
          38 23 4 38 -18 callsubr
          -75 -50 callgsubr
          -34 hlineto
          -19 -61 5 1 -19 hvcurveto
          -1 24 callsubr
          rlineto
          34 33 0 -67 29 hvcurveto
          9 -20 10 -25 29 -79 163 -454 rcurveline
          endchar
        </CharString>
        <CharString name="W">
          527 29 callgsubr
          314 -11 rmoveto
          52 11 10 30 49 117 35 93 rlinecurve
          44 114 27 71 19 46 174 -482 rcurveline
          12 hlineto
          -69 callsubr
          3 -18 4 -20 callgsubr
          -15 39 -20 58 -25 68 -68 184 rcurveline
          -23 63 -19 47 -8 33 rrcurveto
          -2 4 0 5 5 vvcurveto
          34 40 20 30 -18 callsubr
          -70 -50 callgsubr
          -33 hlineto
          -19 -59 5 1 -19 hvcurveto
          -1 24 callsubr
          59 -5 16 -40 14 -43 rlinecurve
          -11 -32 -15 -39 -19 -52 -68 -184 rcurveline
          -27 -74 -20 -53 -15 -38 -16 40 -19 56 -25 69 -68 184 rcurveline
          -30 83 -24 55 31 vvcurveto
          38 23 4 38 -18 callsubr
          -75 -50 callgsubr
          -34 hlineto
          -19 -61 5 1 -19 hvcurveto
          -1 24 callsubr
          rlineto
          34 33 0 -67 29 hvcurveto
          9 -20 10 -25 29 -79 163 -454 rcurveline
          endchar
        </CharString>
        <CharString name="W.calt">
          386 29 callgsubr
          626 -11 rmoveto
          12 hlineto
          29 11 57 141 91 295 55 131 rlinecurve
          12 27 14 21 14 10 rrcurveto
          8 14 20 1 18 hhcurveto
          4 20 callgsubr
          -2 4 rlineto
          -1 -19 -60 -50 callgsubr
          -19 hlineto
          -19 -69 -103 callsubr
          -67 callgsubr
          38 23 -4 -38 -41 -57 -187 -92 -256 hvcurveto
          -153 545 rlineto
          -27 hlineto
          -8 -9 -53 -188 -56 -183 -36 -199 rlinecurve
          -65 175 -96 300 43 vvcurveto
          38 23 4 38 -18 callsubr
          -75 -50 callgsubr
          -34 hlineto
          -19 -61 5 1 -19 hvcurveto
          -1 24 callsubr
          rlineto
          34 34 0 -67 28 hvcurveto
          9 -20 16 -32 23 -72 144 -454 rcurveline
          12 hlineto
          60 12 40 171 36 167 49 157 rlinecurve
          6 2 rlineto
          endchar
        </CharString>
        <CharString name="X">
          93 14 -21 28 -21 660 -20 hstemhm
          hintmask 01100000
          215 622 rmoveto
          12 8 20 3 27 1 5 4 rcurveline
          18 vlineto
          -14 callsubr
          -4 -37 -44 -2 -30 hhcurveto
          -43 hlineto
          -29 -28 2 4 -31 hvcurveto
          -6 -4 rlineto
          -18 vlineto
          8 -4 27 -3 20 -4 15 -12 rlinecurve
          10 -8 13 -16 10 -14 59 -90 66 -98 43 -59 -75 -107 -59 -83 -36 -46 -43 -55 -20 -10 -60 -9 -8 -7 rcurveline
          -13 vlineto
          5 -6 rlineto
          5 37 30 1 31 hhcurveto
          47 hlineto
          31 37 0 -6 38 hvcurveto
          6 6 rlineto
          hintmask 10100000
          14 vlineto
          -6 6 rlineto
          -67 8 -8 10 22 vvcurveto
          7 2 7 2 4 vhcurveto
          18 37 66 93 62 80 rrcurveto
          53 -74 83 -126 -30 vvcurveto
          -23 -31 -13 -30 -2 vhcurveto
          -5 -6 rlineto
          -15 vlineto
          5 -6 rlineto
          4 36 47 4 30 hhcurveto
          40 hlineto
          30 43 -4 -4 32 hvcurveto
          6 6 rlineto
          14 vlineto
          -9 7 -73 11 -15 17 -26 29 rlinecurve
          -12 13 -74 113 -93 136 40 60 20 29 84 120 40 57 24 20 59 9 4 4 rcurveline
          18 vlineto
          -53 callgsubr
          -5 -37 -22 -1 -32 hhcurveto
          -58 hlineto
          -32 -21 0 6 -39 hvcurveto
          -5 -4 rlineto
          -18 vlineto
          -67 callgsubr
          29 -7 38 0 -33 vvcurveto
          -10 -3 -12 -3 -6 vhcurveto
          -12 -28 -45 -84 -57 -73 -52 76 -26 42 -46 82 rrcurveto
          -4 6 -5 11 7 vvcurveto
          5 4 7 7 5 vhcurveto
          endchar
        </CharString>
        <CharString name="Y">
          43 -25 callgsubr
          660 -20 hstemhm
          271 70 hintmask 10110000
          430 -12 callsubr
          -21 1 3 callgsubr
          -11 9 -11 6 callsubr
          31 -1 16 95 vvcurveto
          35 vlineto
          20 9 22 5 8 vhcurveto
          35 61 33 63 78 116 39 58 22 13 60 9 4 4 rcurveline
          18 vlineto
          -53 callgsubr
          -5 -37 -23 -1 -32 hhcurveto
          -58 hlineto
          -32 -21 0 6 -39 9 callgsubr
          -18 vlineto
          4 -4 rlineto
          30 -7 41 5 -33 vvcurveto
          -11 -7 -18 -3 -6 vhcurveto
          -12 -30 -67 -125 -45 -77 -50 87 -40 74 -48 88 rrcurveto
          -4 6 -6 11 7 vvcurveto
          5 5 7 7 5 vhcurveto
          12 8 20 3 27 1 4 4 rcurveline
          18 vlineto
          -53 callgsubr
          -4 -37 -44 -4 -31 hhcurveto
          -42 hlineto
          -30 -27 4 4 -32 hvcurveto
          -5 -4 rlineto
          -18 vlineto
          8 -4 27 -3 20 -4 15 -12 rlinecurve
          9 -8 14 -16 9 -14 52 -80 60 -98 41 -72 rrcurveto
          11 -18 13 -22 -37 vvcurveto
          -39 vlineto
          -79 -39 callgsubr
          -11 -9 rrcurveto
          -9 -11 -21 -35 callsubr
          -5 -4 -2 -18 -2 callgsubr
          75 -28 callgsubr
          hintmask 10110000
          12 callsubr
        </CharString>
        <CharString name="Yacute">
          43 -25 callgsubr
          848 -20 hstemhm
          271 70 hintmask 10110000
          430 -12 callsubr
          -21 1 3 callgsubr
          -11 9 -11 6 callsubr
          31 -1 16 95 vvcurveto
          35 vlineto
          20 9 22 5 8 vhcurveto
          35 61 33 63 78 116 39 58 22 13 60 9 4 4 rcurveline
          18 vlineto
          -53 callgsubr
          -5 -37 -23 -1 -32 hhcurveto
          -58 hlineto
          -32 -21 0 6 -39 9 callgsubr
          -18 vlineto
          4 -4 rlineto
          30 -7 41 5 -33 vvcurveto
          -11 -7 -18 -3 -6 vhcurveto
          -12 -30 -67 -125 -45 -77 -50 87 -40 74 -48 88 rrcurveto
          -4 6 -6 11 7 vvcurveto
          5 5 7 7 5 vhcurveto
          12 8 20 3 27 1 4 4 rcurveline
          18 vlineto
          -53 callgsubr
          -4 -37 -44 -4 -31 hhcurveto
          -42 hlineto
          -30 -27 4 4 -32 hvcurveto
          -5 -4 rlineto
          -18 vlineto
          8 -4 27 -3 20 -4 15 -12 rlinecurve
          9 -8 14 -16 9 -14 52 -80 60 -98 41 -72 rrcurveto
          11 -18 13 -22 -37 vvcurveto
          -39 vlineto
          -79 -39 callgsubr
          -11 -9 rrcurveto
          -9 -11 -21 -35 callsubr
          -5 -4 -2 -18 -2 callgsubr
          75 -28 callgsubr
          hintmask 10110000
          19 74 -5 -48 callsubr
          -178 724 -33 callgsubr
        </CharString>
        <CharString name="Ydieresis">
          43 -25 callgsubr
          750 89 hstemhm
          189 82 0 70 5 82 hintmask 10101100
          430 -12 callsubr
          -21 1 3 callgsubr
          -11 9 -11 6 callsubr
          31 -1 16 95 vvcurveto
          35 vlineto
          20 9 22 5 8 vhcurveto
          35 61 33 63 78 116 39 58 22 13 60 9 4 4 rcurveline
          18 vlineto
          -53 callgsubr
          -5 -37 -23 -1 -32 hhcurveto
          -58 hlineto
          -32 -21 0 6 -39 9 callgsubr
          -18 vlineto
          4 -4 rlineto
          30 -7 41 5 -33 vvcurveto
          -11 -7 -18 -3 -6 vhcurveto
          -12 -30 -67 -125 -45 -77 -50 87 -40 74 -48 88 rrcurveto
          -4 6 -6 11 7 vvcurveto
          5 5 7 7 5 vhcurveto
          12 8 20 3 27 1 4 4 rcurveline
          18 vlineto
          -53 callgsubr
          -4 -37 -44 -4 -31 hhcurveto
          -42 hlineto
          -30 -27 4 4 -32 hvcurveto
          -5 -4 rlineto
          -18 vlineto
          8 -4 27 -3 20 -4 15 -12 rlinecurve
          9 -8 14 -16 9 -14 52 -80 60 -98 41 -72 rrcurveto
          11 -18 13 -22 -37 vvcurveto
          -39 vlineto
          -79 -39 callgsubr
          -11 -9 rrcurveto
          -9 -11 -21 -35 callsubr
          -5 -4 -2 -18 -43 callsubr
          hintmask 01110100
          1 19 75 -28 callgsubr
          hintmask 10110100
          19 74 -5 -48 callsubr
          -239 800 -60 callsubr
        </CharString>
        <CharString name="Z">
          45 0 48 -33 -21 612 56 hstemhm
          hintmask 01100000
          62 539 -47 callgsubr
          hintmask 10100000
          28 callsubr
          160 hlineto
          hintmask 01100000
          35 181 -19 callsubr
          -6 -6 rlineto
          hintmask 10100000
          -69 callgsubr
        </CharString>
        <CharString name="Zcaron">
          45 0 48 -33 -21 612 56 180 -20 hstemhm
          hintmask 01110000
          307 713 rmoveto
          110 99 3 7 -6 20 -7 3 -104 -62 -103 62 -8 -3 -6 -20 3 -7 110 -99 rlineto
          -237 -174 -47 callgsubr
          hintmask 10110000
          28 callsubr
          160 hlineto
          hintmask 01110000
          35 181 -19 callsubr
          -6 -6 rlineto
          hintmask 10110000
          -69 callgsubr
        </CharString>
        <CharString name="a">
          -74 callgsubr
          -15 callgsubr
          hintmask 01011100
          330 -3 -106 callgsubr
          hintmask 10101100
          -102 callgsubr
          endchar
        </CharString>
        <CharString name="aacute">
          -74 callgsubr
          205 -20 -15 callgsubr
          hintmask 01011110
          177 549 -88 callgsubr
          160 -555 -106 callgsubr
          hintmask 10101110
          -102 callgsubr
          endchar
        </CharString>
        <CharString name="acircumflex">
          -74 callgsubr
          198 -20 -15 callgsubr
          hintmask 01011110
          231 26 callsubr
          8 -3 103 -51 callsubr
          91 -676 -106 callgsubr
          hintmask 10101110
          -102 callgsubr
          endchar
        </CharString>
        <CharString name="acute">
          -350 570 -21 131 -20 hstem
          13 549 -88 callgsubr
          endchar
        </CharString>
        <CharString name="adieresis">
          -74 callgsubr
          107 89 hstemhm
          37 71 12 82 75 82 -22 72 hintmask 0101111010000000
          330 -3 -106 callgsubr
          hintmask 1010111100000000
          -102 callgsubr
          -204 511 -60 callsubr
        </CharString>
        <CharString name="ae">
          243 -11 55 200 231 -215 47 123 45 -15 callgsubr
          hintmask 10111100
          572 -11 rmoveto
          72 62 25 25 32 hvcurveto
          10 11 rlineto
          18 vlineto
          -11 6 rlineto
          -27 callsubr
          17 7 6 24 rlineto
          hintmask 11001100
          154 -24 -114 28 -69 hhcurveto
          -69 -67 -31 -47 -38 hvcurveto
          -4 hlineto
          50 -25 -58 28 -66 hhcurveto
          -70 -75 -27 -15 -14 hvcurveto
          -3 -6 9 -74 rlineto
          22 hlineto
          4 3 rlineto
          hintmask 10111100
          62 5 65 12 42 hhcurveto
          50 38 -17 -40 15 hvcurveto
          7 -19 4 -26 1 -49 rrcurveto
          -14 hlineto
          -25 -132 -4 -44 -70 hvcurveto
          -37 -24 -25 -37 -49 vvcurveto
          -70 44 -62 83 93 65 39 60 47 vhcurveto
          4 hlineto
          -62 42 70 -37 87 hhcurveto
          -248 126 rmoveto
          -28 -20 -62 -43 -55 hhcurveto
          -47 -32 32 51 hvcurveto
          hintmask 11001100
          97 116 20 107 vhcurveto
          9 hlineto
          -5 -100 -1 -13 -6 -9 -4 -7 rlinecurve
          hintmask 10111100
          244 315 -52 callsubr
        </CharString>
        <CharString name="agrave">
          -74 callgsubr
          205 -20 -15 callgsubr
          hintmask 01011110
          324 552 -27 callgsubr
          14 -552 -106 callgsubr
          hintmask 10101110
          -102 callgsubr
          endchar
        </CharString>
        <CharString name="ampersand">
          186 -10 30 -30 53 -28 -21 353 59 206 51 hstemhm
          53 72 0 69 303 57 hintmask 10011011
          711 424 rmoveto
          -13 8 rlineto
          -24 -17 -24 -2 -25 -52 -65 8 -25 hhcurveto
          -63 -32 -57 -19 hvcurveto
          14 -7 11 15 9 9 31 1 rlinecurve
          24 -38 13 -37 -39 vvcurveto
          -31 -9 -33 -16 -30 vhcurveto
          -181 191 -60 69 -21 47 rrcurveto
          -10 22 -6 26 25 vvcurveto
          44 23 40 59 50 31 -27 -78 7 vhcurveto
          4 -4 rlineto
          33 hlineto
          12 71 -3 10 rlineto
          59 -12 -65 20 -55 hhcurveto
          -89 -64 -56 -94 -50 18 -37 42 -56 hvcurveto
          hintmask 10011101
          -83 -33 -49 -85 -80 vvcurveto
          -119 111 -63 117 71 69 23 41 50 vhcurveto
          -34 35 39 -30 40 hhcurveto
          hintmask 00111101
          15 63 4 27 hhcurveto
          3 -59 callgsubr
          rlineto
          hintmask 10011101
          -6 4 -72 3 -45 30 -51 51 rlinecurve
          27 40 11 49 46 vvcurveto
          43 -10 41 -20 30 vhcurveto
          -2 37 44 -4 16 hhcurveto
          66 24 68 9 hvcurveto
          -280 -328 rmoveto
          hintmask 01011101
          -34 -38 -53 -19 -50 hhcurveto
          -77 -88 44 92 54 31 72 66 20 hvcurveto
          72 -84 70 -71 67 -74 rrcurveto
          endchar
        </CharString>
        <CharString name="aring">
          -74 callgsubr
          63 24 97 24 hstemhm
          37 71 68 37 90 38 -4 72 hintmask 0110111110000000
          258 683 rmoveto
          -51 -31 -36 -37 -34 27 -38 56 53 29 35 35 37 -31 13 callsubr
          16 25 28 28 18 -27 -24 -22 -17 -24 -27 hvcurveto
          71 -565 rmoveto
          -71 callsubr
          27 29 -2 -2 24 hvcurveto
          1 4 -1 14 -4 20 callsubr
          -23 1 10 -11 hvcurveto
          -9 7 -3 12 -3 30 rrcurveto
          hintmask 1001111101000000
          81 4 51 113 vvcurveto
          101 -73 51 -96 -70 -75 -27 -15 -14 vhcurveto
          -3 -6 9 -74 rlineto
          22 hlineto
          4 3 rlineto
          62 5 65 12 42 hhcurveto
          50 38 -17 -40 15 hvcurveto
          7 -19 4 -26 1 -49 rrcurveto
          -14 hlineto
          -25 -132 -4 -44 -70 hvcurveto
          -37 -24 -25 -37 -49 vvcurveto
          -70 44 -62 83 72 61 47 48 35 vhcurveto
          1 -3 -4 -25 -1 -34 -4 -15 rlinecurve
          108 vmoveto
          -28 -20 -62 -43 -55 hhcurveto
          -47 -32 32 51 hvcurveto
          hintmask 1010111110000000
          97 116 20 107 vhcurveto
          9 hlineto
          -5 -100 -1 -13 -6 -9 -4 -7 rlinecurve
          endchar
        </CharString>
        <CharString name="asciicircum">
          -221 18 callgsubr
          170 26 callsubr
          7 -3 104 -51 callsubr
          endchar
        </CharString>
        <CharString name="asciitilde">
          -90 216 -21 25 50 26 -20 hstem
          413 288 rmoveto
          -12 8 rlineto
          -24 -17 -26 -2 -22 -58 -87 9 -34 hhcurveto
          -57 -34 -57 -20 hvcurveto
          13 -7 rlineto
          16 13 9 9 33 42 121 -9 28 hhcurveto
          63 25 68 9 hvcurveto
          endchar
        </CharString>
        <CharString name="asterisk">
          -130 395 -21 22 -21 327 -20 hstemhm
          hintmask 10100000
          375 486 rmoveto
          -58 16 -23 10 -49 27 45 24 28 12 48 19 rrcurveto
          1 0 4 1 2 vhcurveto
          -14 19 -6 12 -8 16 rrcurveto
          -2 -2 1 2 -1 hvcurveto
          -31 -32 -20 -17 -48 -37 rrcurveto
          50 1 45 9 39 vhcurveto
          -1 1 -1 0 -1 2 rrcurveto
          -2 -10 -7 0 -11 hhcurveto
          -13 -4 0 2 -12 hvcurveto
          -3 -4 14 -50 5 -31 6 -52 rlinecurve
          -76 55 -14 11 -15 14 -4 -1 rcurveline
          -8 -19 -8 -11 -14 -18 2 -7 rcurveline
          52 -17 5 -2 62 -32 -41 -22 -36 -16 -46 -17 rrcurveto
          -2 -1 -4 -1 vvcurveto
          14 -17 6 -11 8 -18 rrcurveto
          2 1 -1 2 hhcurveto
          32 28 18 14 57 39 -6 -63 -2 -30 -7 -40 3 -3 rcurveline
          hintmask 01100000
          1 12 6 0 10 hhcurveto
          hintmask 10100000
          11 3 0 -1 13 hvcurveto
          4 3 -7 32 -3 23 -7 77 rlinecurve
          49 -32 26 -19 33 -28 rrcurveto
          1 2 1 2 hhcurveto
          6 21 7 10 16 19 rrcurveto
          endchar
        </CharString>
        <CharString name="at">
          153 -101 42 132 42 245 29 118 41 hstemhm
          56 57 112 66 -66 248 152 55 hintmask 11111101
          416 229 rmoveto
          -50 -11 -48 -63 -34 hhcurveto
          -18 -14 20 44 69 36 111 89 11 10 -2 -4 4 hvcurveto
          153 -343 rmoveto
          -13 10 rlineto
          -27 -30 -82 -53 -110 hhcurveto
          -129 -117 71 168 156 102 171 192 154 64 -110 -100 -91 -51 -91 -72 hvcurveto
          hintmask 11111011
          -22 -7 9 19 9 2 11 2 15 hvcurveto
          37 178 rlineto
          23 -22 -44 10 -32 hhcurveto
          -90 -101 -77 -119 -79 44 -41 40 34 38 29 45 22 hvcurveto
          -42 8 -31 65 122 82 109 118 119 -84 128 -188 -245 -107 -216 -152 -171 134 -110 159 109 93 53 25 26 vhcurveto
          endchar
        </CharString>
        <CharString name="atilde">
          -74 callgsubr
          125 50 26 -20 -15 callgsubr
          hintmask 01011111
          330 -3 -106 callgsubr
          hintmask 10101111
          -102 callgsubr
          74 553 -63 callgsubr
          -58 -57 9 -34 hhcurveto
          -57 -34 -56 -20 hvcurveto
          13 -8 rlineto
          16 13 9 9 33 42 91 -9 28 hhcurveto
          63 25 69 8 hvcurveto
          endchar
        </CharString>
        <CharString name="b">
          30 -11 55 -23 -21 418 57 265 -20 hstemhm
          100 66 310 76 hintmask 10111100
          169 82 rmoveto
          -67 41 60 -26 63 -31 callgsubr
          -70 -58 -39 -56 -38 hvcurveto
          -3 2 rlineto
          1 16 2 21 57 113 1 22 43 vvcurveto
          16 3 50 5 11 vhcurveto
          -6 9 -35 10 callsubr
          -13 vlineto
          -1 callgsubr
          -2 -15 13 hvcurveto
          4 -5 8 -12 1 -14 rrcurveto
          2 -44 1 -34 -22 callgsubr
          -1 -25 vhcurveto
          -1 -9 -3 -27 -2 -13 -10 -9 rlinecurve
          -10 -11 -23 -35 callsubr
          -4 -4 rlineto
          hintmask 01111100
          -1 -14 -43 callsubr
          1 19 65 3 19 hhcurveto
          46 hlineto
          7 7 rlineto
          -5 15 -8 31 27 vvcurveto
          310 156 rmoveto
          hintmask 10111100
          -96 -46 -96 -105 -103 -47 89 43 -9 vhcurveto
          109 vlineto
          42 58 91 103 102 47 -91 -91 vhcurveto
          endchar
        </CharString>
        <CharString name="backslash">
          -135 -36 -21 759 -20 hstem
          394 -53 rmoveto
          -44 89 -43 114 -36 99 -66 184 rcurveline
          -24 67 -43 115 -18 83 -3 4 rcurveline
          -78 -4 hlineto
          42 -83 41 -115 25 -67 67 -184 rcurveline
          36 -99 41 -114 21 -89 3 -4 rcurveline
          78 hlineto
          endchar
        </CharString>
        <CharString name="bar">
          -332 -93 -21 882 -20 hstem
          91 55 vstem
          80 -114 rmoveto
          76 -16 callgsubr
          115 98 vvcurveto
          308 vlineto
          66 0 116 12 82 -6 callsubr
          -82 0 -116 -66 vvcurveto
          -308 vlineto
          16 callsubr
          endchar
        </CharString>
        <CharString name="braceleft">
          -315 -85 -21 866 -20 hstem
          91 61 vstem
          225 760 rmoveto
          -115 -19 -58 -84 hvcurveto
          -28 2 -77 -40 vvcurveto
          -51 0 -87 -72 -3 vhcurveto
          -10 vlineto
          71 -3 1 -82 -53 -38 -2 -81 -29 vvcurveto
          -84 19 -58 115 vhcurveto
          2 11 rlineto
          -68 7 -7 48 57 25 2 83 35 vvcurveto
          83 -20 67 -74 17 vhcurveto
          74 17 20 67 83 35 -2 83 25 vvcurveto
          57 7 48 68 7 vhcurveto
          endchar
        </CharString>
        <CharString name="braceright">
          -316 -85 -21 866 -20 hstem
          102 60 vstem
          26 749 rmoveto
          68 -7 8 -48 -57 -25 -2 -83 -35 vvcurveto
          -83 20 -67 74 -17 vhcurveto
          -74 -17 -20 -67 -83 -35 2 -83 -25 vvcurveto
          -57 -8 -48 -68 -7 vhcurveto
          2 -11 rlineto
          115 19 58 84 hvcurveto
          29 -1 81 38 vvcurveto
          53 0 82 71 3 vhcurveto
          10 vlineto
          -71 3 0 87 51 40 1 77 28 vvcurveto
          84 -19 58 -115 vhcurveto
          endchar
        </CharString>
        <CharString name="bracketleft">
          -291 -80 -21 856 -20 hstem
          92 63 vstem
          261 755 rmoveto
          -1 -19 -65 -50 callgsubr
          -76 hlineto
          -2 -4 rlineto
          12 -82 0 -116 -66 vvcurveto
          -270 vlineto
          16 callsubr
          -62 callsubr
          76 hlineto
          19 65 -5 -48 callsubr
          1 4 -2 18 -5 20 callsubr
          -40 1 3 callgsubr
          -11 9 -11 6 callsubr
          31 -1 113 95 vvcurveto
          251 -1 callsubr
          47 3 37 vhcurveto
          3 37 11 11 11 9 rrcurveto
          9 11 40 -34 callgsubr
          5 4 2 18 rlineto
          endchar
        </CharString>
        <CharString name="bracketright">
          -291 -80 -21 856 -20 hstem
          123 63 vstem
          16 751 rmoveto
          2 -18 -67 callgsubr
          21 40 -1 -9 11 hvcurveto
          11 -9 11 -4 callgsubr
          3 -37 0 -47 -96 vvcurveto
          -251 vlineto
          -95 -1 -113 -2 -31 vhcurveto
          -3 -37 -11 -11 -11 -9 rrcurveto
          -9 -11 -40 -35 callsubr
          -5 -4 -2 -18 -43 callsubr
          1 19 65 5 19 hhcurveto
          76 -16 callgsubr
          115 98 vvcurveto
          270 vlineto
          66 0 116 12 82 vhcurveto
          -2 8 callgsubr
          -19 -65 5 1 -19 hvcurveto
          endchar
        </CharString>
        <CharString name="brokenbar">
          -328 -93 -21 882 -20 hstem
          93 55 vstem
          82 380 rmoveto
          76 -16 callgsubr
          30 69 vvcurveto
          33 vlineto
          37 0 40 12 82 -6 callsubr
          -82 0 -40 -37 vvcurveto
          -33 vlineto
          -69 -1 -30 -11 -89 vhcurveto
          1 -498 rmoveto
          76 -16 callgsubr
          30 69 vvcurveto
          32 vlineto
          37 0 40 12 83 -6 callsubr
          -83 0 -40 -37 vvcurveto
          -32 vlineto
          -69 -1 -30 -11 -89 vhcurveto
          endchar
        </CharString>
        <CharString name="bullet">
          -243 176 136 hstem
          95 136 vstem
          95 -19 callgsubr
        </CharString>
        <CharString name="c">
          -60 -11 51 390 45 hstem
          45 76 vstem
          448 353 rmoveto
          -7 callgsubr
          -144 114 -97 131 -53 callsubr
          endchar
        </CharString>
        <CharString name="caron">
          -335 18 callgsubr
          121 545 -85 callgsubr
          endchar
        </CharString>
        <CharString name="ccedilla">
          -60 -203 36 86 34 36 51 390 45 hstem
          45 76 197 59 vstem
          177 -184 rmoveto
          -11 25 34 -8 32 hhcurveto
          63 46 40 44 41 -32 31 -47 -9 -12 -1 -3 -12 hvcurveto
          25 40 rlineto
          -53 callsubr
          21 hlineto
          -7 callgsubr
          -131 94 -92 116 -16 hvcurveto
          -45 -68 8 -11 rlineto
          4 15 18 3 16 hhcurveto
          28 23 -10 -36 -31 -24 -9 -29 -26 -27 6 6 -16 hvcurveto
          -7 hlineto
          -13 -23 rlineto
          endchar
        </CharString>
        <CharString name="cedilla">
          -367 -203 36 86 34 47 -20 hstem
          143 59 vstem
          1 -8 callsubr
          -11 -1 -3 -13 hvcurveto
          30 51 rlineto
          -34 hlineto
          -51 -77 -41 callsubr
        </CharString>
        <CharString name="cent">
          -54 -137 178 351 45 -45 185 hstemhm
          43 76 136 58 0 108 hintmask 11011000
          247 -137 rmoveto
          76 hlineto
          2 4 -5 36 -3 44 -2 44 rlinecurve
          62 7 51 24 26 18 15 28 rcurveline
          -10 10 -36 -18 -53 -18 -57 -1 rlinecurve
          -1 51 0 52 44 vvcurveto
          83 vlineto
          27 0 46 1 48 vhcurveto
          hintmask 11010100
          46 -3 62 -15 -55 vvcurveto
          0 callsubr
          -26 14 -54 18 -60 3 rlinecurve
          2 51 3 49 6 36 rrcurveto
          hintmask 10111000
          -2 8 callgsubr
          -2 -4 5 -37 4 -50 1 -51 rlinecurve
          -117 -14 -95 -78 -131 vvcurveto
          -134 98 -76 114 -11 vhcurveto
          -2 -45 -3 -43 -5 -36 rrcurveto
          -126 351 rmoveto
          86 44 71 93 15 vhcurveto
          1 -48 0 -44 -27 vvcurveto
          -83 vlineto
          -43 -1 -50 -1 -50 vhcurveto
          -90 18 -46 66 89 vvcurveto
          endchar
        </CharString>
        <CharString name="circumflex">
          -335 18 callgsubr
          113 26 callsubr
          7 -3 104 -51 callsubr
          endchar
        </CharString>
        <CharString name="colon">
          -342 -11 94 278 94 hstem
          67 94 vstem
          67 35 rmoveto
          -25 20 -21 26 25 -49 callsubr
          -25 -26 -20 -23 -25 vhcurveto
          373 vmoveto
          -3 callsubr
          endchar
        </CharString>
        <CharString name="comma">
          -356 -76 -10 callgsubr
          63 -80 callsubr
          endchar
        </CharString>
        <CharString name="copyright">
          156 52 29 103 36 270 36 99 29 hstem
          59 35 98 58 381 35 vstem
          435 455 rmoveto
          6 -5 rlineto
          27 hlineto
          8 50 -1 7 rlineto
          15 -37 -47 4 -24 hhcurveto
          -115 -60 -78 -95 -100 69 -69 104 36 36 8 19 33 hvcurveto
          12 28 -9 14 rlineto
          -27 -36 -38 -6 -27 hhcurveto
          -69 -53 47 88 47 15 43 27 24 hvcurveto
          14 18 25 7 29 hhcurveto
          31 36 -8 -27 4 hvcurveto
          -73 199 -81 callsubr
        </CharString>
        <CharString name="currency">
          11 18 -21 34 49 298 48 35 -20 hstem
          92 50 296 50 vstem
          58 27 rmoveto
          29 -30 80 79 rlineto
          -31 44 37 -14 43 hhcurveto
          44 40 16 29 38 hvcurveto
          81 -79 31 30 -80 80 rlineto
          30 40 13 37 44 vvcurveto
          45 -13 37 -31 41 vhcurveto
          79 80 -30 29 -81 -78 rlineto
          31 -39 -38 13 -46 hhcurveto
          -45 -37 -13 -31 -42 hvcurveto
          -80 79 -30 -30 82 -80 rlineto
          -33 -41 -12 -37 -43 vvcurveto
          -46 14 -40 30 -37 vhcurveto
          154 271 rmoveto
          83 65 -67 -82 -83 -65 -66 -82 -83 -66 66 83 84 67 65 81 hvcurveto
          endchar
        </CharString>
        <CharString name="d">
          30 -11 57 -25 -21 420 55 265 -20 hstemhm
          47 76 309 66 hintmask 01111100
          427 -3 rmoveto
          2 21 23 1 24 hhcurveto
          28 28 -2 -2 24 hvcurveto
          -14 callgsubr
          14 -4 20 callsubr
          -22 1 10 -12 hvcurveto
          -8 7 -3 12 -3 30 rrcurveto
          -2 47 -2 20 113 vvcurveto
          218 vlineto
          113 2 22 43 vvcurveto
          16 2 50 5 11 vhcurveto
          -6 9 -35 10 callsubr
          -13 vlineto
          -1 callgsubr
          -2 -15 13 hvcurveto
          4 -5 8 -12 1 -14 rrcurveto
          3 -43 0 -35 -110 vvcurveto
          -30 0 -29 2 -30 vhcurveto
          -2 -4 rlineto
          68 -41 -62 26 -64 hhcurveto
          -94 -124 -68 -181 hvcurveto
          hintmask 10111100
          -122 67 -115 152 70 56 38 56 37 vhcurveto
          1 -4 -2 -23 -4 -35 -4 -14 rlinecurve
          -297 221 22 callgsubr
          -111 vlineto
          -43 -3 -58 -85 -99 hhcurveto
          -103 -46 91 91 hvcurveto
          endchar
        </CharString>
        <CharString name="dagger">
          -95 130 -21 325 49 209 -20 hstemhm
          40 230 -66 66 -66 230 hintmask 11110000
          194 109 rmoveto
          86 -16 callgsubr
          115 98 vvcurveto
          19 9 vlineto
          41 21 -1 -11 89 hvcurveto
          hintmask 11100100
          4 callsubr
          hintmask 11101000
          -41 callgsubr
          hintmask 11110000
          4 callgsubr
          hintmask 11101000
          10 -19 hlineto
          16 callsubr
          endchar
        </CharString>
        <CharString name="daggerdbl">
          -59 -50 -21 209 48 248 49 209 -20 hstemhm
          58 230 -66 66 -66 230 hintmask 11111000
          212 -71 rmoveto
          86 hlineto
          2 4 -8 60 -3 74 -1 71 rlinecurve
          9 hlineto
          41 21 -1 -12 89 hvcurveto
          hintmask 11110010
          4 2 rlineto
          70 vlineto
          -4 2 rlineto
          -12 -89 -21 -1 -41 hhcurveto
          hintmask 11111000
          -9 248 9 hlineto
          41 21 -1 -11 89 hvcurveto
          hintmask 11110010
          4 callsubr
          hintmask 11110100
          -41 callgsubr
          hintmask 11111000
          4 callgsubr
          hintmask 11110100
          10 -248 -10 hlineto
          -40 -21 1 12 -90 hvcurveto
          hintmask 11111000
          -3 -2 rlineto
          -70 vlineto
          3 -2 rlineto
          12 90 21 1 40 hhcurveto
          9 hlineto
          -1 -71 -3 -74 -7 -60 rrcurveto
          endchar
        </CharString>
        <CharString name="degree">
          -229 429 30 166 33 hstem
          48 42 158 44 vstem
          169 658 rmoveto
          -78 -43 -52 -63 -59 36 -55 85 84 39 52 59 64 -42 54 -81 hvcurveto
          -199 vmoveto
          -52 -27 39 46 43 23 38 55 54 26 -40 -45 -46 -26 -35 -53 hvcurveto
          endchar
        </CharString>
        <CharString name="dieresis">
          -349 587 89 hstem
          0 83 54 83 vstem
          631 vmoveto
          -97 callgsubr
          137 hmoveto
          -97 callgsubr
          endchar
        </CharString>
        <CharString name="divide">
          -4 33 94 86 52 86 94 hstem
          247 94 cntrmask 11100000
          86 -18 callgsubr
          -243 -185 rmoveto
          -26 21 -21 26 24 23 21 26 25 -23 22 -24 -26 -21 -22 -25 vhcurveto
          317 vmoveto
          -73 callsubr
        </CharString>
        <CharString name="dollar">
          -36 -96 143 -45 45 703 -20 hstemhm
          59 73 116 45 123 77 hintmask 10111100
          240 -96 rmoveto
          61 hlineto
          2 3 -3 30 -3 33 -1 34 rlinecurve
          109 9 88 52 116 vvcurveto
          123 -97 44 -100 30 vhcurveto
          -1 -1 0 1 -1 hvcurveto
          114 vlineto
          30 0 39 1 43 vhcurveto
          48 -4 57 -17 5 -56 4 -5 rcurveline
          28 hlineto
          14 85 -4 11 -35 15 -55 14 -61 3 rlinecurve
          2 33 2 34 4 29 -2 3 rcurveline
          -61 hlineto
          -2 -3 3 -29 3 -34 1 -33 rlinecurve
          -108 -6 -78 -46 -111 vvcurveto
          -103 80 -44 106 -31 vhcurveto
          -1 1 1 0 1 hhcurveto
          -111 vlineto
          -49 0 -51 -2 -51 vhcurveto
          -91 3 -53 36 -6 73 -5 5 rcurveline
          -25 hlineto
          -17 -101 4 -14 rlineto
          hintmask 01111100
          51 -26 64 -20 77 -1 -2 -33 -2 -33 -3 -29 rrcurveto
          hintmask 10111100
          55 388 rmoveto
          67 -23 56 -31 -73 vvcurveto
          -64 -39 -46 -83 -10 vhcurveto
          -1 51 0 51 48 vvcurveto
          -161 302 rmoveto
          62 42 37 73 6 vhcurveto
          1 -42 0 -40 -30 vvcurveto
          -100 vlineto
          -80 25 -36 22 60 vvcurveto
          endchar
        </CharString>
        <CharString name="dotlessi">
          -293 -25 callsubr
          464 -20 hstemhm
          110 66 hintmask 01110000
          254 hmoveto
          -2 13 -91 callgsubr
          -3 -26 callsubr
          -2 -71 callgsubr
          13 22 vvcurveto
          16 2 48 5 11 vhcurveto
          -6 9 -103 callgsubr
          -94 callgsubr
          hintmask 10110000
          -2 callgsubr
          65 3 19 hhcurveto
          14 -40 callsubr
          endchar
        </CharString>
        <CharString name="dotlessj">
          -317 -239 -21 724 -20 hstem
          96 69 vstem
          23 438 -99 callgsubr
          endchar
        </CharString>
        <CharString name="e">
          -38 callsubr
          hstem
          46 76 -106 callsubr
          endchar
        </CharString>
        <CharString name="eacute">
          -38 callsubr
          205 -20 hstem
          46 76 -106 callsubr
          -74 119 -32 callgsubr
        </CharString>
        <CharString name="ecircumflex">
          -38 callsubr
          198 -20 hstem
          46 76 -106 callsubr
          -8 243 15 callsubr
          -19 8 -3 104 61 103 -61 8 3 5 19 -2 24 callgsubr
          endchar
        </CharString>
        <CharString name="edieresis">
          -38 callsubr
          107 89 hstem
          46 76 32 83 74 83 -106 callsubr
          -126 196 -104 callgsubr
        </CharString>
        <CharString name="egrave">
          -38 callsubr
          205 -20 hstem
          46 76 -106 callsubr
          74 122 -27 callgsubr
          endchar
        </CharString>
        <CharString name="eight">
          -11 -11 53 293 49 228 53 hstemhm
          58 76 -42 42 -42 76 222 76 -42 42 -42 76 hintmask 1110101000000000
          276 21 callgsubr
          -109 -75 -59 -105 -79 41 -38 46 -15 hvcurveto
          -4 vlineto
          hintmask 1111000010000000
          -82 -28 -39 -70 -81 vvcurveto
          -97 54 -100 166 167 55 101 96 73 -35 80 -86 26 vhcurveto
          4 vlineto
          hintmask 1111000100000000
          43 15 44 37 79 vvcurveto
          108 -83 57 -107 vhcurveto
          1 -330 rmoveto
          107 40 -85 -71 -65 -36 -72 -109 -109 -36 82 57 66 36 88 107 hvcurveto
          hintmask 1110011000000000
          113 169 rmoveto
          -66 -46 -54 -65 -67 -44 42 80 67 32 39 77 73 40 -33 -75 vhcurveto
          endchar
        </CharString>
        <CharString name="ellipsis">
          26 -11 94 hstem
          62 94 95 94 95 94 cntrmask 01110000
          62 35 rmoveto
          -25 20 -21 26 25 -49 callsubr
          -25 -26 -20 -23 -25 vhcurveto
          189 hmoveto
          -25 21 -21 25 25 -49 callsubr
          -25 -25 -21 -23 -25 vhcurveto
          189 hmoveto
          -25 21 -21 25 25 -49 callsubr
          -25 -25 -21 -23 -25 vhcurveto
          endchar
        </CharString>
        <CharString name="emdash">
          217 213 52 hstem
          77 265 rmoveto
          -10 -52 rlineto
          643 hlineto
          9 52 rlineto
          endchar
        </CharString>
        <CharString name="endash">
          -21 213 52 hstem
          77 -18 callgsubr
          endchar
        </CharString>
        <CharString name="equal">
          -81 137 52 100 52 hstem
          84 189 -31 callsubr
          -329 152 -31 callsubr
          endchar
        </CharString>
        <CharString name="eth">
          10 -11 39 403 44 265 -20 hstem
          46 75 326 75 vstem
          440 406 rmoveto
          49 -42 -60 20 -53 hhcurveto
          -154 -85 -112 -131 -122 72 -121 169 173 62 142 160 122 -31 120 -55 87 hvcurveto
          97 39 -21 34 -100 -40 -35 44 -43 30 -47 13 rlinecurve
          -17 -28 23 -9 48 -27 19 -42 rlinecurve
          -111 -46 21 -34 110 44 32 -52 28 -65 3 -74 rlinecurve
          -157 -379 rmoveto
          -109 -56 108 98 97 45 100 116 103 62 -73 -122 -100 -48 -108 -113 hvcurveto
          endchar
        </CharString>
        <CharString name="exclam">
          -323 -11 94 603 -20 hstemhm
          78 68 -46 46 -46 68 hintmask 11100000
          164 686 rmoveto
          -82 -26 -4 -9 rlineto
          hintmask 11010000
          3 -41 10 -62 9 -395 6 -4 rcurveline
          35 16 5 7 rlineto
          hintmask 11001000
          10 417 9 22 3 43 rrcurveto
          6 1 11 12 vvcurveto
          -93 -648 rmoveto
          -73 callsubr
        </CharString>
        <CharString name="exclamdown">
          -344 -201 -21 603 94 hstemhm
          65 70 -46 46 -46 70 hintmask 11100000
          65 429 rmoveto
          -25 21 -23 26 vhcurveto
          hintmask 11001000
          24 23 23 25 25 -23 21 -24 hvcurveto
          hintmask 11100000
          -26 -21 -21 -25 hvcurveto
          93 -648 rmoveto
          12 -1 11 6 vvcurveto
          -3 43 -9 22 -10 417 -5 6 rcurveline
          -35 17 rlineto
          hintmask 11010000
          -6 -4 -9 -395 -10 -62 -3 -41 rlinecurve
          4 -9 82 -26 rlineto
          endchar
        </CharString>
        <CharString name="f">
          -236 -25 callsubr
          413 45 238 49 hstemhm
          112 66 hintmask 01111000
          310 418 rmoveto
          39 vlineto
          -5 4 -127 -6 rlineto
          106 vlineto
          67 0 68 77 43 39 -26 -42 5 vhcurveto
          26 hlineto
          12 77 25 callsubr
          21 -39 -36 9 -31 hhcurveto
          -102 -55 -91 -142 hvcurveto
          -57 vlineto
          -74 -15 -4 -4 rlineto
          -18 vlineto
          4 -5 rlineto
          74 -179 hlineto
          -164 -1 -25 -17 -16 vhcurveto
          -10 -11 -23 -35 callsubr
          -4 -4 -1 -14 rlineto
          hintmask 10111000
          -43 callsubr
          hintmask 01111000
          1 19 66 3 19 hhcurveto
          24 hlineto
          hintmask 10111000
          27 callsubr
          hintmask 01111000
          -36 callgsubr
          -68 callsubr
          127 vlineto
          endchar
        </CharString>
        <CharString name="f_i">
          41 -4 22 3 -21 413 42 241 49 hstemhm
          112 66 266 66 hintmask 01111100
          588 hmoveto
          -2 13 rlineto
          hintmask 10111100
          -91 callgsubr
          -3 -26 callsubr
          -2 -71 callgsubr
          13 22 vvcurveto
          16 2 48 5 11 vhcurveto
          -6 9 rlineto
          -7 -72 -114 -2 -149 hhcurveto
          80 vlineto
          83 12 78 108 80 39 -29 -50 11 vhcurveto
          26 hlineto
          12 77 25 callsubr
          24 -35 -55 17 -59 hhcurveto
          -145 -55 -101 -158 hvcurveto
          -31 vlineto
          -74 -15 -4 -4 rlineto
          -18 vlineto
          4 -5 rlineto
          74 -179 hlineto
          -164 -1 -25 -17 -16 vhcurveto
          -10 -11 -23 -35 callsubr
          -4 -4 rlineto
          hintmask 01111100
          -1 -14 rlineto
          hintmask 10111100
          -43 callsubr
          hintmask 01111100
          1 19 66 3 19 hhcurveto
          24 hlineto
          hintmask 10111100
          27 callsubr
          hintmask 01111100
          -11 callsubr
          hintmask 10111100
          -68 callsubr
          217 vlineto
          40 4 -16 -11 2 hvcurveto
          -100 callgsubr
          rlineto
          hintmask 01111100
          -1 -14 rlineto
          hintmask 10111100
          -43 callsubr
          hintmask 01111100
          1 -86 callsubr
          hintmask 10111100
          -77 callgsubr
          endchar
        </CharString>
        <CharString name="f_l">
          37 -4 22 3 -21 413 45 238 36 -36 49 hstemhm
          112 66 260 66 hintmask 10110110
          438 600 rmoveto
          -366 vlineto
          -92 -1 -30 -2 -34 vhcurveto
          -2 -27 -3 -13 -61 callsubr
          -10 -11 -23 -35 callsubr
          -4 -4 rlineto
          hintmask 01110110
          -1 -14 rlineto
          hintmask 10110110
          -43 callsubr
          hintmask 01110110
          1 -86 callsubr
          hintmask 10110110
          -77 callgsubr
          hintmask 01110110
          -11 callsubr
          hintmask 10110110
          -91 callgsubr
          -2 -26 callsubr
          -4 47 -1 -24 callsubr
          -8 -40 -8 0 -9 hhcurveto
          hintmask 10101110
          -39 -41 13 -50 hhcurveto
          -154 -55 -101 -158 hvcurveto
          -31 vlineto
          -74 -15 -4 -4 rlineto
          -18 vlineto
          4 -5 rlineto
          74 -179 hlineto
          -164 -1 -25 -17 -16 vhcurveto
          -10 -11 -23 -35 callsubr
          -4 -4 rlineto
          hintmask 01110110
          -1 -14 rlineto
          hintmask 10110110
          -43 callsubr
          hintmask 01110110
          1 19 66 3 19 hhcurveto
          24 hlineto
          hintmask 10110110
          27 callsubr
          hintmask 01110110
          -11 callsubr
          hintmask 10110110
          -68 callsubr
          127 vlineto
          5 5 rlineto
          39 vlineto
          -5 4 -127 -6 rlineto
          80 vlineto
          83 12 78 124 78 46 -25 -71 vhcurveto
          endchar
        </CharString>
        <CharString name="five">
          -38 -11 53 296 59 209 56 hstem
          410 73 vstem
          410 201 rmoveto
          -83 -41 -76 -121 -93 -50 45 60 -2 vhcurveto
          -3 4 rlineto
          -36 hlineto
          -11 -71 1 -10 rlineto
          -49 36 55 -32 93 hhcurveto
          144 101 78 142 143 -101 45 -110 -46 -44 -7 -13 -34 hvcurveto
          20 224 rlineto
          4 2 1 4 vhcurveto
          60 hlineto
          148 10 -3 -59 11 hvcurveto
          6 -5 rlineto
          18 hlineto
          6 7 -15 108 -9 8 rlineto
          -7 -92 -74 -1 -36 hhcurveto
          -90 hlineto
          -6 -8 -32 -319 2 -7 27 -15 rlineto
          10 hlineto
          23 38 49 10 48 hhcurveto
          76 81 -25 -112 hvcurveto
          endchar
        </CharString>
        <CharString name="florin">
          81 -260 53 620 42 241 49 hstem
          361 413 rmoveto
          127 hlineto
          6 5 6 33 -3 4 rlineto
          -128 hlineto
          23 106 rlineto
          67 14 14 68 77 hhcurveto
          42 26 -26 -42 hvcurveto
          26 hlineto
          28 77 -4 10 rlineto
          21 -34 -34 9 -30 hhcurveto
          -103 -73 -91 -142 -31 hvcurveto
          -12 -57 rlineto
          -74 hlineto
          -6 -4 -7 -33 4 -5 rlineto
          74 hlineto
          -64 -321 rlineto
          -102 -21 -28 -197 -90 hhcurveto
          -8 -8 2 4 -8 hvcurveto
          -16 hlineto
          -19 -50 rlineto
          -8 14 11 -1 9 hhcurveto
          103 81 134 122 26 hvcurveto
          endchar
        </CharString>
        <CharString name="four">
          -61 -25 callsubr
          218 52 395 -20 hstemhm
          300 69 hintmask 01111000
          41 218 rmoveto
          259 hlineto
          -61 -1 -42 -3 -33 vhcurveto
          -2 -27 -12 -13 -61 callsubr
          -10 -11 -39 -5 -21 hhcurveto
          -4 -4 -4 -14 rlineto
          hintmask 10111000
          -43 callsubr
          hintmask 01111000
          1 19 75 3 19 hhcurveto
          56 hlineto
          hintmask 10111000
          19 63 -3 -48 callsubr
          hintmask 01111000
          -36 callgsubr
          -4 5 rlineto
          -20 -31 6 3 callgsubr
          -11 9 -12 -26 callsubr
          -4 39 0 25 72 vvcurveto
          71 hlineto
          7 5 11 41 -4 6 rlineto
          -85 129 hlineto
          -22 callsubr
          0 40 3 21 -12 11 rcurveline
          -8 hlineto
          -65 -9 -36 -46 -159 -233 -75 -132 rlinecurve
          11 -22 rlineto
          265 358 rmoveto
          2 -49 1 -80 -55 vvcurveto
          -127 -204 vlineto
          50 104 106 155 45 52 rrcurveto
          endchar
        </CharString>
        <CharString name="fourinferior">
          -253 0 -12 callgsubr
          213 -20 hstemhm
          177 44 hintmask 01111000
          37 119 -82 callsubr
        </CharString>
        <CharString name="foursuperior">
          -239 301 -12 callgsubr
          213 -20 hstemhm
          181 44 hintmask 01111000
          41 420 -82 callsubr
        </CharString>
        <CharString name="fraction">
          -22 40 -21 654 -20 hstem
          3 -90 callsubr
          endchar
        </CharString>
        <CharString name="g">
          -63 -248 62 181 171 -42 42 245 44 -25 25 -25 44 hstemhm
          34 62 -47 71 238 73 -25 70 hintmask 1011001001000000
          151 132 rmoveto
          -32 -8 -34 -21 -35 vvcurveto
          -27 19 -17 29 -12 vhcurveto
          -1 -3 rlineto
          -57 -17 -41 -47 -56 vvcurveto
          -69 69 -68 143 80 63 21 29 35 vhcurveto
          35 30 17 42 39 vvcurveto
          82 -69 43 -88 10 vhcurveto
          -97 10 rlineto
          -40 4 -17 11 13 vvcurveto
          11 12 19 22 9 vhcurveto
          10 19 -1 11 hhcurveto
          hintmask 1100101010000000
          126 66 77 88 42 -16 51 -34 28 hvcurveto
          1 3 91 -4 5 5 7 55 -5 4 -42 -12 -50 -5 -55 -1 rlinecurve
          hintmask 1100010110000000
          12 -25 -36 7 -35 hhcurveto
          -116 -72 -81 -99 -69 30 -62 72 -27 hvcurveto
          90 30 rmoveto
          -80 -41 68 64 62 38 70 77 80 43 -75 -66 -65 -43 -58 -74 hvcurveto
          35 -178 rmoveto
          hintmask 1101001001000000
          62 -7 68 -15 -63 vvcurveto
          -58 -67 -31 -87 -95 -61 36 50 43 38 49 75 3 vhcurveto
          endchar
        </CharString>
        <CharString name="germandbls">
          9 -4 22 -22 34 -20 -21 32 -21 687 49 hstemhm
          110 65 109 24 -24 57 45 61 22 67 hintmask 1000111011000000
          110 455 rmoveto
          -72 -15 -4 -4 rlineto
          -18 vlineto
          4 -5 rlineto
          72 -179 hlineto
          -164 -1 -26 -17 -15 vhcurveto
          -11 -12 -19 0 -22 hhcurveto
          -4 -4 rlineto
          hintmask 0001111011000000
          -1 -14 rlineto
          hintmask 1000111011000000
          -43 callsubr
          hintmask 0001111011000000
          1 18 64 3 18 hhcurveto
          27 hlineto
          hintmask 1000111011000000
          18 54 -3 -1 18 hvcurveto
          hintmask 0001111011000000
          -11 callsubr
          hintmask 1000111011000000
          -5 5 rlineto
          -32 -33 5 55 -4 hvcurveto
          -2 30 -1 97 53 vvcurveto
          227 vlineto
          95 10 107 99 63 39 -45 -45 vhcurveto
          -72 -102 -54 -97 -132 185 26 -141 vvcurveto
          hintmask 0100111011000000
          -60 -35 -37 -48 -52 -26 43 60 vhcurveto
          -3 4 rlineto
          -17 hlineto
          -12 -103 2 -9 rlineto
          hintmask 0010110111000000
          -17 24 43 -19 43 hhcurveto
          59 89 36 116 hvcurveto
          172 -195 6 90 65 106 40 91 vvcurveto
          66 -59 65 -99 -122 -57 -101 -151 vhcurveto
          endchar
        </CharString>
        <CharString name="grave">
          -350 570 -21 131 -20 hstem
          213 552 -2 callsubr
          -57 callsubr
          3 -7 vhcurveto
          201 -77 rlineto
          endchar
        </CharString>
        <CharString name="greater">
          -155 73 -21 377 -20 hstem
          290 238 rmoveto
          -67 -47 -79 -48 -72 -42 rrcurveto
          -7 vlineto
          9 -38 4 -4 92 67 98 64 95 55 rlinecurve
          5 vlineto
          -95 55 -98 64 -92 67 -4 -4 rcurveline
          -9 -38 rlineto
          -7 vlineto
          72 -41 79 -49 67 -47 rrcurveto
          endchar
        </CharString>
        <CharString name="guillemotleft">
          -105 -70 callsubr
          157 10 rmoveto
          -58 hlineto
          -8 -4 -31 -50 -33 -43 -68 -84 rlinecurve
          68 -83 33 -43 31 -50 8 -4 rcurveline
          58 hlineto
          5 10 -58 59 -39 51 -43 60 rlinecurve
          43 61 39 51 58 59 rrcurveto
          endchar
        </CharString>
        <CharString name="guillemotright">
          -105 -66 callgsubr
          157 -10 rmoveto
          58 -59 39 -51 43 -61 -43 -60 -39 -51 -58 -59 5 -10 rcurveline
          58 hlineto
          7 4 32 50 33 43 68 83 rlinecurve
          -68 84 -33 43 -32 50 -7 4 rcurveline
          -58 hlineto
          endchar
        </CharString>
        <CharString name="guilsinglleft">
          -267 -70 callsubr
          endchar
        </CharString>
        <CharString name="guilsinglright">
          -267 -66 callgsubr
          endchar
        </CharString>
        <CharString name="h">
          28 -25 callsubr
          418 57 265 -20 hstemhm
          98 66 274 68 hintmask 01111100
          432 -3 rmoveto
          -71 callsubr
          hintmask 10111100
          27 29 -2 -2 23 hvcurveto
          hintmask 01111100
          -14 callgsubr
          14 -3 20 callsubr
          -23 1 10 -12 hvcurveto
          -8 7 -7 16 30 vvcurveto
          141 vlineto
          28 0 51 -4 35 vhcurveto
          95 -11 -80 43 -76 hhcurveto
          -83 -54 -46 -59 -34 hvcurveto
          -3 2 rlineto
          2 19 1 30 55 76 3 59 43 vvcurveto
          16 1 50 5 11 vhcurveto
          -6 9 -35 10 callsubr
          -13 vlineto
          -64 callsubr
          -4 -4 -1 -14 rlineto
          hintmask 10111100
          -43 callsubr
          hintmask 01111100
          1 -86 callsubr
          hintmask 10111100
          -77 callgsubr
          hintmask 01111100
          -36 callgsubr
          -91 callgsubr
          -3 -26 callsubr
          -4 47 0 20 143 vvcurveto
          41 64 89 89 54 46 -31 -62 13 vhcurveto
          6 -27 2 -40 -30 vvcurveto
          -36 -1 -59 -3 -55 vhcurveto
          -1 -21 -3 -33 -5 -17 rrcurveto
          endchar
        </CharString>
        <CharString name="hyphen">
          -98 213 52 hstem
          76 265 -31 callsubr
          endchar
        </CharString>
        <CharString name="i">
          -293 -25 callsubr
          584 96 hstemhm
          84 92 -66 66 hintmask 01110000
          254 hmoveto
          -2 13 -91 callgsubr
          -3 -26 callsubr
          -2 -71 callgsubr
          13 22 vvcurveto
          16 2 48 5 11 vhcurveto
          -6 9 -103 callgsubr
          hintmask 01101000
          2 -27 1 -17 -56 vvcurveto
          -123 vlineto
          -48 -1 -15 -2 -22 vhcurveto
          -3 -27 -2 -60 callgsubr
          -168 635 -72 callgsubr
          endchar
        </CharString>
        <CharString name="iacute">
          -293 -25 callsubr
          680 -20 hstemhm
          110 66 hintmask 01110000
          254 hmoveto
          -2 13 -91 callgsubr
          -3 -26 callsubr
          -2 -71 callgsubr
          13 22 vvcurveto
          16 2 48 5 11 vhcurveto
          -6 9 -103 callgsubr
          2 -27 1 -17 -56 vvcurveto
          -123 vlineto
          -48 -1 -15 -2 -22 vhcurveto
          -3 -27 -2 -60 callgsubr
          -198 553 -88 callgsubr
          endchar
        </CharString>
        <CharString name="icircumflex">
          -293 -25 callsubr
          673 -20 hstemhm
          110 66 hintmask 01110000
          254 hmoveto
          -2 13 -91 callgsubr
          -3 -26 callsubr
          -2 -71 callgsubr
          13 22 vvcurveto
          16 2 48 5 11 vhcurveto
          -6 9 -103 callgsubr
          2 -27 1 -17 -56 vvcurveto
          -123 vlineto
          -48 -1 -15 -2 -22 vhcurveto
          -3 -27 -2 -60 callgsubr
          -123 677 -44 callgsubr
          -19 8 -3 103 -51 callsubr
          endchar
        </CharString>
        <CharString name="idieresis">
          -293 -25 callsubr
          582 89 hstemhm
          13 83 14 66 -6 83 hintmask 01111000
          254 hmoveto
          -2 13 -91 callgsubr
          -3 -26 callsubr
          -2 -71 callgsubr
          13 22 vvcurveto
          16 2 48 5 11 vhcurveto
          -6 9 -103 callgsubr
          -94 callgsubr
          hintmask 10111000
          -43 callsubr
          hintmask 01111000
          1 -86 callsubr
          hintmask 10111000
          -77 callgsubr
          hintmask 01110100
          -239 630 -104 callgsubr
        </CharString>
        <CharString name="igrave">
          -293 -25 callsubr
          680 -20 hstemhm
          110 66 hintmask 01110000
          254 hmoveto
          -2 13 -91 callgsubr
          -3 -26 callsubr
          -2 -71 callgsubr
          13 22 vvcurveto
          16 2 48 5 11 vhcurveto
          -6 9 -103 callgsubr
          2 -27 1 -17 -56 vvcurveto
          -123 vlineto
          -48 -1 -15 -2 -22 vhcurveto
          -3 -27 -2 -60 callgsubr
          -53 556 -2 callsubr
          -57 callsubr
          3 -7 vhcurveto
          201 -77 rlineto
          endchar
        </CharString>
        <CharString name="ij">
          -44 -239 -21 281 -21 584 96 hstemhm
          84 92 -66 66 170 92 -69 69 hintmask 11110100
          254 hmoveto
          -2 13 -91 callgsubr
          -3 -26 callsubr
          -2 -71 callgsubr
          13 22 vvcurveto
          16 2 48 5 11 vhcurveto
          -6 9 -103 callgsubr
          hintmask 11101100
          -96 callgsubr
          -43 callsubr
          1 -5 callgsubr
          -1 19 hvcurveto
          hintmask 11110010
          -168 635 -72 callgsubr
          212 -193 -99 callgsubr
          hintmask 11110100
          50 179 -72 callgsubr
          endchar
        </CharString>
        <CharString name="j">
          -317 -239 -21 844 96 hstemhm
          73 92 -69 69 hintmask 11010000
          23 438 -99 callgsubr
          hintmask 11100000
          50 179 -72 callgsubr
          endchar
        </CharString>
        <CharString name="k">
          -44 -4 22 -4 -21 28 -21 740 -20 hstemhm
          98 66 hintmask 10011000
          22 714 rmoveto
          -64 callsubr
          hintmask 01011000
          -4 -4 rlineto
          hintmask 00111000
          -1 -14 rlineto
          hintmask 10011000
          -43 callsubr
          hintmask 00111000
          1 -86 callsubr
          hintmask 10011000
          -77 callgsubr
          hintmask 00111000
          -11 callsubr
          hintmask 10011000
          -91 callgsubr
          -4 12 -1 28 rrcurveto
          -2 37 -2 20 52 vvcurveto
          10 10 7 9 29 27 15 -15 10 -12 23 -30 80 -103 rcurveline
          22 -27 26 -24 4 -4 rrcurveto
          hintmask 01011000
          -16 16 17 -9 20 hhcurveto
          hintmask 10011000
          28 29 0 3 23 hvcurveto
          hintmask 00111000
          2 4 rlineto
          hintmask 01011000
          -2 14 rlineto
          hintmask 10011000
          -3 4 -60 4 -34 52 -37 46 rlinecurve
          -89 110 -21 25 -10 17 -6 9 rlinecurve
          41 38 35 34 51 45 39 24 rlinecurve
          14 9 22 2 13 23 callgsubr
          -27 -3 -25 hhcurveto
          -28 hlineto
          -26 -26 3 3 -25 hvcurveto
          -62 callgsubr
          20 -3 26 -5 -16 vvcurveto
          -4 -3 -7 -6 -7 vhcurveto
          -7 -9 -38 -34 -6 -6 -119 -110 rcurveline
          238 vlineto
          113 3 22 43 vvcurveto
          16 1 50 5 11 vhcurveto
          -6 9 -35 2 callsubr
        </CharString>
        <CharString name="l">
          -299 -25 callsubr
          740 -20 hstemhm
          102 66 hintmask 01110000
          26 -9 callsubr
          3 -43 0 -35 -22 callgsubr
          -2 -34 vhcurveto
          -2 -27 -3 -60 callgsubr
          -36 callgsubr
          -91 callgsubr
          -2 12 -3 28 rrcurveto
          -2 47 -2 -24 callsubr
          -36 2 callsubr
        </CharString>
        <CharString name="less">
          -155 73 -21 377 -20 hstem
          124 243 rmoveto
          67 47 79 49 72 41 rrcurveto
          7 vlineto
          -9 38 -4 4 -92 -67 -98 -64 -95 -55 rlinecurve
          -5 vlineto
          95 -55 98 -64 92 -67 4 4 rcurveline
          9 38 rlineto
          7 vlineto
          -72 42 -79 48 -67 47 rrcurveto
          endchar
        </CharString>
        <CharString name="logicalnot">
          63 138 -21 172 52 hstem
          504 53 vstem
          77 341 rmoveto
          -52 427 -172 53 224 vlineto
          endchar
        </CharString>
        <CharString name="m">
          355 16 callgsubr
          hstemhm
          110 66 264 69 256 69 hintmask 10111100
          34 438 rmoveto
          -1 callgsubr
          -1 -16 13 hvcurveto
          4 -4 7 -54 callgsubr
          -100 callgsubr
          rlineto
          hintmask 01111100
          -1 -14 rlineto
          hintmask 10111100
          -43 callsubr
          hintmask 01111100
          1 -86 callsubr
          hintmask 10111100
          -77 callgsubr
          hintmask 01111100
          -11 callsubr
          hintmask 10111100
          -91 callgsubr
          -3 -26 callsubr
          -2 -86 callgsubr
          43 59 88 88 51 43 -29 -54 15 vhcurveto
          8 -28 0 -47 -27 vvcurveto
          -28 -2 -88 -2 -39 vhcurveto
          -2 -27 -2 -13 -61 callsubr
          -10 -11 -23 -35 callsubr
          -4 -4 rlineto
          hintmask 01111100
          -2 -14 rlineto
          hintmask 10111100
          -62 callsubr
          hintmask 01111100
          1 -86 callsubr
          hintmask 10111100
          -77 callgsubr
          hintmask 01111100
          -11 callsubr
          hintmask 10111100
          -5 5 -43 callgsubr
          3 callgsubr
          -11 9 -5 12 28 vvcurveto
          145 vlineto
          29 0 30 -3 29 vhcurveto
          45 16 52 62 74 hhcurveto
          51 45 -29 -54 13 hvcurveto
          6 -28 2 -47 -27 vvcurveto
          -28 -1 -88 -2 -39 vhcurveto
          -1 -21 -3 -33 -5 -17 7 -10 rcurveline
          hintmask 01111100
          2 21 23 1 24 hhcurveto
          hintmask 10111100
          28 28 -2 -2 24 hvcurveto
          hintmask 01111100
          -14 callgsubr
          14 rlineto
          hintmask 10111100
          -4 20 callsubr
          -23 1 10 -11 hvcurveto
          -9 7 -6 12 30 vvcurveto
          145 vlineto
          38 0 40 -6 35 vhcurveto
          98 -17 -74 41 -77 hhcurveto
          -89 -43 -54 -59 -32 hvcurveto
          80 -24 -68 33 -69 hhcurveto
          -82 -45 -46 -54 -30 hvcurveto
          -3 2 rlineto
          22 5 41 5 15 vhcurveto
          -6 9 -35 -54 callsubr
          -25 -63 callsubr
          endchar
        </CharString>
        <CharString name="minus">
          -5 213 52 hstem
          85 -18 callgsubr
          endchar
        </CharString>
        <CharString name="mu">
          73 14 callgsubr
          121 68 272 66 hintmask 11011100
          144 -101 callsubr
        </CharString>
        <CharString name="multiply">
          -107 101 -21 317 -20 hstem
          352 80 rmoveto
          37 37 -122 122 122 121 -37 37 -122 -121 -120 120 -37 -37 120 -120 -120 -121 37 -37 120 121 rlineto
          endchar
        </CharString>
        <CharString name="n">
          40 16 callgsubr
          hstemhm
          110 66 274 69 hintmask 10111000
          -82 callgsubr
          hintmask 01111000
          -1 -14 rlineto
          hintmask 10111000
          -43 callsubr
          hintmask 01111000
          1 -86 callsubr
          hintmask 10111000
          -77 callgsubr
          hintmask 01111000
          -11 callsubr
          hintmask 10111000
          -91 callgsubr
          -2 12 -3 28 rrcurveto
          -3 28 -1 11 58 vvcurveto
          113 vlineto
          44 64 86 89 54 46 -31 -62 13 vhcurveto
          6 -27 2 -40 -30 vvcurveto
          -36 -1 -59 -3 -55 vhcurveto
          -1 -21 -3 -33 -5 -17 7 -10 rcurveline
          hintmask 01111000
          -71 callsubr
          hintmask 10111000
          27 29 -2 -2 23 hvcurveto
          hintmask 01111000
          -14 callgsubr
          14 rlineto
          hintmask 10111000
          -59 callsubr
          endchar
        </CharString>
        <CharString name="nine">
          -25 -11 53 211 55 304 53 hstem
          49 68 291 69 vstem
          406 317 rmoveto
          2 -16 0 -13 0 vvcurveto
          -126 -41 -120 -128 -41 -52 12 45 -26 vhcurveto
          -18 hlineto
          -15 -63 rlineto
          -38 39 77 -9 42 hhcurveto
          191 41 198 164 190 -55 124 -161 -154 -58 -112 -99 -72 31 -129 180 40 59 7 58 44 hvcurveto
          -148 -10 rmoveto
          -115 -23 83 61 93 54 67 90 110 26 -98 -63 -86 -47 -57 -95 hvcurveto
          endchar
        </CharString>
        <CharString name="ntilde">
          40 16 callgsubr
          111 -30 callgsubr
          110 66 274 69 hintmask 1011001110000000
          -82 callgsubr
          hintmask 0111001110000000
          -1 -14 rlineto
          hintmask 1011001110000000
          -43 callsubr
          hintmask 0111001110000000
          1 -86 callsubr
          hintmask 1011001110000000
          -77 callgsubr
          hintmask 0111001110000000
          -11 callsubr
          hintmask 1011001110000000
          -91 callgsubr
          -2 12 -3 28 rrcurveto
          -3 28 -1 11 58 vvcurveto
          113 vlineto
          44 64 86 89 54 46 -31 -62 13 vhcurveto
          6 -27 2 -40 -30 vvcurveto
          -36 -1 -59 -3 -55 vhcurveto
          -1 -21 -3 -33 -5 -17 7 -10 rcurveline
          hintmask 0111001110000000
          -71 callsubr
          hintmask 1011001110000000
          27 29 -2 -2 23 hvcurveto
          hintmask 0111001110000000
          -14 callgsubr
          14 rlineto
          hintmask 1010101110000000
          -59 callsubr
          281 289 -63 callgsubr
          hhcurveto
          hintmask 1010010110000000
          -87 callgsubr
          hintmask 1011001110000000
          -65 callgsubr
          endchar
        </CharString>
        <CharString name="numbersign">
          53 21 -21 222 53 119 52 208 -20 hstem
          295 hmoveto
          3 callsubr
          9 53 rlineto
          -131 hlineto
          25 119 rlineto
          128 hlineto
          9 52 rlineto
          -126 -15 callsubr
          -134 -15 callsubr
          -130 hlineto
          -9 -52 rlineto
          128 hlineto
          -25 -119 rlineto
          -123 hlineto
          -9 -53 rlineto
          120 hlineto
          -17 -76 -19 -78 -22 -64 1 -4 rcurveline
          3 callsubr
          -17 -76 -19 -78 -22 -64 rrcurveto
          -40 390 rmoveto
          135 hlineto
          -25 -119 rlineto
          -134 hlineto
          endchar
        </CharString>
        <CharString name="o">
          -16 callsubr
          hstem
          7 callsubr
          77 vstem
          -104 callsubr
          endchar
        </CharString>
        <CharString name="oacute">
          -16 callsubr
          205 -20 hstem
          7 callsubr
          77 vstem
          -104 callsubr
          -69 521 -88 callgsubr
          endchar
        </CharString>
        <CharString name="ocircumflex">
          -16 callsubr
          198 -20 hstem
          7 callsubr
          77 vstem
          -104 callsubr
          3 645 rmoveto
          -111 -99 -3 -7 6 21 callsubr
          -37 callgsubr
          endchar
        </CharString>
        <CharString name="odieresis">
          -16 callsubr
          107 89 hstem
          45 75 51 83 74 83 50 77 vstem
          -104 callsubr
          -121 598 -104 callgsubr
        </CharString>
        <CharString name="oe">
          368 -11 39 -39 55 216 47 126 42 hstemhm
          7 callsubr
          73 hintmask 10111100
          291 475 rmoveto
          -154 -92 -112 -131 -122 79 -121 169 96 70 40 61 36 hvcurveto
          5 hlineto
          -62 37 75 -39 85 hhcurveto
          72 62 25 25 32 hvcurveto
          9 11 rlineto
          18 vlineto
          -10 6 rlineto
          hintmask 01111100
          -27 callsubr
          16 7 7 24 rlineto
          154 -24 -114 28 -69 hhcurveto
          -82 -77 -43 -65 -35 hvcurveto
          -4 hlineto
          64 -36 -75 44 -92 hhcurveto
          hintmask 10111100
          1 -447 rmoveto
          -109 -63 108 98 97 52 102 116 111 62 -109 -97 -100 -56 -99 -113 hvcurveto
          401 402 -52 callsubr
        </CharString>
        <CharString name="ograve">
          -16 callsubr
          205 -20 hstem
          7 callsubr
          77 vstem
          -104 callsubr
          67 524 -2 callsubr
          101 rlineto
          -22 -1 -13 -15 -19 vvcurveto
          -5 1 -7 3 -7 vhcurveto
          202 -77 rlineto
          endchar
        </CharString>
        <CharString name="one">
          -215 -25 callsubr
          663 -20 hstemhm
          156 70 hintmask 01110000
          42 541 rmoveto
          3 -4 107 27 rlineto
          4 -43 0 -14 -110 vvcurveto
          -163 vlineto
          -92 -1 -26 -3 -34 vhcurveto
          -2 -27 -12 -13 -61 callsubr
          -10 -11 -33 -5 -21 hhcurveto
          -3 -4 -2 -14 rlineto
          hintmask 10110000
          -62 callsubr
          hintmask 01110000
          1 19 64 3 19 hhcurveto
          57 -40 callsubr
          hintmask 01110000
          -36 callgsubr
          -5 5 rlineto
          -20 -30 6 9 -12 13 callgsubr
          -12 -26 callsubr
          -4 46 0 17 113 vvcurveto
          141 vlineto
          -22 callsubr
          0 40 3 21 -22 9 rcurveline
          -7 hlineto
          -50 -47 -52 -28 -57 -28 -3 -6 rcurveline
          endchar
        </CharString>
        <CharString name="onehalf">
          131 -1 28 callgsubr
          307 -20 28 -44 callsubr
          42 421 47 hintmask 10101110
          62 19 rmoveto
          76 hlineto
          4 4 55 89 45 -56 callsubr
          48 67 57 77 72 82 rlinecurve
          1 8 callgsubr
          -5 -4 -47 -82 -56 -77 -49 -67 rlinecurve
          -121 -165 -72 -98 -48 -68 -77 -89 rlinecurve
          566 vmoveto
          67 17 rlineto
          2 -26 0 -9 -65 vvcurveto
          -67 vlineto
          -55 0 -15 -2 -21 vhcurveto
          -2 -16 -7 -8 -5 -5 rrcurveto
          -32 callsubr
          -12 -8 4 5 -7 hvcurveto
          -7 5 -7 8 -1 16 rrcurveto
          -2 28 0 10 67 vvcurveto
          55 vlineto
          65 0 45 4 42 vhcurveto
          hintmask 01110110
          -14 5 rlineto
          -4 hlineto
          -30 -28 -30 -16 -35 -17 -2 -4 rcurveline
          367 -355 rmoveto
          23 hlineto
          51 4 28 24 47 hhcurveto
          50 13 -27 -29 -66 -130 -120 -50 -64 hvcurveto
          -12 vlineto
          5 -6 rlineto
          hintmask 10101110
          1 19 21 2 16 hhcurveto
          54 hlineto
          hintmask 01101110
          19 77 -3 9 hhcurveto
          5 5 9 80 rlineto
          -14 hlineto
          hintmask 10101110
          -45 -13 -10 -2 -87 hhcurveto
          -36 hlineto
          -2 4 rlineto
          35 53 120 85 89 vvcurveto
          57 -32 36 -75 -59 -35 -29 -30 -17 vhcurveto
          endchar
        </CharString>
        <CharString name="oneinferior">
          -320 19 -21 23 -21 366 -20 hstemhm
          112 42 hintmask 10110000
          44 290 -50 callsubr
          hintmask 01110000
          -11 callgsubr
          hintmask 10110000
          -74 callsubr
        </CharString>
        <CharString name="onequarter">
          110 -6 -12 callgsubr
          520 -20 28 -20 hstemhm
          132 42 361 44 hintmask 10001110
          59 -90 callsubr
          4 566 rmoveto
          67 17 rlineto
          2 -26 0 -9 -65 vvcurveto
          -67 vlineto
          -96 -1 -9 -15 -15 vhcurveto
          -32 callsubr
          -43 -1 25 118 hvcurveto
          55 vlineto
          65 0 45 3 42 vhcurveto
          hintmask 01110110
          -13 5 rlineto
          -4 hlineto
          -30 -28 -31 -16 -34 -17 -2 -4 rcurveline
          332 -487 -45 callgsubr
          hintmask 10001110
          10 40 2 10 hhcurveto
          38 hlineto
          hintmask 01101110
          10 35 -2 10 hhcurveto
          -2 12 rlineto
          -49 -1 25 84 hvcurveto
          39 hlineto
          4 3 8 26 -3 3 rlineto
          -48 -89 callgsubr
        </CharString>
        <CharString name="onesuperior">
          -300 318 -21 368 -20 hstem
          123 42 vstem
          55 589 -50 callsubr
          -11 callgsubr
          -74 callsubr
        </CharString>
        <CharString name="ordfeminine">
          -214 376 32 -18 -21 147 142 -32 32 hstemhm
          50 47 121 43 hintmask 10101100
          208 445 rmoveto
          -18 -12 -26 -19 -28 hhcurveto
          -25 -20 14 33 55 55 6 66 hvcurveto
          -3 -54 rlineto
          -6 -4 -7 -3 -4 vhcurveto
          7 -22 rmoveto
          -14 -2 -15 -2 -15 vhcurveto
          4 -4 rlineto
          12 15 1 14 hhcurveto
          18 16 -1 -1 14 hvcurveto
          -2 18 rlineto
          -22 -19 1 30 hvcurveto
          48 2 27 69 vvcurveto
          59 -29 32 -57 -43 -47 -17 -9 -8 vhcurveto
          -2 -4 5 -46 rlineto
          16 hlineto
          2 3 rlineto
          hintmask 01011100
          37 4 40 4 21 hhcurveto
          32 19 -10 -72 2 hvcurveto
          -35 -133 -4 -89 -45 32 -37 49 34 28 28 29 20 hvcurveto
          endchar
        </CharString>
        <CharString name="ordmasculine">
          -195 369 30 226 33 hstem
          48 43 190 45 vstem
          186 658 rmoveto
          -86 -52 -66 -79 -73 44 -71 95 93 46 68 73 78 -50 70 -90 hvcurveto
          1 -259 rmoveto
          -60 -36 57 58 57 30 54 63 62 35 -58 -57 -58 -32 -53 -62 hvcurveto
          endchar
        </CharString>
        <CharString name="oslash">
          14 -11 39 -26 -21 452 42 -2 -20 hstemhm
          7 callsubr
          77 hintmask 01101100
          291 475 rmoveto
          -154 -92 -112 -131 -65 21 -64 47 -47 hvcurveto
          -62 -71 -2 -4 rlineto
          67 hlineto
          6 4 33 39 rlineto
          hintmask 10011100
          -22 36 46 -13 56 hhcurveto
          164 81 116 122 63 -22 61 -40 45 hvcurveto
          64 74 2 3 rlineto
          -67 hlineto
          -6 -3 -33 -38 rlineto
          hintmask 10101100
          27 -38 -49 16 -58 hhcurveto
          -171 -241 rmoveto
          97 52 102 116 45 37 -18 -28 28 vhcurveto
          -242 -281 rlineto
          -24 38 -12 46 44 vvcurveto
          172 -206 rmoveto
          -40 -34 14 24 -27 hvcurveto
          239 277 rlineto
          20 -35 11 -42 -39 vvcurveto
          -100 -56 -99 -113 vhcurveto
          endchar
        </CharString>
        <CharString name="otilde">
          -16 callsubr
          111 -30 callgsubr
          7 callsubr
          77 hintmask 11010111
          -104 callsubr
          145 635 -67 callsubr
        </CharString>
        <CharString name="p">
          29 -239 -21 249 55 374 57 hstem
          99 66 310 76 vstem
          165 385 rmoveto
          20 4 40 5 10 vhcurveto
          -6 9 -101 callgsubr
          8 -13 1 -14 rrcurveto
          2 -43 1 -32 -106 vvcurveto
          -233 vlineto
          -89 -1 -28 -2 -34 vhcurveto
          -2 -26 -3 -13 -61 callsubr
          -10 -12 -22 -2 -21 hhcurveto
          -4 -3 -1 -15 1 -3 rlineto
          -5 callgsubr
          19 hhcurveto
          2 3 -2 14 -5 4 -43 callgsubr
          10 -11 hvcurveto
          -10 8 -3 13 -2 27 rrcurveto
          -4 46 0 20 108 vvcurveto
          48 -2 22 -1 18 vhcurveto
          3 2 rlineto
          -68 41 62 -28 64 -31 callgsubr
          -68 -57 -37 -54 -38 hvcurveto
          307 -148 -33 callsubr
        </CharString>
        <CharString name="paragraph">
          -39 -124 38 -22 -21 745 38 6 -20 hstemhm
          259 42 58 37 hintmask 01101100
          173 -129 rmoveto
          hintmask 10101100
          2 19 74 3 19 hhcurveto
          86 hlineto
          hintmask 01011100
          19 74 -3 -2 -93 callgsubr
          -5 3 rlineto
          -16 -25 1 9 -12 hvcurveto
          -11 7 -10 17 -4 34 rrcurveto
          -2 20 -1 148 79 vvcurveto
          260 vlineto
          26 0 37 3 33 vhcurveto
          4 38 10 10 11 9 rrcurveto
          7 11 9 3 33 hhcurveto
          5 20 callgsubr
          -2 4 rlineto
          hintmask 01101100
          -1 -19 -45 -5 -28 hhcurveto
          -103 hlineto
          -29 -51 1 -20 hhcurveto
          -84 -67 -74 -88 -174 128 -37 94 hvcurveto
          -105 vlineto
          -55 -1 -138 -28 callsubr
          -3 -38 -14 -13 -8 -6 rrcurveto
          -8 -12 -8 -3 -33 hhcurveto
          -5 -3 -3 -18 rlineto
          118 43 rmoveto
          11 90 1 39 97 vvcurveto
          223 vlineto
          66 0 96 -12 83 vhcurveto
          2 4 rlineto
          79 hlineto
          -62 callsubr
          -13 -83 0 -96 -66 vvcurveto
          -223 vlineto
          -97 1 -39 12 -90 vhcurveto
          hintmask 10101100
          -2 -4 rlineto
          -79 hlineto
          endchar
        </CharString>
        <CharString name="parenleft">
          -298 -96 -21 888 -20 hstem
          40 80 vstem
          242 771 rmoveto
          -127 -116 -75 -158 -170 vvcurveto
          -170 75 -160 127 -114 vhcurveto
          15 11 rlineto
          5 vlineto
          -128 160 -9 159 109 vvcurveto
          51 2 72 18 73 vhcurveto
          21 86 41 77 55 69 rrcurveto
          5 vlineto
          endchar
        </CharString>
        <CharString name="parenright">
          -298 -96 -21 888 -20 hstem
          150 81 vstem
          14 760 rmoveto
          -5 vlineto
          55 -70 40 -76 21 -86 rrcurveto
          18 -74 2 -71 -51 vvcurveto
          -108 -9 -160 -127 -160 vhcurveto
          -5 vlineto
          15 -11 rlineto
          126 113 76 162 169 vvcurveto
          169 -75 160 -127 115 vhcurveto
          endchar
        </CharString>
        <CharString name="percent">
          214 12 callgsubr
          44 19 callgsubr
          118 19 callgsubr
          hintmask 1010111110000000
          123 19 rmoveto
          76 hlineto
          5 4 54 89 46 -56 callsubr
          48 66 55 79 -80 callgsubr
          hintmask 1101011110000000
          -407 638 -93 callsubr
          endchar
        </CharString>
        <CharString name="period">
          -352 -11 94 hstem
          62 94 vstem
          62 35 rmoveto
          -25 20 -21 26 25 -49 callsubr
          -25 -26 -20 -23 -25 vhcurveto
          endchar
        </CharString>
        <CharString name="periodcentered">
          -342 197 94 hstem
          67 94 vstem
          67 243 rmoveto
          -73 callsubr
        </CharString>
        <CharString name="perthousand">
          566 12 callgsubr
          47 19 callgsubr
          118 19 callgsubr
          62 49 192 48 hintmask 1010111111100000
          126 19 rmoveto
          76 hlineto
          5 4 54 89 46 -56 callsubr
          49 67 54 78 -80 callgsubr
          hintmask 1101011111100000
          -407 638 -93 callsubr
          hintmask 1011011111100000
          759 22 27 callgsubr
          51 89 96 98 -53 85 -92 hvcurveto
          -330 vmoveto
          -55 -40 56 91 83 32 62 61 61 38 -63 -82 -81 -35 -66 -62 hvcurveto
          endchar
        </CharString>
        <CharString name="plus">
          -74 62 -21 172 52 162 -20 hstem
          221 52 vstem
          273 427 rmoveto
          -52 -162 -162 hlineto
          -9 -52 rlineto
          171 -172 52 172 162 hlineto
          10 52 rlineto
          -172 hlineto
          endchar
        </CharString>
        <CharString name="plusminus">
          -89 70 53 175 53 104 -20 hstem
          214 52 vstem
          266 455 rmoveto
          -52 -104 -124 hlineto
          -9 -53 rlineto
          133 -115 52 115 124 hlineto
          10 53 rlineto
          -134 hlineto
          -176 -228 rmoveto
          -9 -53 rlineto
          309 hlineto
          10 53 rlineto
          endchar
        </CharString>
        <CharString name="q">
          28 -239 -21 249 57 374 55 hstem
          47 76 309 66 vstem
          430 386 rmoveto
          64 -42 -61 25 -62 hhcurveto
          -94 -124 -68 -181 -122 67 -115 152 71 57 40 58 38 hvcurveto
          3 -2 rlineto
          -2 -29 -1 -25 -59 vvcurveto
          -89 0 -28 -3 -76 callgsubr
          211 vlineto
          110 1 21 3 49 vhcurveto
          1 14 7 13 4 4 rrcurveto
          16 14 -73 callgsubr
          10 callgsubr
          14 vlineto
          -4 3 rlineto
          -18 hlineto
          -22 -41 0 4 -24 hvcurveto
          -35 5 -6 -9 rlineto
          4 -10 5 -37 -20 vvcurveto
          -310 -160 22 callgsubr
          -110 vlineto
          -43 -3 -57 -86 -100 hhcurveto
          -103 -46 91 91 hvcurveto
          endchar
        </CharString>
        <CharString name="question">
          -145 -11 94 561 42 hstemhm
          150 94 -74 54 80 67 hintmask 11011000
          224 234 rmoveto
          5 72 142 97 123 vvcurveto
          129 -107 31 -57 -45 -90 -17 -38 -24 vhcurveto
          -2 -9 12 -93 rlineto
          18 hlineto
          2 3 rlineto
          60 8 47 52 71 hhcurveto
          45 55 -32 -69 hvcurveto
          -116 -134 -70 -107 vvcurveto
          -19 2 -44 1 -34 vhcurveto
          6 -4 35 16 6 7 rlineto
          hintmask 11101000
          -70 -136 rmoveto
          -25 21 -22 25 25 23 22 25 26 -23 21 -25 -25 -21 -21 -26 vhcurveto
          endchar
        </CharString>
        <CharString name="questiondown">
          -154 -222 41 562 94 hstemhm
          47 68 59 95 -75 55 hintmask 11101000
          194 230 rmoveto
          -4 -72 -143 -97 -123 vvcurveto
          -129 107 -31 57 45 90 17 38 24 vhcurveto
          2 9 -12 93 rlineto
          -17 hlineto
          -3 -3 rlineto
          -60 -8 -46 -53 -72 hhcurveto
          -45 -54 33 69 hvcurveto
          116 134 69 108 vvcurveto
          19 -2 44 -2 34 vhcurveto
          -6 4 -35 -17 -6 -6 rlineto
          hintmask 11110000
          -24 137 rmoveto
          -25 21 -23 26 25 23 23 25 25 -23 21 -25 -26 -21 -21 -25 vhcurveto
          endchar
        </CharString>
        <CharString name="quotedbl">
          -263 537 -21 214 -20 hstem
          65 46 87 -46 callgsubr
          175 10 rmoveto
          2 4 1 67 2 72 9 57 rlinecurve
          -2 4 -66 -9 -2 -4 8 -62 3 -70 1 -64 rlinecurve
          2 -5 rlineto
          endchar
        </CharString>
        <CharString name="quotedblbase">
          -195 -76 -10 callgsubr
          63 84 77 -80 callsubr
          167 -49 callgsubr
        </CharString>
        <CharString name="quotedblleft">
          -228 581 -10 callgsubr
          54 84 68 84 vstem
          290 740 rmoveto
          -76 callsubr
          -158 hmoveto
          -76 callsubr
          endchar
        </CharString>
        <CharString name="quotedblright">
          -241 581 -10 callgsubr
          68 84 -57 callgsubr
          158 -49 callgsubr
        </CharString>
        <CharString name="quoteleft">
          -380 581 -10 callgsubr
          54 84 vstem
          138 740 rmoveto
          -76 callsubr
          endchar
        </CharString>
        <CharString name="quoteright">
          -393 581 -10 callgsubr
          -57 callgsubr
          endchar
        </CharString>
        <CharString name="quotesinglbase">
          -356 -76 -10 callgsubr
          63 -80 callsubr
          endchar
        </CharString>
        <CharString name="quotesingle">
          -397 537 -21 214 -20 hstem
          65 -46 callgsubr
          endchar
        </CharString>
        <CharString name="r">
          -161 -25 callsubr
          406 69 hstemhm
          110 66 hintmask 01110000
          174 355 rmoveto
          33 3 39 8 28 vhcurveto
          -6 9 -103 callgsubr
          2 -27 1 -17 -56 vvcurveto
          -123 vlineto
          -48 -1 -15 -1 -13 vhcurveto
          -1 -9 -3 -27 -2 -13 -10 -9 rlinecurve
          -10 -11 -23 -35 callsubr
          -4 -4 -1 -14 rlineto
          hintmask 10110000
          -2 callgsubr
          66 3 19 hhcurveto
          24 hlineto
          hintmask 10110000
          27 callsubr
          hintmask 01110000
          -36 callgsubr
          -5 5 rlineto
          -16 -41 1 10 -14 hvcurveto
          -11 9 -2 20 -2 20 -1 9 rcurveline
          -1 19 -2 11 58 vvcurveto
          89 vlineto
          53 48 89 67 35 15 -19 -18 4 vhcurveto
          33 hlineto
          12 77 -8 9 rlineto
          12 -11 -36 8 -24 hhcurveto
          -69 -38 -71 -50 -27 hvcurveto
          endchar
        </CharString>
        <CharString name="registered">
          156 52 29 -29 165 -18 178 135 20 93 29 hstemhm
          59 35 174 42 114 44 163 35 hintmask 1011111110000000
          354 201 rmoveto
          -2 15 rlineto
          -35 -7 27 104 hvcurveto
          31 hlineto
          -121 84 12 -27 56 10 2 2 21 hhcurveto
          hintmask 0101111110000000
          16 vlineto
          -41 -55 77 59 -43 hvcurveto
          39 11 42 29 53 vvcurveto
          49 -30 37 -92 vhcurveto
          -120 -20 hlineto
          37 -2 5 -30 -36 vvcurveto
          -133 vlineto
          -65 0 -26 -42 -3 vhcurveto
          -1 -16 rlineto
          hintmask 1011111110000000
          103 176 rmoveto
          -9 -9 0 14 hvcurveto
          111 46 vlineto
          42 26 -23 -36 -41 -22 -25 -47 hvcurveto
          7 277 -81 callsubr
        </CharString>
        <CharString name="ring">
          -405 538 24 97 24 hstem
          0 37 89 38 vstem
          82 683 rmoveto
          -52 -30 -36 -37 -34 27 -38 56 53 28 35 35 37 -30 13 callsubr
          15 25 29 27 18 -27 -24 -22 -17 -24 -26 hvcurveto
          endchar
        </CharString>
        <CharString name="s">
          -130 -11 41 407 38 -91 callsubr
          endchar
        </CharString>
        <CharString name="scaron">
          -130 -11 41 407 38 198 -20 -91 callsubr
          -42 280 rmoveto
          111 99 2 6 11 callsubr
          -6 111 -99 rlineto
          endchar
        </CharString>
        <CharString name="schwa">
          -44 -11 45 123 47 216 55 hstem
          403 76 vstem
          38 171 rmoveto
          -154 24 114 -28 70 hhcurveto
          130 103 99 146 143 -98 98 -140 -72 -62 -25 -25 -32 hvcurveto
          -10 -11 rlineto
          -18 vlineto
          10 -6 rlineto
          23 40 51 7 41 hhcurveto
          140 56 -89 -101 -8 0 -9 -1 -9 hvcurveto
          -118 hlineto
          -73 -78 -2 -72 hhcurveto
          -16 -7 rlineto
          200 -161 rmoveto
          -61 -41 31 50 -15 hvcurveto
          -2 6 -2 7 8 vvcurveto
          11 5 9 17 1 vhcurveto
          4 74 67 2 71 hhcurveto
          39 hlineto
          -70 -14 -53 -59 -85 hhcurveto
          endchar
        </CharString>
        <CharString name="section">
          -147 -60 57 651 60 hstemhm
          50 47 -8 56 130 46 0 55 hintmask 11101000
          321 249 rmoveto
          -27 -4 -13 -27 -21 vhcurveto
          -168 138 -25 32 30 vvcurveto
          17 8 15 26 25 vhcurveto
          180 -146 10 -12 -38 vvcurveto
          -30 342 rmoveto
          43 81 -2 8 rlineto
          20 -25 -26 8 -30 hhcurveto
          hintmask 11011000
          -88 -74 -81 -82 -25 6 -26 15 -23 hvcurveto
          hintmask 11101000
          -44 -53 -16 -31 -50 vvcurveto
          -47 15 -38 89 -68 vhcurveto
          58 -43 63 -39 -47 vvcurveto
          -37 -32 -21 -34 -29 -32 17 39 -10 vhcurveto
          -3 1 -50 -67 1 -6 rlineto
          -29 32 23 -12 35 hhcurveto
          81 64 68 98 17 -1 12 -10 23 hvcurveto
          hintmask 11010100
          43 45 23 38 39 vvcurveto
          49 -36 50 -75 68 vhcurveto
          -42 38 -78 44 59 vvcurveto
          41 27 19 32 31 35 -20 -37 16 vhcurveto
          endchar
        </CharString>
        <CharString name="semicolon">
          -336 -76 -21 458 94 hstemhm
          71 89 -73 73 hintmask 11100000
          71 408 rmoveto
          -3 callsubr
          5 -505 rmoveto
          27 13 57 63 61 vvcurveto
          15 -3 28 -22 -24 -35 -11 -22 vhcurveto
          hintmask 11010000
          -21 11 -14 -14 vvcurveto
          -17 -4 -32 -19 -39 vhcurveto
          -4 vlineto
          6 -6 rlineto
          endchar
        </CharString>
        <CharString name="seven">
          -57 -25 callgsubr
          606 48 8 -20 hstemhm
          hintmask 10100000
          204 7 rmoveto
          24 82 25 63 30 67 34 76 157 300 27 31 5 25 rcurveline
          -5 3 rlineto
          -137 hlineto
          hintmask 10010000
          -86 -113 3 5 -106 hvcurveto
          hintmask 10100000
          -8 -8 -15 -108 5 -7 rlineto
          18 hlineto
          6 5 rlineto
          56 10 19 6 158 hhcurveto
          136 hlineto
          -67 callgsubr
          -30 -153 -298 -154 -270 vhcurveto
          7 -10 rlineto
          hintmask 01100000
          3 27 47 3 32 hhcurveto
          endchar
        </CharString>
        <CharString name="six">
          -25 -11 53 304 55 211 53 hstem
          67 69 291 68 vstem
          138 337 rmoveto
          -1 13 -1 13 14 vvcurveto
          106 42 129 127 41 51 -12 -45 27 vhcurveto
          18 hlineto
          15 63 rlineto
          38 -40 -77 9 -42 hhcurveto
          -191 -40 -198 -164 -190 55 -124 161 153 59 112 99 72 -31 129 -180 -41 -59 -7 -58 -43 hvcurveto
          148 10 rmoveto
          115 23 -83 -61 -93 -54 -67 -91 -109 -27 98 63 86 48 57 95 hvcurveto
          endchar
        </CharString>
        <CharString name="slash">
          -135 -36 -21 759 -20 hstem
          40 -57 rmoveto
          78 hlineto
          3 4 21 89 40 114 37 99 rlinecurve
          68 184 25 67 39 115 44 83 rlinecurve
          -1 4 rlineto
          -78 hlineto
          -3 -4 -18 -83 -41 -114 -25 -68 rlinecurve
          -67 -184 -36 -99 -42 -114 -44 -89 rlinecurve
          endchar
        </CharString>
        <CharString name="space">
          -329 endchar
        </CharString>
        <CharString name="sterling">
          -38 -23 -21 45 44 225 42 162 -20 158 53 hstemhm
          134 91 -72 72 hintmask 11111010
          70 312 rmoveto
          -20 -42 rlineto
          102 hlineto
          1 -11 0 -10 -10 vvcurveto
          -71 -22 -65 -88 -69 vhcurveto
          -23 vlineto
          10 -10 rlineto
          123 187 -12 -33 59 hvcurveto
          9 10 37 139 rlineto
          -27 hlineto
          -5 -6 rlineto
          -51 -15 -7 -19 -81 hhcurveto
          -19 -56 7 9 -119 hvcurveto
          -2 3 rlineto
          71 33 17 85 93 vvcurveto
          11 137 vlineto
          10 42 rlineto
          -149 hlineto
          -3 57 -6 55 42 vvcurveto
          85 25 61 84 72 29 -45 -89 8 vhcurveto
          4 -4 rlineto
          27 hlineto
          13 91 rlineto
          76 -33 -75 24 -57 hhcurveto
          hintmask 11111100
          -113 -64 -81 -127 -46 8 -51 6 -48 hvcurveto
          endchar
        </CharString>
        <CharString name="t">
          -243 -11 45 379 45 158 -20 hstem
          101 65 vstem
          301 418 rmoveto
          39 vlineto
          -5 4 -130 -6 rlineto
          53 4 68 7 36 vhcurveto
          -9 4 -9 -5 -32 -5 -10 -1 rlinecurve
          -14 -1 -7 -6 rlineto
          3 -46 2 -51 -46 vvcurveto
          -72 -14 -4 -4 rlineto
          -19 vlineto
          4 -5 rlineto
          72 hlineto
          -1 -172 -5 -127 -25 vvcurveto
          -58 26 -42 67 29 42 10 21 31 vhcurveto
          9 28 -9 7 rlineto
          -11 -19 -34 -10 -23 hhcurveto
          -27 -23 13 52 hvcurveto
          15 2 126 173 vvcurveto
          130 hlineto
          endchar
        </CharString>
        <CharString name="thorn">
          12 -239 -21 249 55 374 57 265 -20 hstem
          82 66 310 76 vstem
          6 -9 callsubr
          2 -43 1 -32 -106 vvcurveto
          -509 vlineto
          -89 -1 -28 -2 -76 callgsubr
          92 vlineto
          -71 41 61 -27 65 -31 callgsubr
          -68 -57 -37 -54 -38 hvcurveto
          16 0 198 3 87 vhcurveto
          1 22 2 14 3 10 -5 9 rcurveline
          -39 10 callsubr
          452 -491 -33 callsubr
        </CharString>
        <CharString name="three">
          -25 -11 53 290 37 105 -20 158 53 hstemhm
          412 42 -42 76 hintmask 11110100
          101 147 rmoveto
          -3 4 rlineto
          -33 hlineto
          -11 -62 1 -9 rlineto
          -62 43 63 -29 85 hhcurveto
          145 97 82 118 83 -51 71 -80 14 hvcurveto
          4 vlineto
          hintmask 11111000
          44 15 53 53 82 vvcurveto
          104 -92 50 -91 -106 -64 -58 -52 -28 vhcurveto
          -2 -9 12 -72 rlineto
          33 hlineto
          10 callgsubr
          82 10 28 52 95 hhcurveto
          97 28 -53 -55 -69 -44 -66 -77 hvcurveto
          -18 hlineto
          -5 -5 3 -28 -67 callgsubr
          32 hlineto
          94 44 -75 -72 -63 -35 -80 -121 -98 -55 52 53 -2 hvcurveto
          endchar
        </CharString>
        <CharString name="threeinferior">
          -225 -7 17 callsubr
          hstemhm
          88 137 0 43 -25 43 hintmask 11110100
          78 99 -85 callsubr
        </CharString>
        <CharString name="threequarters">
          150 -6 -12 callgsubr
          152 17 callsubr
          8 -20 hstemhm
          89 137 0 43 -24 42 288 44 hintmask 1001101101100000
          99 19 rmoveto
          76 hlineto
          5 4 54 89 46 -56 callsubr
          48 66 55 79 73 81 rlinecurve
          1 8 callgsubr
          -4 -4 -48 -82 -55 -77 -49 -67 rlinecurve
          -121 -165 -73 -99 -48 -67 -76 -89 rlinecurve
          -21 380 rmoveto
          -21 hlineto
          -5 -44 rlineto
          -38 23 32 -24 51 hhcurveto
          79 49 62 56 38 -22 36 -49 11 hvcurveto
          hintmask 1001110010100000
          37 19 16 29 29 vvcurveto
          46 -40 42 -67 -62 -23 -31 -28 -14 vhcurveto
          5 -44 rlineto
          22 hlineto
          hintmask 0111110101100000
          -1 4 0 3 3 vvcurveto
          43 35 19 34 34 34 -19 -40 -33 -23 -35 -41 -1 vhcurveto
          -6 -21 rlineto
          15 hlineto
          49 25 -38 -38 -53 -43 -26 -43 -38 -36 19 54 -6 hvcurveto
          356 -290 -45 callgsubr
          hintmask 1001110101100000
          10 40 2 10 hhcurveto
          38 hlineto
          hintmask 0111110101100000
          10 35 -2 10 hhcurveto
          -2 12 rlineto
          -49 -1 25 84 hvcurveto
          39 hlineto
          4 3 8 26 -3 3 rlineto
          -48 -89 callgsubr
        </CharString>
        <CharString name="threesuperior">
          -231 297 17 callsubr
          hstemhm
          90 137 0 43 -25 43 hintmask 11110100
          80 403 -85 callsubr
        </CharString>
        <CharString name="tilde">
          -258 586 59 -49 -21 25 45 -45 59 12 -20 hstemhm
          hintmask 01101000
          311 663 -63 callgsubr
          hhcurveto
          hintmask 01010000
          -87 callgsubr
          hintmask 10001000
          -65 callgsubr
          endchar
        </CharString>
        <CharString name="trademark">
          214 395 -21 251 28 6 -20 hstemhm
          173 41 159 22 227 43 hintmask 11011100
          253 392 rmoveto
          -32 -7 6 73 hvcurveto
          85 vlineto
          36 1 17 16 vvcurveto
          4 hlineto
          41 7 -2 -3 5 hvcurveto
          6 -3 3 -8 2 -11 20 -1 rcurveline
          -4 59 rlineto
          hintmask 10111100
          -3 3 rlineto
          hintmask 11011100
          -5 -8 -58 -1 -14 hhcurveto
          -45 hlineto
          hintmask 10111100
          -14 -59 1 5 -9 hvcurveto
          hintmask 11011100
          -4 -6 rlineto
          -56 vlineto
          17 1 2 11 4 8 6 3 rlinecurve
          3 4 5 2 44 hhcurveto
          4 hlineto
          1 -15 1 -20 -34 vvcurveto
          -93 vlineto
          -57 -2 -14 -37 vhcurveto
          -2 -18 rlineto
          8 27 2 8 hhcurveto
          35 hlineto
          7 31 -2 7 hhcurveto
          449 18 rmoveto
          -5 -4 -1 -4 hhcurveto
          -15 -6 7 73 -5 hvcurveto
          -6 85 rlineto
          -2 23 0 13 9 vvcurveto
          32 1 5 15 vhcurveto
          18 18 hlineto
          -8 -30 -3 -8 hhcurveto
          -31 hlineto
          -5 -6 1 2 -3 hvcurveto
          -12 -48 -70 -171 -5 -8 rrcurveto
          53 -25 -54 174 2 hhcurveto
          -2 -6 -18 -1 -4 hhcurveto
          -19 hlineto
          -9 -30 3 -8 hhcurveto
          2 -19 rlineto
          6 4 1 6 hhcurveto
          10 6 -3 -17 -12 -1 -13 -2 -37 hvcurveto
          -6 -93 rlineto
          -57 -4 -9 -14 -25 hhcurveto
          -3 -18 rlineto
          7 28 2 8 hhcurveto
          16 hlineto
          8 24 -2 8 hhcurveto
          -3 18 rlineto
          -17 -10 0 34 7 1 6 2 32 hvcurveto
          5 85 rlineto
          2 32 3 12 10 vvcurveto
          79 -228 rlineto
          40 hlineto
          23 55 54 146 13 28 10 -148 rcurveline
          1 -19 2 -15 -9 vvcurveto
          -23 -13 -5 -17 vhcurveto
          -2 -18 rlineto
          7 31 2 8 hhcurveto
          17 hlineto
          8 30 -2 8 hhcurveto
          endchar
        </CharString>
        <CharString name="two">
          -33 0 48 -33 -21 480 -20 158 53 hstemhm
          392 73 hintmask 01111000
          72 474 rmoveto
          34 hlineto
          10 callgsubr
          89 5 60 45 87 hhcurveto
          73 57 -41 -66 -48 -23 -41 -31 -43 hvcurveto
          -77 -107 -157 -163 -58 -75 rrcurveto
          -23 vlineto
          10 -11 rlineto
          hintmask 10111000
          28 callsubr
          99 hlineto
          hintmask 01111000
          35 142 -19 callsubr
          -5 -6 rlineto
          hintmask 10111000
          -76 -19 -18 -3 -161 hhcurveto
          -78 hlineto
          -2 3 rlineto
          29 143 142 74 101 vhcurveto
          44 59 34 49 62 vvcurveto
          105 -57 67 -140 -109 -64 -54 -56 -32 vhcurveto
          -3 -9 rlineto
          endchar
        </CharString>
        <CharString name="twoinferior">
          -229 0 28 callgsubr
          hstemhm
          86 142 0 47 hintmask 01110000
          63 246 -83 callgsubr
        </CharString>
        <CharString name="twosuperior">
          -214 306 28 callgsubr
          hstemhm
          97 142 0 47 hintmask 01110000
          74 552 -83 callgsubr
        </CharString>
        <CharString name="u">
          7 callgsubr
          464 -23 callsubr
          432 84 -107 callsubr
        </CharString>
        <CharString name="uacute">
          7 callgsubr
          680 -23 callsubr
          201 549 rmoveto
          202 77 rlineto
          2 7 1 1 callgsubr
          -12 15 -21 callsubr
          -101 -3 -7 5 -20 rlineto
          239 -468 -107 callsubr
        </CharString>
        <CharString name="ucircumflex">
          7 callgsubr
          673 -23 callsubr
          285 673 15 callsubr
          21 callsubr
          -2 24 callgsubr
          140 -589 -107 callsubr
        </CharString>
        <CharString name="udieresis">
          7 callgsubr
          582 89 hstemhm
          91 69 8 83 74 83 24 66 hintmask 01111110
          432 84 rmoveto
          -3 -29 -5 -31 -4 -17 6 -10 rcurveline
          -71 callsubr
          27 29 -2 -2 24 hvcurveto
          -14 callgsubr
          14 -4 20 callsubr
          -23 1 10 -11 hvcurveto
          -9 7 -3 12 -3 30 rrcurveto
          -1 -71 callgsubr
          11 22 -96 callsubr
          -24 -63 callsubr
          -14 vlineto
          -1 callgsubr
          -1 -16 13 hvcurveto
          4 -4 6 -54 callgsubr
          2 -27 2 -17 -56 vvcurveto
          -130 vlineto
          hintmask 10111110
          -45 -11 -58 -74 -82 hhcurveto
          -54 -46 31 62 -13 hvcurveto
          -6 27 -2 41 29 36 3 70 45 -96 callsubr
          -25 -95 callsubr
          -3 8 callsubr
          3 -4 rlineto
          21 22 -1 -15 13 hvcurveto
          4 -5 9 -13 -14 vvcurveto
          -23 0 -96 1 -35 vhcurveto
          1 -38 -2 -40 6 -34 rrcurveto
          -100 18 72 -31 76 hhcurveto
          78 53 41 56 35 hvcurveto
          -261 540 -104 callgsubr
        </CharString>
        <CharString name="ugrave">
          7 callgsubr
          680 -23 callsubr
          363 552 -8 callgsubr
          3 -7 vhcurveto
          201 -77 rlineto
          77 -465 -107 callsubr
        </CharString>
        <CharString name="underscore">
          -106 -52 52 hstem
          15 hmoveto
          -52 433 52 vlineto
          endchar
        </CharString>
        <CharString name="uni00A0">
          -329 endchar
        </CharString>
        <CharString name="uni00AD">
          -98 213 52 hstem
          76 265 -31 callsubr
          endchar
        </CharString>
        <CharString name="uni03BC">
          39 14 callgsubr
          101 68 272 66 hintmask 11011100
          124 -101 callsubr
        </CharString>
        <CharString name="uni2215">
          -57 40 -21 654 -20 hstem
          -15 -90 callsubr
          endchar
        </CharString>
        <CharString name="uni2219">
          -342 197 94 hstem
          67 94 vstem
          67 243 rmoveto
          -73 callsubr
        </CharString>
        <CharString name="v">
          -54 16 -21 464 -20 hstem
          143 238 vstem
          293 hmoveto
          51 128 11 28 64 181 38 63 rlinecurve
          14 24 16 9 23 3 6 5 rcurveline
          14 vlineto
          -53 callgsubr
          -3 -25 -22 -3 -22 hhcurveto
          -41 hlineto
          -22 -25 2 4 -26 hvcurveto
          -62 callgsubr
          26 -3 26 -7 -29 vvcurveto
          -58 -54 -123 -18 -45 vhcurveto
          -48 -115 -49 130 rlineto
          -10 26 -59 154 31 vvcurveto
          24 22 12 29 3 -55 callsubr
          -3 -26 -34 -3 -21 hhcurveto
          -39 hlineto
          -21 -28 3 3 -22 9 callgsubr
          -14 vlineto
          6 -5 28 -3 15 -12 13 -21 rlinecurve
          6 -10 6 -13 6 -15 26 -65 46 -112 9 -25 60 -160 rcurveline
          10 -5 rlineto
          endchar
        </CharString>
        <CharString name="w">
          250 16 -21 464 -20 hstem
          449 238 vstem
          536 -5 rmoveto
          61 5 51 128 12 28 63 181 38 63 rlinecurve
          14 24 16 9 24 23 callgsubr
          -20 -3 -22 hhcurveto
          -41 hlineto
          -22 -24 2 4 -27 hvcurveto
          -62 callgsubr
          27 -3 25 -7 -29 vvcurveto
          -58 -54 -123 -18 -45 vhcurveto
          -48 -115 -49 130 rlineto
          -9 25 -60 155 31 vvcurveto
          24 16 12 28 3 -55 callsubr
          -4 -25 -25 -2 -21 hhcurveto
          -39 hlineto
          -21 -19 3 3 -22 9 callgsubr
          -14 vlineto
          6 -5 42 -6 8 -30 7 -25 rlinecurve
          -11 -64 -44 -98 -16 -39 -48 -115 rcurveline
          -49 130 rlineto
          -9 25 -60 155 31 vvcurveto
          24 22 12 29 3 -55 callsubr
          -3 -26 -34 -3 -21 hhcurveto
          -39 hlineto
          -21 -28 3 3 -22 9 callgsubr
          -14 vlineto
          6 -5 28 -3 15 -12 13 -21 rlinecurve
          6 -10 6 -13 6 -15 26 -65 47 -115 8 -22 60 -160 rcurveline
          10 -5 61 5 51 128 8 19 30 83 29 74 rlinecurve
          118 -304 rlineto
          endchar
        </CharString>
        <CharString name="x">
          -44 16 -21 26 -21 459 -20 hstemhm
          144 215 hintmask 01110000
          175 410 rmoveto
          22 22 5 27 2 -55 callsubr
          -3 -26 -30 -3 -21 hhcurveto
          -39 hlineto
          -21 -32 3 3 -22 9 callgsubr
          -14 vlineto
          6 -5 31 -3 19 -13 16 -20 rlinecurve
          52 -65 40 -56 32 -43 -50 -73 -50 -64 -22 -29 -29 -37 -12 -7 -42 -7 -6 -5 rcurveline
          -14 vlineto
          4 -4 rlineto
          3 25 23 1 22 hhcurveto
          41 hlineto
          22 14 0 -4 27 hvcurveto
          10 callgsubr
          12 vlineto
          hintmask 10110000
          -53 callgsubr
          -30 5 -18 6 22 vvcurveto
          12 57 74 53 64 vhcurveto
          89 -120 15 -27 -14 vvcurveto
          -11 -18 -11 -23 -1 vhcurveto
          -62 callgsubr
          3 26 31 3 21 hhcurveto
          39 hlineto
          21 32 -3 -3 22 hvcurveto
          10 callgsubr
          14 vlineto
          -6 5 -42 6 -20 18 -19 25 rlinecurve
          -4 3 -64 81 -62 83 35 50 24 31 47 65 27 39 22 11 42 6 6 5 rcurveline
          14 vlineto
          -53 callgsubr
          -3 -26 -22 -3 -22 hhcurveto
          -41 hlineto
          -22 -15 2 4 -27 hvcurveto
          -62 callgsubr
          30 -5 9 -2 -26 vvcurveto
          -11 -39 -64 -50 -62 vhcurveto
          -52 68 -43 62 11 vvcurveto
          endchar
        </CharString>
        <CharString name="y">
          -55 -239 -21 719 -20 hstem
          143 238 vstem
          -105 callsubr
          endchar
        </CharString>
        <CharString name="yacute">
          -55 -239 -21 940 -20 hstem
          143 238 vstem
          -105 callsubr
          167 778 -32 callgsubr
        </CharString>
        <CharString name="ydieresis">
          -55 -239 -21 713 129 0 89 hstemhm
          137 83 -77 238 -87 83 hintmask 11001000
          -105 callsubr
          hintmask 10110100
          96 855 -104 callgsubr
        </CharString>
        <CharString name="yen">
          133 -25 callgsubr
          210 44 53 44 309 -20 hstemhm
          313 70 hintmask 10111100
          553 307 rmoveto
          44 -135 vlineto
          28 51 34 59 63 93 39 58 22 13 60 9 4 4 rcurveline
          18 vlineto
          -53 callgsubr
          -5 -37 -23 -1 -32 hhcurveto
          -58 hlineto
          -32 -21 0 6 -39 9 callgsubr
          -18 vlineto
          4 -4 rlineto
          30 -7 41 5 -33 vvcurveto
          -11 -7 -18 -3 -6 vhcurveto
          -12 -30 -67 -125 -45 -77 -50 87 -40 74 -48 88 rrcurveto
          -4 6 -6 11 7 vvcurveto
          5 5 7 7 5 vhcurveto
          12 8 20 3 27 1 4 4 rcurveline
          18 vlineto
          -53 callgsubr
          -4 -37 -44 -4 -31 hhcurveto
          -42 hlineto
          -30 -27 4 4 -32 hvcurveto
          -5 -4 rlineto
          -18 vlineto
          8 -4 27 -3 20 -4 15 -12 rlinecurve
          9 -8 14 -16 9 -14 47 -71 53 -87 40 -68 rrcurveto
          -133 -44 158 hlineto
          5 -13 6 -15 1 -25 rrcurveto
          -170 -44 170 hlineto
          -78 -39 callgsubr
          -11 -9 rrcurveto
          -9 -11 -21 -35 callsubr
          -5 -4 -2 -18 -43 callsubr
          hintmask 01111100
          1 19 75 -28 callgsubr
          hintmask 10111100
          19 74 -98 callsubr
          -5 20 callsubr
          -21 1 3 callgsubr
          -11 9 -11 6 callsubr
          28 -1 19 76 vvcurveto
          170 44 -170 hlineto
          25 5 18 5 10 vhcurveto
          endchar
        </CharString>
        <CharString name="z">
          -81 0 44 -27 -21 422 43 hstemhm
          hintmask 01100000
          57 345 -42 callsubr
          hintmask 10100000
          2 24 58 2 20 hhcurveto
          32 hlineto
          hintmask 01100000
          -3 callgsubr
          hintmask 10100000
          -68 callgsubr
        </CharString>
        <CharString name="zcaron">
          -81 0 44 -27 -21 422 43 212 -20 hstemhm
          hintmask 01110000
          245 545 -85 callgsubr
          -180 -200 -42 callsubr
          hintmask 10110000
          2 24 58 2 20 hhcurveto
          32 hlineto
          hintmask 01110000
          -3 callgsubr
          hintmask 10110000
          -68 callgsubr
        </CharString>
        <CharString name="zero">
          77 -10 callsubr
          hstem
          58 78 376 77 vstem
          323 21 callgsubr
          -167 -98 -153 -190 -179 88 -154 172 177 94 2 callgsubr
          180 -98 156 -168 hvcurveto
          -4 callsubr
          -109 -77 109 178 162 64 121 119 119 74 -123 -161 -156 -70 -130 -120 hvcurveto
          endchar
        </CharString>
        <CharString name="zeroinferior">
          -168 -7 38 292 38 hstem
          56 19 callgsubr
          vstem
          201 361 -93 callsubr
          endchar
        </CharString>
        <CharString name="zerosuperior">
          -182 297 38 292 38 hstem
          49 19 callgsubr
          vstem
          194 665 -93 callsubr
          endchar
        </CharString>
      <CharString index="0">
        rmoveto
        -29 -74 -103 callsubr
        -67 callgsubr
        21 20 -75 callgsubr
        10 -9 13 -30 callsubr
        0 -29 -93 -90 callgsubr
        -28 callsubr
        -3 -37 -12 -11 -61 callsubr
        -99 callsubr
        hintmask 10011111
        1 19 74 5 19 hhcurveto
        202 hlineto
        hintmask 00111111
        35 97 -4 12 hhcurveto
        8 10 18 127 rlineto
        -26 hlineto
        -4 -4 rlineto
        hintmask 10011111
        -73 -18 -8 -8 -161 hhcurveto
        -85 hlineto
        -14 -6 5 14 hvcurveto
        -5 51 0 18 95 vvcurveto
        97 vlineto
        84 -1 79 4 16 -17 rrcurveto
        11 -12 9 -19 -21 vvcurveto
        -59 callgsubr
        -2 4 2 rlineto
        -2 32 -3 25 32 vvcurveto
        29 3 20 2 30 vhcurveto
        -4 2 -17 -2 -5 -5 rlineto
        -20 -10 -8 -10 -11 vhcurveto
        -15 -19 -83 4 -81 -2 rrcurveto
        49 vlineto
        96 1 9 callsubr
        2 39 rlineto
        96 hlineto
        160 4 -1 -62 4 hvcurveto
        4 -4 rlineto
        25 hlineto
        4 109 25 callsubr
        -12 -29 callsubr
        return
      </CharString>
      <CharString index="1">
        rmoveto
        -71 callsubr
        27 29 -2 -2 24 hvcurveto
        1 4 -1 14 -4 20 callsubr
        -23 1 10 -11 hvcurveto
        -9 7 -3 12 -3 30 rrcurveto
        81 4 51 113 vvcurveto
        101 -73 51 -96 -70 -75 -27 -15 -14 vhcurveto
        -3 -6 9 -74 rlineto
        22 hlineto
        4 3 rlineto
        62 5 65 12 42 hhcurveto
        50 38 -17 -40 15 hvcurveto
        7 -19 4 -26 1 -49 rrcurveto
        -14 hlineto
        -25 -132 -4 -44 -70 hvcurveto
        -37 -24 -25 -37 -49 vvcurveto
        return
      </CharString>
      <CharString index="2">
        382 21 callgsubr
        -206 -121 -153 -190 -179 108 -154 212 219 115 2 callgsubr
        180 -119 156 -208 hvcurveto
        -4 callsubr
        -146 -102 109 178 162 85 121 158 159 97 -123 -161 -156 -92 -130 -159 hvcurveto
        return
      </CharString>
      <CharString index="3">
        rmoveto
        -97 callgsubr
        157 hmoveto
        -97 callgsubr
        endchar
      </CharString>
      <CharString index="4">
        -101 callgsubr
        7 -54 callgsubr
        return
      </CharString>
      <CharString index="5">
        -70 44 -62 83 72 61 47 48 35 vhcurveto
        1 -3 -4 -25 -1 -34 -4 -15 rlinecurve
        108 vmoveto
        -28 -20 -62 -43 -55 hhcurveto
        -47 -32 32 51 97 116 20 107 hvcurveto
        9 hlineto
        -5 -100 -1 -13 -6 -9 -4 -7 rlinecurve
        return
      </CharString>
      <CharString index="6">
        -35 -54 callsubr
        -25 -63 callsubr
        -14 vlineto
        -1 callgsubr
        -1 -16 13 hvcurveto
        4 -4 return
      </CharString>
      <CharString index="7">
        2 -27 1 -17 -56 vvcurveto
        -123 vlineto
        -48 -1 -15 -2 -22 vhcurveto
        -3 -27 -2 -13 -61 callsubr
        -10 -11 -23 -35 callsubr
        -4 -4 return
      </CharString>
      <CharString index="8">
        rmoveto
        -1 callgsubr
        -1 -16 13 hvcurveto
        4 -4 8 -13 1 -15 rrcurveto
        3 -46 0 -108 -27 vvcurveto
        -27 -2 -213 -1 -26 vhcurveto
        -1 -63 -6 -53 -30 -32 rrcurveto
        -22 -20 -19 -2 -27 hhcurveto
        -4 -5 2 -19 8 -2 rlineto
        13 10 0 3 13 hvcurveto
        85 25 45 103 125 vvcurveto
        236 vlineto
        92 1 30 1 24 vhcurveto
        1 18 1 48 4 11 -5 -40 callgsubr
        return
      </CharString>
      <CharString index="9">
        27 13 57 63 61 vvcurveto
        15 -3 28 -22 -24 -35 -11 -22 vhcurveto
        -21 11 -14 -14 vvcurveto
        -17 -4 -32 -19 -39 vhcurveto
        -4 vlineto
        6 -6 rlineto
        return
      </CharString>
      <CharString index="10">
        -25 18 -19 23 22 20 19 25 24 -20 21 -22 -23 -18 -21 -24 vhcurveto
        return
      </CharString>
      <CharString index="11">
        -100 callgsubr
        -1 -14 return
      </CharString>
      <CharString index="12">
        -35 callsubr
        -5 -92 callsubr
        return
      </CharString>
      <CharString index="13">
        -96 callgsubr
        rlineto
        return
      </CharString>
      <CharString index="14">
        19 hvcurveto
        2 -59 callgsubr
        return
      </CharString>
      <CharString index="15">
        50 -88 callsubr
        return
      </CharString>
      <CharString index="16">
        -5 5 -43 callgsubr
        9 -11 13 callgsubr
        return
      </CharString>
      <CharString index="17">
        -77 callsubr
        -79 -1 -25 return
      </CharString>
      <CharString index="18">
        hlineto
        166 2 21 2 21 vhcurveto
        -7 5 -58 -8 -134 -219 6 -15 rlineto
        143 197 rmoveto
        1 -27 1 -43 -98 vvcurveto
        -101 hlineto
        endchar
      </CharString>
      <CharString index="19">
        rmoveto
        202 77 rlineto
        3 7 1 1 callgsubr
        -13 15 -21 callsubr
        -101 25 callgsubr
        return
      </CharString>
      <CharString index="20">
        -50 -26 14 -67 hhcurveto
        -57 -22 -40 -36 -12 hvcurveto
        13 -8 rlineto
        16 13 9 9 33 hhcurveto
        return
      </CharString>
      <CharString index="21">
        28 -2 11 58 vvcurveto
        112 vlineto
        return
      </CharString>
      <CharString index="22">
        rmoveto
        110 99 3 6 -6 20 -7 3 -104 -62 -104 62 -7 -3 -6 -20 3 -6 110 -99 rlineto
        return
      </CharString>
      <CharString index="23">
        hstem
        54 80 vstem
        551 535 rmoveto
        3 -4 rlineto
        29 hlineto
        13 91 -3 9 rlineto
        27 -68 -86 7 -49 hhcurveto
        -220 -116 -153 -188 -200 133 -135 199 70 66 16 36 66 hvcurveto
        22 45 -10 11 rlineto
        -44 -63 -79 -12 -54 hhcurveto
        -155 -115 99 188 99 32 89 62 51 hvcurveto
        31 39 51 14 66 hhcurveto
        75 83 -18 -59 9 hvcurveto
        return
      </CharString>
      <CharString index="24">
        rmoveto
        23 hlineto
        51 4 28 24 47 hhcurveto
        50 13 -27 -29 -66 -130 -120 -50 -64 hvcurveto
        -12 vlineto
        5 -6 rlineto
        hintmask 10110000
        1 19 21 2 16 hhcurveto
        54 hlineto
        hintmask 01110000
        19 77 -3 9 hhcurveto
        5 5 9 80 rlineto
        -14 hlineto
        hintmask 10101000
        -45 -13 -10 -2 -87 hhcurveto
        -33 hlineto
        32 150 105 94 vvcurveto
        57 -32 36 -75 -59 -35 -29 -30 -17 vhcurveto
        endchar
      </CharString>
      <CharString index="25">
        175 376 rmoveto
        1 28 3 34 6 17 -6 9 rcurveline
        -103 callgsubr
        3 -27 0 -35 callgsubr
        return
      </CharString>
      <CharString index="26">
        62 -4 8 5 rlineto
        -5 64 -2 30 149 vvcurveto
        176 -37 callsubr
        3 37 vhcurveto
        3 37 9 11 11 9 rrcurveto
        9 11 -73 callgsubr
        5 4 2 18 rlineto
        return
      </CharString>
      <CharString index="27">
        73 81 rlinecurve
        1 8 callgsubr
        -5 -4 -46 -83 -57 -75 -49 -68 rlinecurve
        -120 -165 -72 -100 -50 -66 -75 -89 rlinecurve
        472 334 27 callgsubr
        52 89 96 98 -53 85 -93 hvcurveto
        -330 vmoveto
        -55 -40 56 91 83 33 62 60 61 38 -63 -82 -81 -35 -66 -62 hvcurveto
        return
      </CharString>
      <CharString index="28">
        361 665 -78 callsubr
        return
      </CharString>
      <CharString index="29">
        96 1 19 4 76 vhcurveto
        138 hlineto
        159 94 -117 -161 -156 -88 -124 -160 hvcurveto
        return
      </CharString>
      <CharString index="30">
        19 64 -3 -48 callsubr
        return
      </CharString>
      <CharString index="31">
        -34 vhcurveto
        -2 -26 -3 -14 -10 -8 rrcurveto
        -11 -11 -23 -35 callsubr
        -4 -3 -1 -15 1 -3 rlineto
        -5 callgsubr
        19 hhcurveto
        2 3 -2 14 -5 4 -43 callgsubr
        10 -11 hvcurveto
        -10 8 -2 13 -3 27 rrcurveto
        -2 46 -2 20 108 vvcurveto
        return
      </CharString>
      <CharString index="32">
        -1 -9 12 hvcurveto
        return
      </CharString>
      <CharString index="33">
        -73 -11 55 -23 -21 244 231 -45 45 return
      </CharString>
      <CharString index="34">
        21 -34 callgsubr
        return
      </CharString>
      <CharString index="35">
        rmoveto
        -26 21 -21 26 26 23 21 26 26 -23 23 -26 -26 -21 -23 -26 vhcurveto
        return
      </CharString>
      <CharString index="36">
        -86 callgsubr
        58 2 return
      </CharString>
      <CharString index="37">
        -44 callsubr
        71 return
      </CharString>
      <CharString index="38">
        -76 -19 -27 -3 -238 hhcurveto
        -80 hlineto
        -5 3 27 83 287 418 73 74 rlinecurve
        5 25 -8 11 rlineto
        -5 -23 -43 -3 -16 hhcurveto
        -66 hlineto
        -35 -120 0 8 -169 hvcurveto
        -8 -8 -16 -108 rlineto
        endchar
      </CharString>
      <CharString index="39">
        -72 -26 -9 -5 -160 hhcurveto
        -51 hlineto
        -4 4 54 105 157 232 51 52 rlinecurve
        3 16 -6 8 rlineto
        -4 -16 -30 -2 -12 hhcurveto
        -45 hlineto
        -25 -123 0 6 -118 hvcurveto
        -3 -6 -8 -105 rlineto
        endchar
      </CharString>
      <CharString index="40">
        5 -4 rlineto
        return
      </CharString>
      <CharString index="41">
        81 -21 361 -20 hstem
        53 411 rmoveto
        58 -59 38 -51 43 -61 -43 -60 -38 -51 -58 -59 4 -10 rcurveline
        58 hlineto
        8 4 31 50 34 43 67 83 rlinecurve
        -67 84 -34 43 -31 50 -8 4 rcurveline
        -58 hlineto
        return
      </CharString>
      <CharString index="42">
        42 60 -14 53 hhcurveto
        55 25 41 36 8 hvcurveto
        return
      </CharString>
      <CharString index="43">
        -44 callgsubr
        -20 7 -3 104 62 104 -62 7 3 6 20 -37 callgsubr
        return
      </CharString>
      <CharString index="44">
        rmoveto
        -12 8 rlineto
        -24 -18 -25 -2 -22 return
      </CharString>
      <CharString index="45">
        -4 -4 rlineto
        -12 vlineto
        4 -4 rlineto
        return
      </CharString>
      <CharString index="46">
        -37 -26 vvcurveto
        -260 vlineto
        -23 callgsubr
        2 -4 rlineto
        hintmask 01110110
        1 19 74 -28 callgsubr
        return
      </CharString>
      <CharString index="47">
        -13 -61 callsubr
        -10 -11 -23 -35 callsubr
        -4 -4 -1 -14 rlineto
        hintmask 10110000
        -2 callgsubr
        65 3 19 hhcurveto
        14 -40 callsubr
        hintmask 01110000
        return
      </CharString>
      <CharString index="48">
        4 -3 18 return
      </CharString>
      <CharString index="49">
        -23 -18 -21 -24 vhcurveto
        endchar
      </CharString>
      <CharString index="50">
        68 84 vstem
        68 560 -46 callsubr
        return
      </CharString>
      <CharString index="51">
        rmoveto
        95 -257 rlineto
        -191 hlineto
        return
      </CharString>
      <CharString index="52">
        49 5 -70 callgsubr
        247 69 hintmask 10110110
        290 19 callsubr
        -53 callgsubr
        -34 -8 3 7 -12 hvcurveto
        -8 7 -14 12 -2 38 rrcurveto
        -2 28 -1 return
      </CharString>
      <CharString index="53">
        -13 2 -14 rrcurveto
        return
      </CharString>
      <CharString index="54">
        -4 4 rlineto
        return
      </CharString>
      <CharString index="55">
        -4 callsubr
        -146 -102 109 178 162 85 121 158 159 97 -123 -161 -156 -92 -130 -159 hvcurveto
        endchar
      </CharString>
      <CharString index="56">
        18 callsubr
        0 -25 -2 -20 vhcurveto
        -4 return
      </CharString>
      <CharString index="57">
        -5 -19 hhcurveto
        return
      </CharString>
      <CharString index="58">
        hmoveto
        -47 callsubr
      </CharString>
      <CharString index="59">
        -29 -93 -77 callsubr
        return
      </CharString>
      <CharString index="60">
        rmoveto
        18 hlineto
        6 5 rlineto
        59 11 27 3 149 hhcurveto
        142 hlineto
        5 -5 -57 -129 -246 -365 -81 -79 rlinecurve
        -23 vlineto
        10 -11 rlineto
        return
      </CharString>
      <CharString index="61">
        46 vstem
        109 526 rmoveto
        2 4 rlineto
        67 3 72 9 57 vhcurveto
        -2 4 -67 -9 -1 -4 8 -62 3 -70 1 -64 rlinecurve
        2 -5 rlineto
        return
      </CharString>
      <CharString index="62">
        rmoveto
        140 hlineto
        -82 0 -27 -54 vhcurveto
        -3 -12 rlineto
        return
      </CharString>
      <CharString index="63">
        -29 callgsubr
        6 return
      </CharString>
      <CharString index="64">
        rlineto
        -20 -21 2 return
      </CharString>
      <CharString index="65">
        -20 -51 -1 -29 hhcurveto
        -36 hlineto
        hintmask 10101110
        -28 -45 -87 callsubr
        11 -9 return
      </CharString>
      <CharString index="66">
        -9 hlineto
        1 66 2 82 9 57 -2 4 rcurveline
        -86 hlineto
        -2 -4 8 -62 3 -79 1 -64 rlinecurve
        -10 hlineto
        -40 -21 1 11 -90 hvcurveto
        return
      </CharString>
      <CharString index="67">
        9 rcurveline
        -35 -54 callsubr
        -25 -63 callsubr
        return
      </CharString>
      <CharString index="68">
        -17 callgsubr
        -11 -11 return
      </CharString>
      <CharString index="69">
        6 6 vvcurveto
        19 -12 14 -23 1 vhcurveto
        return
      </CharString>
      <CharString index="70">
        -3 7 -110 99 rlineto
        return
      </CharString>
      <CharString index="71">
        -14 callgsubr
        13 return
      </CharString>
      <CharString index="72">
        -17 -56 vvcurveto
        -123 vlineto
        -48 -1 -15 -2 -22 vhcurveto
        -3 -27 -2 -13 -61 callsubr
        -10 -11 -23 -35 callsubr
        -4 -4 rlineto
        return
      </CharString>
      <CharString index="73">
        1 21 hhcurveto
        return
      </CharString>
      <CharString index="74">
        rmoveto
        202 77 rlineto
        2 7 1 -38 callgsubr
        -180 -100 -3 -7 5 -20 rlineto
        endchar
      </CharString>
      <CharString index="75">
        rmoveto
        202 77 rlineto
        3 7 0 1 callgsubr
        -12 5 callgsubr
      </CharString>
      <CharString index="76">
        hhcurveto
        94 125 68 181 122 -68 115 -152 return
      </CharString>
      <CharString index="77">
        59 -45 45 -45 59 12 -20 hstemhm
        return
      </CharString>
      <CharString index="78">
        rmoveto
        -110 -99 -3 -7 return
      </CharString>
      <CharString index="79">
        5 19 hhcurveto
        19 hlineto
        return
      </CharString>
      <CharString index="80">
        -8 callgsubr
        2 -7 vhcurveto
        202 -77 rlineto
        return
      </CharString>
      <CharString index="81">
        -23 callgsubr
        rlineto
        return
      </CharString>
      <CharString index="82">
        15 -21 27 -21 return
      </CharString>
      <CharString index="83">
        -19 -74 -103 callsubr
        -67 callgsubr
        21 20 -75 callgsubr
        10 -9 12 -11 return
      </CharString>
      <CharString index="84">
        -79 -1 -25 -28 callsubr
        -4 -34 -10 -16 -11 -8 rrcurveto
        -8 -12 -25 -1 -16 hhcurveto
        -5 -4 -3 -18 return
      </CharString>
      <CharString index="85">
        -110 vvcurveto
        -240 vlineto
        -92 -1 -30 return
      </CharString>
      <CharString index="86">
        -6 -8 -19 -3 -12 hhcurveto
        -3 -13 rlineto
        return
      </CharString>
      <CharString index="87">
        -4 rlineto
        38 23 -4 -38 -31 -24 -55 -30 -83 hvcurveto
        -68 -184 -27 -74 -20 -53 -15 -38 rlinecurve
        return
      </CharString>
      <CharString index="88">
        243 rmoveto
        -38 30 -29 38 35 33 29 38 36 -33 33 -35 -38 -30 -33 -36 vhcurveto
        endchar
      </CharString>
      <CharString index="89">
        265 rmoveto
        -10 -52 rlineto
        405 hlineto
        9 52 rlineto
        return
      </CharString>
      <CharString index="90">
        -1 -25 -2 -20 vhcurveto
        -3 -37 return
      </CharString>
      <CharString index="91">
        hlineto
        2 4 rlineto
        -11 89 -1 return
      </CharString>
      <CharString index="92">
        hstemhm
        37 71 229 72 return
      </CharString>
      <CharString index="93">
        2 4 -2 return
      </CharString>
      <CharString index="94">
        -5 3 rcurveline
        -2 -12 -24 -2 -10 hhcurveto
        -35 hlineto
        return
      </CharString>
      <CharString index="95">
        151 -132 -21 121 32 return
      </CharString>
      <CharString index="96">
        1 11 39 1 12 hhcurveto
        34 hlineto
        return
      </CharString>
      <CharString index="97">
        -21 180 -20 hstem
        return
      </CharString>
      <CharString index="98">
        hstemhm
        131 return
      </CharString>
      <CharString index="99">
        rmoveto
        5 20 -3 7 -180 -57 callsubr
        return
      </CharString>
      <CharString index="100">
        11 77 -3 9 rlineto
        16 -29 -63 20 -63 hhcurveto
        -141 -115 -99 -146 return
      </CharString>
      <CharString index="101">
        -21 callgsubr
        -11 callgsubr
        11 return
      </CharString>
      <CharString index="102">
        -86 callsubr
        19 64 -3 return
      </CharString>
      <CharString index="103">
        -11 3 -37 rrcurveto
        return
      </CharString>
      <CharString index="104">
        25 208 -4 12 hhcurveto
        5 10 16 119 rlineto
        -22 hlineto
        -3 -4 rlineto
        return
      </CharString>
      <CharString index="105">
        -43 callsubr
        hintmask 01110000
        1 19 return
      </CharString>
      <CharString index="106">
        4 -4 rlineto
        21 22 return
      </CharString>
      <CharString index="107">
        2 -31 1 -48 callgsubr
        return
      </CharString>
      <CharString index="108">
        7 5 vvcurveto
        19 return
      </CharString>
      <CharString index="109">
        164 176 return
      </CharString>
      <CharString index="110">
        9 -11 hvcurveto
        return
      </CharString>
      <CharString index="111">
        -3 -2 rlineto
        -69 vlineto
        3 -2 rlineto
        11 90 21 1 40 hhcurveto
        return
      </CharString>
      <CharString index="112">
        15 -21 callsubr
        -101 25 callgsubr
        endchar
      </CharString>
      <CharString index="113">
        -100 25 callgsubr
        return
      </CharString>
      <CharString index="114">
        30 -11 48 -16 -21 return
      </CharString>
      <CharString index="115">
        4 rlineto
        -76 hlineto
        return
      </CharString>
      <CharString index="116">
        hvcurveto
        -4 -4 rlineto
        return
      </CharString>
      <CharString index="117">
        4 4 rlineto
        return
      </CharString>
      <CharString index="118">
        -14 callgsubr
        18 -6 4 -91 10 -31 33 -53 62 rlinecurve
        return
      </CharString>
      <CharString index="119">
        -11 38 270 38 -16 38 270 38 8 -20 hstemhm
        return
      </CharString>
      <CharString index="120">
        hvcurveto
        -10 9 return
      </CharString>
      <CharString index="121">
        -110 -21 120 48 -16 -21 464 -20 hstemhm
        return
      </CharString>
      <CharString index="122">
        -3 22 callsubr
        return
      </CharString>
      <CharString index="123">
        -4 22 3 -21 418 57 return
      </CharString>
      <CharString index="124">
        vlineto
        30 1 28 4 76 vhcurveto
        return
      </CharString>
      <CharString index="125">
        566 -21 128 -20 hstem
        return
      </CharString>
      <CharString index="126">
        49 192 49 return
      </CharString>
      <CharString index="127">
        4 3 18 return
      </CharString>
      <CharString index="128">
        665 rmoveto
        return
      </CharString>
      <CharString index="129">
        rmoveto
        96 45 96 106 104 48 -93 -42 6 vhcurveto
        return
      </CharString>
      <CharString index="130">
        3 5 5 rcurveline
        14 vlineto
        -3 4 rlineto
        -3 -26 return
      </CharString>
      <CharString index="131">
        7 -111 99 rlineto
        return
      </CharString>
      <CharString index="132">
        -3 -7 6 -20 rlineto
        return
      </CharString>
      <CharString index="133">
        hlineto
        118 142 37 155 107 -67 return
      </CharString>
      <CharString index="134">
        rmoveto
        -90 -54 -83 -104 -98 48 -83 93 97 return
      </CharString>
      <CharString index="135">
        35 -17 -21 324 38 return
      </CharString>
      <CharString index="136">
        10 -21 645 26 hstem
        return
      </CharString>
</ttFont>
